<svg width="2500" height="1080" viewBox="0 0 2500 1080" fill="none" xmlns="http://www.w3.org/2000/svg">
<g id="Group 14">
<path id="Rectangle 8" d="M0 605.5V416L351.885 292.925C394.538 278.007 438.472 267.037 483.132 260.155V260.155C633.681 236.955 787.721 260.908 924.116 328.73L1136.87 434.522C1319.18 525.173 1538.5 494.14 1688.5 356.466V356.466C1841.95 215.622 2067.48 186.699 2251.51 284.263L2500 416V1080L2489.23 1056.98C2359.91 780.612 2008.2 694.639 1765.98 880.182V880.182C1644.72 973.062 1486.37 1002.37 1339.9 959.032L991.239 855.87C713.502 773.693 413.778 815.974 169.611 971.774L0 1080V605.5Z" fill="url(#paint0_linear_801_59)"/>
<circle id="Ellipse 16" cx="354" cy="624" r="61" stroke="#B3ECFF" stroke-width="24"/>
<circle id="Ellipse 17" cx="374" cy="566" r="15" fill="#91D2E8"/>
<circle id="Ellipse 18" cx="1930.01" cy="368.013" r="73.1225" transform="rotate(-127.687 1930.01 368.013)" stroke="#A0E1FD" stroke-width="32"/>
<g id="Ellipse 19">
<circle cx="1858.74" cy="391.872" r="18.1332" transform="rotate(-127.687 1858.74 391.872)" fill="#9EBEF9"/>
<circle cx="1858.74" cy="391.872" r="17.6332" transform="rotate(-127.687 1858.74 391.872)" stroke="#1D60C2" stroke-opacity="0.45"/>
</g>
<circle id="Ellipse 18_2" cx="1391.01" cy="697.013" r="73.1225" transform="rotate(-127.687 1391.01 697.013)" stroke="url(#paint1_linear_801_59)" stroke-width="32"/>
<g id="Ellipse 19_2">
<circle cx="1319.74" cy="720.872" r="18.1332" transform="rotate(-127.687 1319.74 720.872)" fill="#4B8EF0"/>
<circle cx="1319.74" cy="720.872" r="17.6332" transform="rotate(-127.687 1319.74 720.872)" stroke="#1D60C2" stroke-opacity="0.45"/>
</g>
<g id="Ellipse 19_3">
<circle cx="1319.74" cy="720.872" r="18.1332" transform="rotate(-127.687 1319.74 720.872)" fill="#4B8EF0"/>
<circle cx="1319.74" cy="720.872" r="17.6332" transform="rotate(-127.687 1319.74 720.872)" stroke="#1D60C2" stroke-opacity="0.45"/>
</g>
<g id="Ellipse 19_4">
<circle cx="1319.74" cy="720.872" r="18.1332" transform="rotate(-127.687 1319.74 720.872)" fill="#4B8EF0"/>
<circle cx="1319.74" cy="720.872" r="17.6332" transform="rotate(-127.687 1319.74 720.872)" stroke="#1D60C2" stroke-opacity="0.45"/>
</g>
<circle id="Ellipse 18_3" cx="774.013" cy="411.013" r="73.1225" transform="rotate(-127.687 774.013 411.013)" stroke="#B3ECFF" stroke-width="32"/>
<circle id="Ellipse 19_5" cx="1319.74" cy="720.872" r="18.1332" transform="rotate(-127.687 1319.74 720.872)" fill="#8DE0FF"/>
<g id="Vector 5">
<path d="M1048.53 433.56L1064.7 445.581C1070.88 450.171 1073.64 458.054 1071.68 465.494L1070.76 468.981C1068.55 477.385 1073.74 485.95 1082.22 487.867V487.867C1090.09 489.648 1095.24 497.215 1094.01 505.189L1093.26 510.055C1091.74 519.85 1097.41 529.338 1106.75 532.651L1122.79 538.341" stroke="#6FA1EB" stroke-width="5"/>
<path d="M1048.53 433.56L1064.7 445.581C1070.88 450.171 1073.64 458.054 1071.68 465.494L1070.76 468.981C1068.55 477.385 1073.74 485.95 1082.22 487.867V487.867C1090.09 489.648 1095.24 497.215 1094.01 505.189L1093.26 510.055C1091.74 519.85 1097.41 529.338 1106.75 532.651L1122.79 538.341" stroke="#6FA1EB" stroke-width="5"/>
<path d="M1048.53 433.56L1064.7 445.581C1070.88 450.171 1073.64 458.054 1071.68 465.494L1070.76 468.981C1068.55 477.385 1073.74 485.95 1082.22 487.867V487.867C1090.09 489.648 1095.24 497.215 1094.01 505.189L1093.26 510.055C1091.74 519.85 1097.41 529.338 1106.75 532.651L1122.79 538.341" stroke="#6FA1EB" stroke-width="5"/>
<path d="M1048.53 433.56L1064.7 445.581C1070.88 450.171 1073.64 458.054 1071.68 465.494L1070.76 468.981C1068.55 477.385 1073.74 485.95 1082.22 487.867V487.867C1090.09 489.648 1095.24 497.215 1094.01 505.189L1093.26 510.055C1091.74 519.85 1097.41 529.338 1106.75 532.651L1122.79 538.341" stroke="#B3ECFF" stroke-width="5"/>
</g>
<g id="Vector 6">
<path d="M1034.66 441.361L1050.82 453.382C1057 457.973 1059.76 465.856 1057.8 473.295L1056.88 476.782C1054.67 485.187 1059.87 493.751 1068.34 495.669V495.669C1076.21 497.449 1081.36 505.017 1080.13 512.991L1079.38 517.856C1077.86 527.651 1083.53 537.139 1092.87 540.452L1108.91 546.143" stroke="#6FA1EB" stroke-width="5"/>
<path d="M1034.66 441.361L1050.82 453.382C1057 457.973 1059.76 465.856 1057.8 473.295L1056.88 476.782C1054.67 485.187 1059.87 493.751 1068.34 495.669V495.669C1076.21 497.449 1081.36 505.017 1080.13 512.991L1079.38 517.856C1077.86 527.651 1083.53 537.139 1092.87 540.452L1108.91 546.143" stroke="#6FA1EB" stroke-width="5"/>
<path d="M1034.66 441.361L1050.82 453.382C1057 457.973 1059.76 465.856 1057.8 473.295L1056.88 476.782C1054.67 485.187 1059.87 493.751 1068.34 495.669V495.669C1076.21 497.449 1081.36 505.017 1080.13 512.991L1079.38 517.856C1077.86 527.651 1083.53 537.139 1092.87 540.452L1108.91 546.143" stroke="#6FA1EB" stroke-width="5"/>
<path d="M1034.66 441.361L1050.82 453.382C1057 457.973 1059.76 465.856 1057.8 473.295L1056.88 476.782C1054.67 485.187 1059.87 493.751 1068.34 495.669V495.669C1076.21 497.449 1081.36 505.017 1080.13 512.991L1079.38 517.856C1077.86 527.651 1083.53 537.139 1092.87 540.452L1108.91 546.143" stroke="#B3ECFF" stroke-width="5"/>
</g>
<g id="Vector 7">
<path d="M1018.89 450.226L1035.05 462.247C1041.23 466.838 1043.99 474.72 1042.03 482.16L1041.11 485.647C1038.9 494.051 1044.1 502.616 1052.57 504.533V504.533C1060.44 506.314 1065.59 513.881 1064.36 521.855L1063.61 526.721C1062.09 536.516 1067.76 546.004 1077.1 549.317L1093.14 555.007" stroke="#6FA1EB" stroke-width="5"/>
<path d="M1018.89 450.226L1035.05 462.247C1041.23 466.838 1043.99 474.72 1042.03 482.16L1041.11 485.647C1038.9 494.051 1044.1 502.616 1052.57 504.533V504.533C1060.44 506.314 1065.59 513.881 1064.36 521.855L1063.61 526.721C1062.09 536.516 1067.76 546.004 1077.1 549.317L1093.14 555.007" stroke="#6FA1EB" stroke-width="5"/>
<path d="M1018.89 450.226L1035.05 462.247C1041.23 466.838 1043.99 474.72 1042.03 482.16L1041.11 485.647C1038.9 494.051 1044.1 502.616 1052.57 504.533V504.533C1060.44 506.314 1065.59 513.881 1064.36 521.855L1063.61 526.721C1062.09 536.516 1067.76 546.004 1077.1 549.317L1093.14 555.007" stroke="#6FA1EB" stroke-width="5"/>
<path d="M1018.89 450.226L1035.05 462.247C1041.23 466.838 1043.99 474.72 1042.03 482.16L1041.11 485.647C1038.9 494.051 1044.1 502.616 1052.57 504.533V504.533C1060.44 506.314 1065.59 513.881 1064.36 521.855L1063.61 526.721C1062.09 536.516 1067.76 546.004 1077.1 549.317L1093.14 555.007" stroke="#B3ECFF" stroke-width="5"/>
</g>
<g id="Vector 8">
<path d="M432.535 356.56L448.702 368.581C454.875 373.171 457.637 381.054 455.679 388.494L454.761 391.981C452.548 400.385 457.745 408.95 466.221 410.867V410.867C474.091 412.648 479.24 420.215 478.008 428.189L477.256 433.055C475.743 442.85 481.408 452.338 490.749 455.651L506.791 461.341" stroke="#6FA1EB" stroke-width="5"/>
<path d="M432.535 356.56L448.702 368.581C454.875 373.171 457.637 381.054 455.679 388.494L454.761 391.981C452.548 400.385 457.745 408.95 466.221 410.867V410.867C474.091 412.648 479.24 420.215 478.008 428.189L477.256 433.055C475.743 442.85 481.408 452.338 490.749 455.651L506.791 461.341" stroke="#6FA1EB" stroke-width="5"/>
<path d="M432.535 356.56L448.702 368.581C454.875 373.171 457.637 381.054 455.679 388.494L454.761 391.981C452.548 400.385 457.745 408.95 466.221 410.867V410.867C474.091 412.648 479.24 420.215 478.008 428.189L477.256 433.055C475.743 442.85 481.408 452.338 490.749 455.651L506.791 461.341" stroke="#6FA1EB" stroke-width="5"/>
<path d="M432.535 356.56L448.702 368.581C454.875 373.171 457.637 381.054 455.679 388.494L454.761 391.981C452.548 400.385 457.745 408.95 466.221 410.867V410.867C474.091 412.648 479.24 420.215 478.008 428.189L477.256 433.055C475.743 442.85 481.408 452.338 490.749 455.651L506.791 461.341" stroke="#B3ECFF" stroke-width="5"/>
</g>
<g id="Vector 9">
<path d="M418.656 364.361L434.823 376.382C440.996 380.973 443.758 388.856 441.8 396.295L440.882 399.782C438.669 408.187 443.866 416.751 452.343 418.669V418.669C460.212 420.449 465.362 428.017 464.129 435.991L463.377 440.856C461.864 450.651 467.529 460.139 476.87 463.452L492.912 469.143" stroke="#6FA1EB" stroke-width="5"/>
<path d="M418.656 364.361L434.823 376.382C440.996 380.973 443.758 388.856 441.8 396.295L440.882 399.782C438.669 408.187 443.866 416.751 452.343 418.669V418.669C460.212 420.449 465.362 428.017 464.129 435.991L463.377 440.856C461.864 450.651 467.529 460.139 476.87 463.452L492.912 469.143" stroke="#6FA1EB" stroke-width="5"/>
<path d="M418.656 364.361L434.823 376.382C440.996 380.973 443.758 388.856 441.8 396.295L440.882 399.782C438.669 408.187 443.866 416.751 452.343 418.669V418.669C460.212 420.449 465.362 428.017 464.129 435.991L463.377 440.856C461.864 450.651 467.529 460.139 476.87 463.452L492.912 469.143" stroke="#6FA1EB" stroke-width="5"/>
<path d="M418.656 364.361L434.823 376.382C440.996 380.973 443.758 388.856 441.8 396.295L440.882 399.782C438.669 408.187 443.866 416.751 452.343 418.669V418.669C460.212 420.449 465.362 428.017 464.129 435.991L463.377 440.856C461.864 450.651 467.529 460.139 476.87 463.452L492.912 469.143" stroke="#B3ECFF" stroke-width="5"/>
</g>
<g id="Vector 10">
<path d="M402.885 373.226L419.053 385.247C425.226 389.838 427.988 397.72 426.029 405.16L425.111 408.647C422.898 417.051 428.095 425.616 436.572 427.533V427.533C444.442 429.314 449.591 436.881 448.359 444.855L447.607 449.721C446.093 459.516 451.758 469.004 461.099 472.317L477.142 478.007" stroke="#6FA1EB" stroke-width="5"/>
<path d="M402.885 373.226L419.053 385.247C425.226 389.838 427.988 397.72 426.029 405.16L425.111 408.647C422.898 417.051 428.095 425.616 436.572 427.533V427.533C444.442 429.314 449.591 436.881 448.359 444.855L447.607 449.721C446.093 459.516 451.758 469.004 461.099 472.317L477.142 478.007" stroke="#6FA1EB" stroke-width="5"/>
<path d="M402.885 373.226L419.053 385.247C425.226 389.838 427.988 397.72 426.029 405.16L425.111 408.647C422.898 417.051 428.095 425.616 436.572 427.533V427.533C444.442 429.314 449.591 436.881 448.359 444.855L447.607 449.721C446.093 459.516 451.758 469.004 461.099 472.317L477.142 478.007" stroke="#6FA1EB" stroke-width="5"/>
<path d="M402.885 373.226L419.053 385.247C425.226 389.838 427.988 397.72 426.029 405.16L425.111 408.647C422.898 417.051 428.095 425.616 436.572 427.533V427.533C444.442 429.314 449.591 436.881 448.359 444.855L447.607 449.721C446.093 459.516 451.758 469.004 461.099 472.317L477.142 478.007" stroke="#B3ECFF" stroke-width="5"/>
</g>
<g id="Vector 5_2">
<path d="M1766.87 502.065L1789.21 518.677C1797.74 525.02 1801.56 535.913 1798.85 546.193L1797.58 551.012C1794.52 562.626 1801.7 574.46 1813.42 577.111V577.111C1824.29 579.571 1831.41 590.028 1829.71 601.047L1828.67 607.771C1826.57 621.306 1834.4 634.417 1847.31 638.995L1869.48 646.859" stroke="#6FA1EB" stroke-width="5"/>
<path d="M1766.87 502.065L1789.21 518.677C1797.74 525.02 1801.56 535.913 1798.85 546.193L1797.58 551.012C1794.52 562.626 1801.7 574.46 1813.42 577.111V577.111C1824.29 579.571 1831.41 590.028 1829.71 601.047L1828.67 607.771C1826.57 621.306 1834.4 634.417 1847.31 638.995L1869.48 646.859" stroke="#6FA1EB" stroke-width="5"/>
<path d="M1766.87 502.065L1789.21 518.677C1797.74 525.02 1801.56 535.913 1798.85 546.193L1797.58 551.012C1794.52 562.626 1801.7 574.46 1813.42 577.111V577.111C1824.29 579.571 1831.41 590.028 1829.71 601.047L1828.67 607.771C1826.57 621.306 1834.4 634.417 1847.31 638.995L1869.48 646.859" stroke="#6FA1EB" stroke-width="5"/>
<path d="M1766.87 502.065L1789.21 518.677C1797.74 525.02 1801.56 535.913 1798.85 546.193L1797.58 551.012C1794.52 562.626 1801.7 574.46 1813.42 577.111V577.111C1824.29 579.571 1831.41 590.028 1829.71 601.047L1828.67 607.771C1826.57 621.306 1834.4 634.417 1847.31 638.995L1869.48 646.859" stroke="#A9E6FE" stroke-width="5"/>
</g>
<g id="Vector 6_2">
<path d="M1747.69 512.845L1770.03 529.457C1778.56 535.8 1782.38 546.693 1779.67 556.974L1778.4 561.792C1775.35 573.406 1782.53 585.241 1794.24 587.891V587.891C1805.11 590.351 1812.23 600.808 1810.53 611.827L1809.49 618.551C1807.4 632.087 1815.23 645.197 1828.13 649.776L1850.3 657.639" stroke="#6FA1EB" stroke-width="5"/>
<path d="M1747.69 512.845L1770.03 529.457C1778.56 535.8 1782.38 546.693 1779.67 556.974L1778.4 561.792C1775.35 573.406 1782.53 585.241 1794.24 587.891V587.891C1805.11 590.351 1812.23 600.808 1810.53 611.827L1809.49 618.551C1807.4 632.087 1815.23 645.197 1828.13 649.776L1850.3 657.639" stroke="#6FA1EB" stroke-width="5"/>
<path d="M1747.69 512.845L1770.03 529.457C1778.56 535.8 1782.38 546.693 1779.67 556.974L1778.4 561.792C1775.35 573.406 1782.53 585.241 1794.24 587.891V587.891C1805.11 590.351 1812.23 600.808 1810.53 611.827L1809.49 618.551C1807.4 632.087 1815.23 645.197 1828.13 649.776L1850.3 657.639" stroke="#6FA1EB" stroke-width="5"/>
<path d="M1747.69 512.845L1770.03 529.457C1778.56 535.8 1782.38 546.693 1779.67 556.974L1778.4 561.792C1775.35 573.406 1782.53 585.241 1794.24 587.891V587.891C1805.11 590.351 1812.23 600.808 1810.53 611.827L1809.49 618.551C1807.4 632.087 1815.23 645.197 1828.13 649.776L1850.3 657.639" stroke="#A9E6FE" stroke-width="5"/>
</g>
<g id="Vector 7_2">
<path d="M1725.9 525.095L1748.24 541.707C1756.77 548.05 1760.58 558.943 1757.88 569.224L1756.61 574.042C1753.55 585.656 1760.73 597.491 1772.45 600.141V600.141C1783.32 602.601 1790.44 613.058 1788.73 624.077L1787.7 630.801C1785.6 644.337 1793.43 657.447 1806.34 662.026L1828.51 669.889" stroke="#6FA1EB" stroke-width="5"/>
<path d="M1725.9 525.095L1748.24 541.707C1756.77 548.05 1760.58 558.943 1757.88 569.224L1756.61 574.042C1753.55 585.656 1760.73 597.491 1772.45 600.141V600.141C1783.32 602.601 1790.44 613.058 1788.73 624.077L1787.7 630.801C1785.6 644.337 1793.43 657.447 1806.34 662.026L1828.51 669.889" stroke="#6FA1EB" stroke-width="5"/>
<path d="M1725.9 525.095L1748.24 541.707C1756.77 548.05 1760.58 558.943 1757.88 569.224L1756.61 574.042C1753.55 585.656 1760.73 597.491 1772.45 600.141V600.141C1783.32 602.601 1790.44 613.058 1788.73 624.077L1787.7 630.801C1785.6 644.337 1793.43 657.447 1806.34 662.026L1828.51 669.889" stroke="#6FA1EB" stroke-width="5"/>
<path d="M1725.9 525.095L1748.24 541.707C1756.77 548.05 1760.58 558.943 1757.88 569.224L1756.61 574.042C1753.55 585.656 1760.73 597.491 1772.45 600.141V600.141C1783.32 602.601 1790.44 613.058 1788.73 624.077L1787.7 630.801C1785.6 644.337 1793.43 657.447 1806.34 662.026L1828.51 669.889" stroke="#A9E6FE" stroke-width="5"/>
</g>
</g>
<defs>
<linearGradient id="paint0_linear_801_59" x1="1331.5" y1="-58.5" x2="1342" y2="939.5" gradientUnits="userSpaceOnUse">
<stop offset="0.0942527" stop-color="#42A9F8"/>
<stop offset="1" stop-color="#C1F4FF"/>
</linearGradient>
<linearGradient id="paint1_linear_801_59" x1="1480.14" y1="697.013" x2="1301.89" y2="697.013" gradientUnits="userSpaceOnUse">
<stop stop-color="#8DE0FF"/>
<stop offset="1" stop-color="#A0E1FD"/>
</linearGradient>
</defs>
</svg>
