<svg width="839" height="1001" viewBox="0 0 839 1001" fill="none" xmlns="http://www.w3.org/2000/svg">
<g clip-path="url(#clip0_920_88)">
<path d="M471 504C490.5 787 260 924 4.5 1009C-274.128 1009 -500 781.561 -500 501C-500 220.439 -274.128 -7 4.5 -7C250 43 402.5 238 471 504Z" fill="url(#paint0_linear_920_88)"/>
<circle cx="175" cy="335" r="120" stroke="url(#paint1_linear_920_88)" stroke-width="40"/>
<path d="M372.517 698.968L377.769 696.467C382.944 694.002 389.096 696.756 390.706 702.257L390.89 702.888C392.289 707.667 397.411 710.295 402.109 708.643V708.643C406.729 707.018 411.778 709.532 413.267 714.197L414.416 717.799C415.832 722.236 420.699 724.557 425.039 722.866V722.866C429.528 721.116 434.54 723.662 435.774 728.319L435.844 728.582C437.248 733.881 443.305 736.395 448.049 733.649L452.442 731.106" stroke="#B9E5F8"/>
<path d="M369.403 704.097L374.656 701.596C379.831 699.132 385.983 701.885 387.593 707.387L387.777 708.017C389.176 712.797 394.298 715.424 398.996 713.772V713.772C403.616 712.148 408.665 714.661 410.154 719.326L411.303 722.928C412.719 727.365 417.586 729.687 421.926 727.995V727.995C426.414 726.245 431.426 728.791 432.661 733.448L432.731 733.712C434.135 739.01 440.192 741.525 444.936 738.779L449.329 736.236" stroke="#B9E5F8"/>
<path d="M367.999 710.264L373.249 707.729C378.356 705.263 384.454 707.994 386.014 713.447L386.19 714.06C387.549 718.808 392.638 721.419 397.287 719.754V719.754C401.859 718.116 406.875 720.613 408.325 725.249L409.434 728.797C410.813 733.207 415.65 735.514 419.945 733.812V733.812C424.387 732.051 429.367 734.581 430.564 739.207L430.628 739.456C431.986 744.706 437.988 747.201 442.667 744.461L447.07 741.883" stroke="#B9E5F8"/>
<path d="M44.5167 71.9677L49.769 69.4668C54.9444 67.0024 61.096 69.756 62.7059 75.2574L62.8902 75.8875C64.2889 80.6672 69.4113 83.295 74.1094 81.6429V81.6429C78.7293 80.0184 83.7782 82.5317 85.267 87.197L86.4163 90.7985C87.8323 95.2357 92.6993 97.5573 97.0388 95.8655V95.8655C101.528 94.1157 106.54 96.6617 107.774 101.319L107.844 101.582C109.248 106.881 115.305 109.395 120.049 106.649L124.442 104.106" stroke="#3FBAF9"/>
<path d="M44.5167 71.9677L49.769 69.4668C54.9444 67.0024 61.096 69.756 62.7059 75.2574L62.8902 75.8875C64.2889 80.6672 69.4113 83.295 74.1094 81.6429V81.6429C78.7293 80.0184 83.7782 82.5317 85.267 87.197L86.4163 90.7985C87.8323 95.2357 92.6993 97.5573 97.0388 95.8655V95.8655C101.528 94.1157 106.54 96.6617 107.774 101.319L107.844 101.582C109.248 106.881 115.305 109.395 120.049 106.649L124.442 104.106" stroke="#3FBAF9"/>
<path d="M44.5167 71.9677L49.769 69.4668C54.9444 67.0024 61.096 69.756 62.7059 75.2574L62.8902 75.8875C64.2889 80.6672 69.4113 83.295 74.1094 81.6429V81.6429C78.7293 80.0184 83.7782 82.5317 85.267 87.197L86.4163 90.7985C87.8323 95.2357 92.6993 97.5573 97.0388 95.8655V95.8655C101.528 94.1157 106.54 96.6617 107.774 101.319L107.844 101.582C109.248 106.881 115.305 109.395 120.049 106.649L124.442 104.106" stroke="#3FBAF9"/>
<path d="M41.4034 77.0971L46.6557 74.5962C51.8311 72.1318 57.9827 74.8854 59.5926 80.3868L59.777 81.0169C61.1756 85.7966 66.298 88.4244 70.9961 86.7723V86.7723C75.616 85.1478 80.6649 87.661 82.1537 92.3264L83.3031 95.9279C84.7191 100.365 89.586 102.687 93.9256 100.995V100.995C98.4142 99.2451 103.426 101.791 104.661 106.448L104.731 106.712C106.135 112.01 112.192 114.525 116.936 111.779L121.329 109.236" stroke="#3FBAF9"/>
<path d="M41.4034 77.0971L46.6557 74.5962C51.8311 72.1318 57.9827 74.8854 59.5926 80.3868L59.777 81.0169C61.1756 85.7966 66.298 88.4244 70.9961 86.7723V86.7723C75.616 85.1478 80.6649 87.661 82.1537 92.3264L83.3031 95.9279C84.7191 100.365 89.586 102.687 93.9256 100.995V100.995C98.4142 99.2451 103.426 101.791 104.661 106.448L104.731 106.712C106.135 112.01 112.192 114.525 116.936 111.779L121.329 109.236" stroke="#3FBAF9"/>
<path d="M41.4034 77.0971L46.6557 74.5962C51.8311 72.1318 57.9827 74.8854 59.5926 80.3868L59.777 81.0169C61.1756 85.7966 66.298 88.4244 70.9961 86.7723V86.7723C75.616 85.1478 80.6649 87.661 82.1537 92.3264L83.3031 95.9279C84.7191 100.365 89.586 102.687 93.9256 100.995V100.995C98.4142 99.2451 103.426 101.791 104.661 106.448L104.731 106.712C106.135 112.01 112.192 114.525 116.936 111.779L121.329 109.236" stroke="#3FBAF9"/>
<path d="M39.9991 83.2636L45.2486 80.729C50.3563 78.2629 56.4536 80.9939 58.0144 86.4468L58.19 87.0602C59.549 91.808 64.6378 94.4189 69.2871 92.7537V92.7537C73.8593 91.1161 78.8754 93.6132 80.3248 98.2486L81.4344 101.797C82.8132 106.207 87.6496 108.514 91.9446 106.812V106.812C96.3865 105.051 101.367 107.581 102.564 112.207L102.628 112.456C103.986 117.706 109.988 120.201 114.667 117.461L119.07 114.883" stroke="#3FBAF9"/>
<path d="M39.9991 83.2636L45.2486 80.729C50.3563 78.2629 56.4536 80.9939 58.0144 86.4468L58.19 87.0602C59.549 91.808 64.6378 94.4189 69.2871 92.7537V92.7537C73.8593 91.1161 78.8754 93.6132 80.3248 98.2486L81.4344 101.797C82.8132 106.207 87.6496 108.514 91.9446 106.812V106.812C96.3865 105.051 101.367 107.581 102.564 112.207L102.628 112.456C103.986 117.706 109.988 120.201 114.667 117.461L119.07 114.883" stroke="#3FBAF9"/>
<path d="M39.9991 83.2636L45.2486 80.729C50.3563 78.2629 56.4536 80.9939 58.0144 86.4468L58.19 87.0602C59.549 91.808 64.6378 94.4189 69.2871 92.7537V92.7537C73.8593 91.1161 78.8754 93.6132 80.3248 98.2486L81.4344 101.797C82.8132 106.207 87.6496 108.514 91.9446 106.812V106.812C96.3865 105.051 101.367 107.581 102.564 112.207L102.628 112.456C103.986 117.706 109.988 120.201 114.667 117.461L119.07 114.883" stroke="#3FBAF9"/>
<rect x="325" y="868" width="43" height="43" rx="21.5" fill="#65C8EE"/>
</g>
<defs>
<linearGradient id="paint0_linear_920_88" x1="-13.9228" y1="-7" x2="-13.9228" y2="1009" gradientUnits="userSpaceOnUse">
<stop stop-color="#D4EFF8"/>
<stop offset="1" stop-color="#7BCCF7"/>
</linearGradient>
<linearGradient id="paint1_linear_920_88" x1="315" y1="239.346" x2="35" y2="430.654" gradientUnits="userSpaceOnUse">
<stop stop-color="#5DC8FC"/>
<stop offset="1" stop-color="#66C8EA"/>
</linearGradient>
<clipPath id="clip0_920_88">
<rect width="839" height="1001" fill="white"/>
</clipPath>
</defs>
</svg>
