<svg xmlns="http://www.w3.org/2000/svg" fill="none" viewBox="0 0 24 24">
  <g clip-path="url(#a)">
    <path fill="#ED2024" d="M12 24a12 12 0 1 0 0-24 12 12 0 0 0 0 24Z"/>
    <path fill="#fff" d="M17.5 9.2c-.1-.5-.5-.8-1-1C15.5 8 12 8 12 8s-3.6 0-4.5.2c-.5.2-.9.5-1 1-.3 1-.3 2.8-.3 2.8s0 1.9.3 2.8c.1.5.5.8 1 1 .9.2 4.5.2 4.5.2s3.6 0 4.5-.2c.5-.2.9-.5 1-1 .2-1 .2-2.8.2-2.8s0-1.9-.2-2.8Z"/>
    <path fill="#ED2024" d="m10.8 13.7 3-1.7-3-1.7v3.4Z"/>
  </g>
  <defs>
    <clipPath id="a">
      <path fill="#fff" d="M0 0h24v24H0z"/>
    </clipPath>
  </defs>
</svg>
