<svg width="928" height="300" viewBox="0 0 928 300" fill="none" xmlns="http://www.w3.org/2000/svg">
<g id="Frame 5">
<path id="Rectangle 8" d="M0 160L183.131 69.0435C209.952 55.7222 241.332 55.1225 268.642 67.4091L400.965 126.94C431.583 140.714 467.069 138.205 495.443 120.261L621.046 40.8269C650.788 22.0173 688.228 20.2255 719.631 36.1086L928 141.5V269L695.944 217.93C678.311 214.049 659.956 215.015 642.827 220.724L487.749 272.417C463.507 280.498 437.092 278.992 413.926 268.208L263.001 197.956C238.987 186.778 211.519 185.584 186.626 194.636L0 262.5V160Z" fill="url(#paint0_linear_778_47)"/>
<g id="Group 14">
<rect id="Rectangle 9" x="896.989" y="164.683" width="19.9837" height="19.9837" transform="rotate(60 896.989 164.683)" stroke="#6387BF"/>
<rect id="Rectangle 10" x="896.194" y="168.323" width="14.3366" height="14.3366" transform="rotate(60 896.194 168.323)" stroke="#6387BF"/>
</g>
<path id="Ellipse 17" d="M69.4003 143.832C70.0481 148.316 67.3351 141.663 69.6496 145.558C71.9641 149.453 75.0231 152.853 78.6518 155.566C82.2806 158.279 86.4082 160.25 90.7988 161.367C95.1895 162.485 99.7572 162.727 104.241 162.079C108.725 161.431 113.038 159.906 116.933 157.592C120.827 155.277 124.228 152.218 126.941 148.589C129.653 144.961 131.625 140.833 132.742 136.442C133.86 132.052 134.101 127.484 133.454 123L111.584 126.16C111.817 127.772 111.73 129.414 111.328 130.992C110.926 132.571 110.218 134.055 109.242 135.359C108.267 136.664 107.045 137.764 105.644 138.596C104.244 139.428 102.694 139.976 101.082 140.209C99.4695 140.442 97.8274 140.355 96.2489 139.953C94.6704 139.551 93.1865 138.843 91.8819 137.867C90.5773 136.892 89.4776 135.67 88.6455 134.269C88.8784 135.882 87.8134 132.869 88.6455 134.269L69.4003 143.832Z" fill="#8BA8D4" fill-opacity="0.79"/>
<path id="Arrow 1" d="M343.173 208.327C343.677 208.552 344.269 208.326 344.494 207.821L348.162 199.603C348.387 199.098 348.161 198.507 347.656 198.282C347.152 198.057 346.561 198.283 346.335 198.788L343.075 206.093L335.77 202.832C335.265 202.607 334.674 202.834 334.449 203.338C334.224 203.842 334.45 204.434 334.954 204.659L343.173 208.327ZM334.066 185.358L342.647 207.771L344.515 207.056L335.934 184.642L334.066 185.358Z" fill="#6A8DC2"/>
<path id="Ellipse 16" d="M844.184 250.514C844.288 241.957 843.952 242.323 843.35 237.832C842.749 233.342 841.269 229.014 838.995 225.095C836.721 221.176 833.698 217.744 830.097 214.994C826.497 212.244 822.39 210.23 818.011 209.067C813.633 207.904 809.068 207.615 804.577 208.216C800.087 208.817 795.759 209.549 791.841 211.823C788.069 213.447 781.317 216.916 772.107 234.478L794.77 239.631C795.759 238.337 801.521 232.501 802.93 231.683C804.339 230.866 805.895 230.334 807.509 230.117C809.124 229.901 810.765 230.005 812.339 230.423C813.913 230.841 815.39 231.565 816.684 232.554C817.979 233.543 819.066 234.777 819.883 236.186C820.701 237.594 821.233 239.15 821.449 240.765C821.665 242.379 821.44 243.839 821.022 245.413L844.184 250.514Z" fill="#7191C1" fill-opacity="0.61"/>
<circle id="Ellipse 18" cx="34.5" cy="225.5" r="18.5" fill="#6A8DC2" fill-opacity="0.39"/>
<g id="Group 15">
<path id="Polygon 1" d="M42.1745 223.984L27.5407 238.618L22.1843 218.628L42.1745 223.984Z" fill="#5C85C3"/>
<path id="Polygon 2" d="M44.4831 223.366L29.8493 238L24.4929 218.01L44.4831 223.366Z" fill="#5C85C3"/>
<path id="Polygon 3" d="M47.5593 222.542L32.9254 237.176L27.5691 217.185L47.5593 222.542Z" fill="#5C85C3"/>
</g>
</g>
<defs>
<linearGradient id="paint0_linear_778_47" x1="460.315" y1="23" x2="467.926" y2="276.5" gradientUnits="userSpaceOnUse">
<stop offset="0.11" stop-color="#4775BA"/>
<stop offset="0.88" stop-color="#ADC3E4"/>
</linearGradient>
</defs>
</svg>
