<svg width="850" height="401" viewBox="0 0 850 401" fill="none" xmlns="http://www.w3.org/2000/svg">
<path d="M-20 0H870V49.0446C870 73.9089 847.67 92.8203 823.145 88.7264V88.7264C812.28 86.9127 801.146 89.6337 792.342 96.2545L748.405 129.295C728.837 144.01 706.296 154.282 682.353 159.396L616.088 173.549L519.809 200.903C507.63 204.364 499.108 215.332 498.767 227.989L496.828 299.722C496.166 324.251 460.702 326.373 455.74 302.342V302.342C451.287 280.78 420.406 280.15 415.834 301.687V301.687C410.805 325.378 375.997 321.995 375.624 297.779L374.546 227.999C374.352 215.405 365.828 204.466 353.662 201.2L250.665 173.549L159.255 157.538C137.523 153.732 117.917 142.154 104.091 124.962L91.9337 109.845C79.9393 94.9314 61.1331 87.2128 42.1199 89.4004V89.4004C9.02501 93.2082 -20 67.3312 -20 34.018V0Z" fill="#3F3D56"/>
<path d="M0 0H850V35.1881C850 59.592 828.327 78.3023 804.184 74.7403V74.7403C794.409 73.2981 784.446 75.5267 776.218 80.9961L734.356 108.82C715.312 121.478 693.922 130.186 671.452 134.427L607.5 146.5L515.983 169.482C504.159 172.451 495.743 182.908 495.37 195.094L493.63 252.047C492.921 275.226 459.607 277.688 454.332 255.107V255.107C449.655 235.087 421.08 234.541 416.279 254.531V254.531C410.931 276.796 378.224 273.213 377.824 250.318L376.86 195.093C376.648 182.976 368.252 172.543 356.461 169.745L258.5 146.5L169.547 132.729C149.78 129.669 131.658 119.931 118.197 105.137L107.235 93.0894C95.4512 80.1394 78.2245 73.545 60.8057 75.3164V75.3164C28.2678 78.6253 0 53.0864 0 20.3807V0Z" fill="url(#paint0_linear_1022_193)"/>
<path d="M606.844 203.363C606.293 203.212 605.781 202.942 605.345 202.572C604.91 202.202 604.56 201.741 604.322 201.221C604.084 200.702 603.962 200.136 603.966 199.564C603.97 198.993 604.099 198.429 604.344 197.912L594.441 188.163L601.504 186.656L609.825 196.145C610.665 196.615 611.304 197.377 611.62 198.286C611.936 199.195 611.908 200.188 611.541 201.078C611.173 201.968 610.492 202.692 609.627 203.113C608.761 203.534 607.771 203.623 606.844 203.363Z" fill="#FFB6B6"/>
<path d="M594.634 127.156C606.276 127.156 615.714 117.719 615.714 106.078C615.714 94.437 606.276 85 594.634 85C582.992 85 573.555 94.437 573.555 106.078C573.555 117.719 582.992 127.156 594.634 127.156Z" fill="#E6E6E6"/>
<path d="M591.47 128.737C603.112 128.737 612.55 119.3 612.55 107.659C612.55 96.0178 603.112 86.5808 591.47 86.5808C579.828 86.5808 570.391 96.0178 570.391 107.659C570.391 119.3 579.828 128.737 591.47 128.737Z" fill="#E6E6E6"/>
<path d="M614.656 338.436L594.898 338.435V338.186C594.899 336.146 595.709 334.19 597.151 332.748C598.593 331.306 600.549 330.496 602.589 330.496L606.198 327.758L612.932 330.496L614.657 330.496L614.656 338.436Z" fill="#E6E6E6"/>
<path d="M605.459 327.766L588.578 338.032L588.448 337.819C587.388 336.076 587.064 333.984 587.547 332.003C588.029 330.021 589.279 328.312 591.022 327.253L592.683 323.038L599.859 321.878L601.333 320.982L605.459 327.766Z" fill="#E6E6E6"/>
<path d="M617.068 271.789C616.979 272.422 616.847 274.572 616.694 277.702C615.951 292.878 614.66 331.088 614.66 331.088L606.613 328.584C606.613 328.584 597.043 299.718 598.624 283.909L597.485 278.408L595.535 269.007V269.002L589.596 240.372C589.596 240.372 588.295 248.129 588.189 249.947C588.084 251.765 587.03 252.292 586.503 252.292C583.863 252.292 584.674 251.823 585.059 254.432C585.338 256.307 583.051 267.063 581.744 272.943C581.238 275.23 580.88 276.78 580.88 276.78L583.114 281.596L601.638 321.539L594.634 325.291L566.693 283.883L563.937 279.799L563.347 275.22L558.699 239.192C558.699 239.192 557.25 235.119 558.699 235.013C560.153 234.903 560.975 235.361 560.564 233.817C560.153 232.268 568.585 206.447 568.585 206.447L612.325 215.932C612.325 215.932 616.636 224.5 614.96 228.579C613.279 232.658 616.336 264.243 614.591 265.645C612.852 267.047 611.73 265.924 614.133 268.333C614.5 268.716 614.934 269.03 615.413 269.26C616.9 269.934 617.49 268.838 617.068 271.789Z" fill="#E6E6E6"/>
<path d="M591.334 120.791C598.044 120.791 603.484 115.351 603.484 108.641C603.484 101.932 598.044 96.4922 591.334 96.4922C584.623 96.4922 579.184 101.932 579.184 108.641C579.184 115.351 584.623 120.791 591.334 120.791Z" fill="#FFB6B6"/>
<path d="M600.799 119.105L595.982 120.027C595.982 120.027 600.462 112.797 600.198 109.488C599.935 106.179 596.33 104.993 596.33 104.993C596.33 104.993 594.333 105.425 592.23 105.668C591.978 104.959 591.651 104.279 591.255 103.639C591.177 104.465 590.812 105.237 590.222 105.821C589.452 105.887 588.676 105.797 587.94 105.557C587.108 105.178 587.123 104.519 587.398 103.902C584.684 104.126 582.035 104.854 579.588 106.047C579.466 104.429 579.528 102.803 579.772 101.199C579.888 101.168 580.004 101.131 580.12 101.094C580.838 100.867 581.53 100.565 582.186 100.193C581.457 100.096 580.775 99.7756 580.236 99.2758C580.678 97.9795 581.385 96.8571 582.497 96.3091C583.569 95.7844 584.742 95.4965 585.936 95.4646C587.13 95.4328 588.317 95.6579 589.416 96.1246C589.416 96.1246 586.839 94.2434 587.788 93.4741C587.851 93.5373 587.914 93.5953 587.983 93.6532C588.072 93.727 588.172 93.806 588.267 93.8798C588.852 94.3541 589.727 93.6849 589.843 92.9682C589.855 92.8777 589.873 92.788 589.895 92.6994C589.911 92.6257 589.932 92.5519 589.953 92.4834C589.971 92.4226 589.992 92.3628 590.017 92.3042C591.772 91.8827 597.078 93.5953 599.118 97.3683C599.118 97.3683 613.373 104.219 600.799 119.105Z" fill="#3F3D56"/>
<path d="M596.4 227.426C596.224 226.212 596.529 224.978 597.25 223.986C597.97 222.993 599.05 222.321 600.258 222.112C600.504 222.074 600.753 222.056 601.003 222.058L613.707 192.558L622.422 199.101L605.454 227.047C605.363 228.08 604.933 229.054 604.231 229.817C603.529 230.58 602.594 231.089 601.572 231.264C600.989 231.359 600.394 231.338 599.82 231.202C599.246 231.066 598.704 230.819 598.225 230.474C597.747 230.128 597.341 229.692 597.031 229.19C596.721 228.688 596.513 228.13 596.418 227.548C596.412 227.507 596.406 227.467 596.4 227.426Z" fill="#FFB6B6"/>
<path d="M560.81 229.83C561.665 228.951 562.143 227.773 562.142 226.547C562.142 225.32 561.663 224.143 560.807 223.264C560.63 223.088 560.439 222.927 560.236 222.783L567.274 191.445L556.377 191.624L553.703 224.209C553.17 225.098 552.946 226.139 553.067 227.168C553.187 228.198 553.646 229.159 554.37 229.901C554.786 230.32 555.28 230.652 555.825 230.879C556.369 231.106 556.953 231.224 557.543 231.226C558.133 231.227 558.718 231.113 559.263 230.889C559.809 230.664 560.305 230.335 560.724 229.919C560.753 229.89 560.782 229.86 560.81 229.83Z" fill="#FFB6B6"/>
<path d="M631.031 177.37C629.45 179.477 627.342 177.101 629.45 180.136C630.899 182.223 622.594 201.783 617.276 213.766C614.873 219.189 613.076 223.062 613.076 223.062L604.112 217.871L603.063 217.265C603.063 217.265 611.284 196.577 613.93 189.142C614.367 187.909 614.657 187.039 614.726 186.691C615.221 184.22 615.284 182.102 614.726 181.317C614.593 181.024 614.481 180.723 614.388 180.415C613.329 177.312 610.104 166.831 607.084 156.919C606.204 154.01 605.335 151.154 604.544 148.545C602.515 141.848 600.992 136.794 600.992 136.794L613.113 137.321C613.113 137.321 613.313 137.658 613.666 138.27C614.509 139.724 616.238 142.722 618.241 146.327C619.684 148.919 621.276 151.833 622.778 154.7C626.604 161.993 629.898 169.017 628.923 169.992C626.815 172.1 624.659 170.904 627.315 173.607C629.977 176.316 632.612 175.262 631.031 177.37Z" fill="#E6E6E6"/>
<path d="M616.538 205.394C613.376 202.264 613.961 187.999 613.961 187.999C613.961 187.999 617.107 140.099 612.849 136.89C609.905 134.765 606.772 132.915 603.49 131.362C603.3 131.278 603.2 131.23 603.2 131.23L600.481 123.563L583.728 122.694L580.803 128.374C580.803 128.374 580.345 128.406 579.628 128.506C576.951 128.875 570.659 130.182 571.217 134.255C571.923 139.419 566.938 171.137 565.42 172.723C563.903 174.309 564.303 180.105 568.055 183.789C571.807 187.472 569.109 197.49 566.474 201.705C564.893 204.285 564.163 207.298 564.387 210.316C564.387 210.316 566.474 221.729 571.744 218.041C573.752 216.634 576.603 216.455 580.034 216.713C580.067 216.715 580.103 216.72 580.137 216.722L580.034 217.24C584.798 217.593 590.684 218.789 596.982 218.72L596.795 218.191C596.858 218.191 596.919 218.194 596.982 218.194C598.046 218.183 599.116 218.136 600.202 218.041C609.593 217.224 613.74 219.806 614.957 216.987C616.175 214.168 619.7 208.524 616.538 205.394Z" fill="#E6E6E6"/>
<path opacity="0.3" d="M592.532 122.692C601.264 122.692 608.342 115.614 608.342 106.883C608.342 98.1522 601.264 91.0745 592.532 91.0745C583.801 91.0745 576.723 98.1522 576.723 106.883C576.723 115.614 583.801 122.692 592.532 122.692Z" fill="#6EACF6"/>
<path d="M583.866 131.525C583.866 131.525 581.463 139.503 578.664 148.709C577.784 151.607 576.862 154.627 575.966 157.562C573.041 167.105 570.375 175.705 570.127 176.047C569.569 176.832 569.637 178.951 570.127 181.422C570.227 181.918 570.001 183.846 569.574 186.613C569.015 190.243 568.114 195.313 567.155 200.487C566.391 204.624 565.59 208.824 564.899 212.402C563.819 217.956 563.013 222.008 563.013 222.008H553C553 222.008 554.881 180.005 556.989 176.975C559.097 173.94 556.989 176.316 555.408 174.208C553.827 172.1 556.462 173.154 559.118 170.446C561.774 167.743 559.624 168.939 557.516 166.831C556.736 166.051 558.481 161.082 560.989 155.132C562.159 152.371 563.492 149.394 564.81 146.527C567.534 140.61 570.206 135.166 571.265 133.016C571.265 133.011 571.271 133.006 571.271 133L571.745 132.052L583.866 131.525Z" fill="#E6E6E6"/>
<path d="M605.699 133.48C594.696 137.753 584.804 138.49 576.715 133.48V123.995C586.241 129.71 595.906 129.554 605.699 123.995V133.48Z" fill="#3F3D56"/>
<path d="M614.134 194.08C597.129 198.353 581.841 199.09 569.34 194.08V184.594C584.062 190.31 598.999 190.154 614.134 184.594V194.08Z" fill="#3F3D56"/>
<path d="M617.068 271.789C616.978 272.422 616.847 274.572 616.694 277.702C610.345 278.731 603.893 278.968 597.485 278.408L595.535 269.007C602.1 270.206 608.82 270.291 615.413 269.26C616.899 269.935 617.49 268.838 617.068 271.789Z" fill="#3F3D56"/>
<path d="M583.111 281.596C577.708 282.798 572.216 283.563 566.69 283.883L563.934 279.799L563.344 275.22C569.555 275.38 575.756 274.613 581.741 272.943C581.235 275.23 580.877 276.78 580.877 276.78L583.111 281.596Z" fill="#3F3D56"/>
<path d="M583.49 169.577H579.229L586.445 155.032H591.843L594.229 169.577H589.968L588.547 159.037H588.434L583.49 169.577ZM583.661 163.839H591.672L591.161 166.793H583.15L583.661 163.839Z" fill="#6EACF6"/>
<path d="M589.155 143.074C588.779 143.042 588.404 143.032 588.018 143.032C583.48 143.038 579.117 144.782 575.825 147.906C572.532 151.03 570.562 155.296 570.318 159.829C570.307 160.131 570.297 160.444 570.297 160.757C570.297 161.184 570.307 161.601 570.349 162.018C570.611 165.73 572.035 169.264 574.419 172.12C576.803 174.977 580.026 177.009 583.631 177.93C587.235 178.851 591.038 178.613 594.499 177.251C597.961 175.888 600.905 173.469 602.915 170.338C603.319 169.72 603.681 169.076 603.999 168.409C605.253 165.795 605.845 162.913 605.725 160.016C605.605 157.12 604.775 154.297 603.31 151.795C601.844 149.294 599.787 147.191 597.319 145.67C594.851 144.149 592.048 143.258 589.155 143.074ZM601.393 170.036C599.758 172.002 597.715 173.59 595.406 174.688C593.096 175.786 590.576 176.369 588.018 176.396C584.211 176.39 580.536 174.997 577.681 172.478C574.826 169.958 572.986 166.484 572.507 162.706C572.423 162.06 572.381 161.409 572.382 160.757C572.38 160.666 572.384 160.576 572.392 160.486C572.464 156.387 574.141 152.48 577.064 149.606C579.986 146.732 583.92 145.12 588.018 145.117C588.112 145.367 588.206 145.607 588.31 145.837C592.762 156.367 602.415 155.575 603.655 160.757C604.255 163.262 603.891 165.901 602.634 168.149C602.28 168.815 601.865 169.447 601.393 170.036Z" fill="#6EACF6"/>
<g filter="url(#filter0_d_1022_193)">
<path d="M407.232 236.456L407.046 244.182C404.91 242.716 401.823 243.669 400.57 246.181C399.318 248.692 400.126 252.309 402.266 253.767C400.89 255.526 398.571 255.488 396.539 255.497C394.506 255.506 392.096 255.978 391.223 258.134C390.522 259.865 391.208 262.013 392.403 263.313C393.597 264.613 395.192 265.258 396.737 265.869C393.34 267.165 391 271.522 391.472 275.67C391.944 279.818 395.175 283.285 398.741 283.468C395.391 285.087 393.569 290.101 394.898 294.046C396.238 298.022 399.93 300.1 403.404 301.398C412.245 304.718 421.868 305.356 431.07 303.233C434.585 302.417 438.101 301.165 441.034 298.746C443.967 296.328 446.267 292.593 446.592 288.41C444.852 293.017 447.626 298.628 451.525 300.72C455.424 302.813 459.978 302.22 464.158 301.063C469.718 299.524 475.636 296.477 477.897 290.322C479.017 287.275 479.075 283.861 479.117 280.547L479.197 274.122C479.23 271.528 479.257 268.887 478.632 266.401C478.007 263.914 476.619 261.56 474.566 260.6C476.05 258.685 477.574 256.691 478.261 254.233C478.948 251.775 478.563 248.71 476.774 247.208C474.496 245.296 471.154 246.648 468.648 245.18C466.236 243.768 465.357 240.256 463.39 238.096C462.591 237.183 461.543 236.523 460.375 236.197C459.206 235.871 457.968 235.893 456.812 236.259C454.546 237.035 452.687 239.282 452.095 241.963C451.576 244.31 451.984 246.793 451.801 249.207C451.617 251.622 450.492 254.305 448.453 254.703C445.992 255.182 444.088 252.034 443.717 249.143C443.346 246.252 443.802 243.182 442.887 240.465C441.807 237.257 438.726 235.162 435.812 235.653C432.898 236.144 430.433 239.174 430.152 242.611C429.922 245.421 430.842 248.812 429.06 250.715C427.177 252.726 424.007 250.852 422.805 248.227C421.602 245.602 421.474 242.448 420.314 239.798C419.136 237.106 416.88 235.1 414.351 234.495C413.056 234.211 411.712 234.258 410.44 234.632C409.169 235.005 408.012 235.693 407.077 236.631" fill="#E9E8EF"/>
</g>
<path d="M461.781 240.41L454.58 240.348C453.485 240.365 452.414 240.022 451.532 239.374C450.772 238.764 450.442 237.966 450.628 237.182L452.301 230.119C452.617 228.786 454.298 227.831 456.299 227.848L460.276 227.882C462.277 227.899 463.942 228.883 464.235 230.221L465.787 237.312C465.959 238.099 465.615 238.891 464.845 239.488C463.952 240.121 462.876 240.445 461.781 240.41Z" fill="#3F3D56"/>
<path d="M460.033 131.14C455.655 131.106 452.043 138.555 452.017 141.512L451.971 146.865L467.825 147.001L467.871 141.648C467.895 138.691 464.412 131.181 460.033 131.14Z" fill="#3F3D56"/>
<path d="M395.224 177.519C394.995 177.411 394.797 177.248 394.644 177.047C394.491 176.845 394.39 176.609 394.348 176.36C394.306 176.11 394.325 175.854 394.403 175.613C394.481 175.373 394.616 175.154 394.796 174.977C394.943 174.832 395.117 174.717 395.309 174.64C395.5 174.562 395.705 174.524 395.912 174.526L477.786 175.228C477.992 175.23 478.196 175.272 478.387 175.353C478.577 175.434 478.749 175.551 478.894 175.698C479.038 175.845 479.153 176.019 479.23 176.211C479.307 176.402 479.346 176.607 479.345 176.813C479.341 177.23 479.171 177.628 478.874 177.92C478.577 178.213 478.176 178.375 477.759 178.372L395.885 177.67C395.656 177.668 395.431 177.617 395.224 177.519Z" fill="#3F3D56"/>
<path d="M471.556 152.201L448.152 152L447.475 231.017L470.878 231.217L471.556 152.201Z" fill="#E6E6E6"/>
<path d="M438.299 36.5274C433.92 36.4933 430.309 43.9423 430.282 46.8991L430.236 52.2522L446.09 52.3882L446.136 47.035C446.16 44.0782 442.677 36.5684 438.299 36.5274Z" fill="#3F3D56"/>
<path d="M440.398 239.373L433.197 239.311C432.102 239.328 431.032 238.986 430.15 238.337C429.389 237.727 429.059 236.929 429.245 236.145L430.918 229.082C431.234 227.749 432.915 226.794 434.916 226.811L438.893 226.845C440.894 226.862 442.559 227.846 442.852 229.184L444.404 236.275C444.576 237.062 444.232 237.855 443.462 238.451C442.569 239.084 441.493 239.408 440.398 239.373Z" fill="#3F3D56"/>
<path d="M417.984 239.755L410.783 239.693C409.688 239.709 408.618 239.367 407.736 238.718C406.975 238.109 406.645 237.31 406.831 236.527L408.504 229.463C408.82 228.131 410.501 227.176 412.502 227.193L416.479 227.227C418.48 227.244 420.145 228.228 420.438 229.566L421.99 236.657C422.162 237.443 421.818 238.236 421.048 238.832C420.155 239.466 419.079 239.79 417.984 239.755Z" fill="#3F3D56"/>
<path d="M449.704 71.0295L426.301 70.8289L424.931 230.551L448.335 230.752L449.704 71.0295Z" fill="#E6E6E6"/>
<path d="M437.553 147.928L437.651 142.172L439.16 142.19L439.063 147.927L437.406 231.539L435.896 231.526" fill="#3F3D56"/>
<path d="M463.686 155.521L463.783 149.765L465.293 149.782L465.196 155.52L463.539 239.131L462.029 239.118" fill="#3F3D56"/>
<path d="M453.78 85.7991L422.069 85.5272C421.638 82.1685 422.916 66.6147 425.894 63.2345L426.826 59.1048L448.722 59.2925L449.719 63.3864C452.764 66.173 453.818 81.8535 453.78 85.7991Z" fill="#E6E6E6"/>
<path d="M449.396 59.8084L426.801 59.6147C425.967 59.6075 425.295 59.1452 425.3 58.582C425.301 58.5009 425.315 58.4205 425.344 58.3444L429.241 47.6698C429.407 47.2127 430.017 46.8947 430.716 46.9007L445.7 47.0292C446.398 47.0352 447.003 47.3636 447.162 47.8235L450.875 58.5633C451.065 59.1126 450.561 59.6588 449.749 59.7833C449.632 59.8011 449.514 59.8095 449.396 59.8084Z" fill="#E6E6E6"/>
<path d="M425.875 146.771C425.674 146.676 425.485 146.558 425.313 146.418C425.066 146.231 424.864 145.989 424.725 145.712C424.585 145.435 424.51 145.13 424.507 144.819L424.762 115.087C424.772 113.856 426.014 112.866 427.529 112.878L447.756 113.052C449.272 113.065 450.496 114.077 450.485 115.308L450.23 145.04C450.221 145.35 450.142 145.654 449.997 145.929C449.853 146.204 449.647 146.442 449.397 146.625C448.841 147.045 448.159 147.265 447.463 147.249L427.236 147.075C426.765 147.074 426.301 146.97 425.875 146.771Z" fill="#3F3D56"/>
<path d="M426.388 151.534L402.984 151.333L402.307 230.349L425.71 230.55L426.388 151.534Z" fill="#E6E6E6"/>
<path d="M442.051 57.6282L435.187 57.5694C433.863 57.558 432.798 56.0227 432.814 54.1474C432.83 52.272 433.921 50.7552 435.246 50.7666L442.109 50.8254C443.433 50.8368 444.498 52.3721 444.482 54.2474C444.466 56.1227 443.375 57.6396 442.051 57.6282Z" fill="#3F3D56"/>
<path d="M415.322 130.478C410.944 130.443 407.332 137.892 407.306 140.849L407.26 146.202L423.114 146.338L423.16 140.985C423.184 138.028 419.701 130.519 415.322 130.478Z" fill="#3F3D56"/>
<path d="M407.629 101.294C405.961 101.536 405.619 98.9125 407.293 98.7194C408.96 98.4773 409.302 101.101 407.629 101.294Z" fill="#E6E6E6"/>
<path d="M470.91 26.4646C469.243 26.7067 468.901 24.0829 470.574 23.8898C472.241 23.6477 472.583 26.2715 470.91 26.4646Z" fill="#E6E6E6"/>
<path d="M470.963 184.597C470.145 184.589 469.364 184.257 468.79 183.673C468.217 183.09 467.898 182.303 467.904 181.485L467.979 172.773C467.987 171.955 468.319 171.174 468.903 170.601C469.486 170.029 470.273 169.711 471.091 169.718C471.909 169.725 472.69 170.056 473.264 170.639C473.837 171.222 474.156 172.008 474.15 172.826L474.075 181.538C474.067 182.356 473.735 183.137 473.152 183.711C472.568 184.284 471.781 184.603 470.963 184.597Z" fill="#3F3D56"/>
<path d="M402.104 184.034C401.286 184.026 400.505 183.694 399.931 183.11C399.358 182.527 399.039 181.74 399.045 180.922L399.12 172.21C399.128 171.393 399.46 170.612 400.043 170.039C400.627 169.466 401.414 169.148 402.232 169.155C403.049 169.162 403.831 169.493 404.404 170.076C404.978 170.659 405.297 171.445 405.291 172.263L405.216 180.975C405.208 181.793 404.876 182.574 404.292 183.148C403.709 183.721 402.922 184.04 402.104 184.034Z" fill="#3F3D56"/>
<path d="M473.264 166.577L446.125 166.345C445.755 163.47 446.849 150.158 449.398 147.265L451.648 143.743L468.017 143.537L469.789 147.395C474.599 147.963 475.812 161.127 473.264 166.577Z" fill="#E6E6E6"/>
<path d="M463.282 160.958L456.418 160.899C455.094 160.887 454.033 158.861 454.055 156.381C454.076 153.902 455.171 151.893 456.495 151.904L463.359 151.963C464.683 151.975 465.743 154.002 465.722 156.481C465.701 158.961 464.606 160.969 463.282 160.958Z" fill="#3F3D56"/>
<path d="M409.217 151.747L409.315 145.991L410.824 146.008L410.727 151.746L409.07 235.357L407.56 235.345" fill="#3F3D56"/>
<path d="M428.554 165.914L401.414 165.682C398.939 162.43 399.191 148.967 404.688 146.602L406.937 143.08L423.306 142.874L425.079 146.732C427.684 149.117 428.587 162.537 428.554 165.914Z" fill="#E6E6E6"/>
<path d="M418.584 159.093L411.721 159.034C410.396 159.023 409.333 157.266 409.352 155.118C409.37 152.97 410.463 151.231 411.787 151.242L418.651 151.301C419.975 151.312 421.038 153.07 421.019 155.218C421.001 157.366 419.908 159.104 418.584 159.093Z" fill="#3F3D56"/>
<path d="M471.199 194.085L484.478 205.197L485.098 227.848L469.107 221.005L471.199 194.085Z" fill="#E6E6E6"/>
<path d="M448.742 151.188L453.114 163.484L452.539 219.296L447.044 220.811L448.742 151.188Z" fill="#CCCCCC"/>
<path d="M427.035 150.138L422.097 162.218L420.083 217.997L425.502 219.766L427.035 150.138Z" fill="#CCCCCC"/>
<path d="M403.9 197.426L389.406 206.898L386.122 229.318L402.808 224.406L403.9 197.426Z" fill="#E6E6E6"/>
<path opacity="0.8" d="M715.065 105.726L731.191 79.8284L747.318 53.9311L756.421 39.3117C756.925 38.5028 755.709 37.6604 755.206 38.4693L739.079 64.3665L722.953 90.2638L713.85 104.883C713.346 105.692 714.562 106.534 715.065 105.726Z" fill="url(#paint1_linear_1022_193)"/>
<path opacity="0.8" d="M627.065 90.7256L643.191 64.8284L659.318 38.9311L668.421 24.3117C668.925 23.5028 667.709 22.6604 667.206 23.4693L651.079 49.3665L634.953 75.2638L625.85 89.8832C625.346 90.6921 626.562 91.5345 627.065 90.7256Z" fill="url(#paint2_linear_1022_193)"/>
<path opacity="0.8" d="M479.065 154.726L495.191 128.828L511.318 102.931L520.421 88.3117C520.925 87.5028 519.709 86.6604 519.206 87.4693L503.079 113.367L486.953 139.264L477.85 153.883C477.346 154.692 478.562 155.534 479.065 154.726Z" fill="url(#paint3_linear_1022_193)"/>
<path opacity="0.8" d="M311.065 133.726L327.191 107.828L343.318 81.9311L352.421 67.3117C352.925 66.5028 351.709 65.6604 351.206 66.4693L335.079 92.3665L318.953 118.264L309.85 132.883C309.346 133.692 310.562 134.534 311.065 133.726Z" fill="url(#paint4_linear_1022_193)"/>
<path opacity="0.8" d="M202.065 139.726L218.191 113.828L234.318 87.9311L243.421 73.3117C243.925 72.5028 242.709 71.6604 242.206 72.4693L226.079 98.3665L209.953 124.264L200.85 138.883C200.346 139.692 201.562 140.534 202.065 139.726Z" fill="url(#paint5_linear_1022_193)"/>
<path opacity="0.8" d="M89.0653 71.7256L105.191 45.8284L121.318 19.9311L130.421 5.31166C130.925 4.50277 129.709 3.6604 129.206 4.46926L113.079 30.3665L96.9533 56.2638L87.8498 70.8832C87.3461 71.6921 88.5616 72.5345 89.0653 71.7256Z" fill="url(#paint6_linear_1022_193)"/>
<circle cx="231.5" cy="40.5" r="2.5" fill="#D9D9D9"/>
<circle cx="274.5" cy="117.5" r="2.5" fill="#FF6C63"/>
<circle cx="200" cy="64" r="5" fill="#3F3D56"/>
<circle cx="139.5" cy="97.5" r="2.5" fill="#3F3D56"/>
<circle cx="341.5" cy="38.5" r="1.5" fill="#D9D9D9"/>
<circle cx="143.5" cy="75.5" r="1.5" fill="#D9D9D9"/>
<circle cx="160.5" cy="23.5" r="1.5" fill="#D9D9D9"/>
<circle cx="314.5" cy="168.5" r="1.5" fill="#D9D9D9"/>
<circle cx="575.5" cy="65.5" r="1.5" fill="#3F3D56"/>
<circle cx="769.5" cy="34.5" r="1.5" fill="#F28B8B"/>
<circle cx="657.5" cy="117.5" r="1.5" fill="#D9D9D9"/>
<circle cx="687.5" cy="68.5" r="1.5" fill="#D9D9D9"/>
<circle cx="709.5" cy="36.5" r="1.5" fill="#D9D9D9"/>
<circle cx="706.5" cy="74.5" r="1.5" fill="#D9D9D9"/>
<circle cx="787.5" cy="53.5" r="1.5" fill="#D9D9D9"/>
<circle cx="820.5" cy="28.5" r="1.5" fill="#D9D9D9"/>
<circle cx="817.5" cy="57.5" r="1.5" fill="#D9D9D9"/>
<circle cx="817.5" cy="57.5" r="1.5" fill="#D9D9D9"/>
<circle cx="296.5" cy="78.5" r="1.5" fill="#D9D9D9"/>
<circle cx="44.5" cy="23.5" r="1.5" fill="#D9D9D9"/>
<circle cx="75.5" cy="45.5" r="1.5" fill="#D9D9D9"/>
<circle cx="150.5" cy="138.5" r="1.5" fill="#D9D9D9"/>
<circle cx="17.5" cy="73.5" r="1.5" fill="#D9D9D9"/>
<circle cx="290.5" cy="55.5" r="1.5" fill="#D9D9D9"/>
<circle cx="287.5" cy="14.5" r="1.5" fill="#D9D9D9"/>
<circle cx="362.5" cy="136.5" r="1.5" fill="#D9D9D9"/>
<circle cx="381.5" cy="46.5" r="1.5" fill="#D9D9D9"/>
<circle cx="516.5" cy="44.5" r="1.5" fill="#D9D9D9"/>
<circle cx="531.5" cy="70.5" r="1.5" fill="#D9D9D9"/>
<circle cx="479.5" cy="78.5" r="1.5" fill="#D9D9D9"/>
<circle cx="515.5" cy="162.5" r="1.5" fill="#D9D9D9"/>
<circle cx="522.5" cy="130.5" r="1.5" fill="#D9D9D9"/>
<circle cx="545.5" cy="109.5" r="1.5" fill="#D9D9D9"/>
<circle cx="190.5" cy="95.5" r="1.5" fill="#D9D9D9"/>
<path d="M553 -2.63864e-06C553 6.89563 555.739 13.5088 560.615 18.3848C565.491 23.2607 572.104 26 579 26C585.896 26 592.509 23.2607 597.385 18.3848C602.261 13.5088 605 6.89563 605 5.83324e-06L579 -3.65644e-07L553 -2.63864e-06Z" fill="#F28B8B"/>
<circle cx="543.5" cy="27.5" r="1.5" fill="#D9D9D9"/>
<path d="M13.0511 261L17.8807 231.909H29.017C31.1193 231.909 32.8144 232.241 34.1023 232.903C35.3902 233.557 36.285 234.452 36.7869 235.588C37.2983 236.724 37.4309 238.012 37.1847 239.452C36.9858 240.626 36.5881 241.634 35.9915 242.477C35.4044 243.311 34.6847 243.992 33.8324 244.523C32.9801 245.044 32.0663 245.418 31.0909 245.645L31.0341 245.929C32.0568 245.976 32.9943 246.289 33.8466 246.866C34.6989 247.444 35.3428 248.259 35.7784 249.31C36.214 250.351 36.3134 251.606 36.0767 253.074C35.821 254.58 35.2292 255.934 34.3011 257.136C33.3731 258.33 32.1136 259.272 30.5227 259.963C28.9413 260.654 27.0426 261 24.8267 261H13.0511ZM19.0597 256.597H24.7273C26.6307 256.597 28.0701 256.232 29.0455 255.503C30.0208 254.764 30.6032 253.817 30.7926 252.662C30.9347 251.8 30.8494 251.024 30.5369 250.332C30.2244 249.632 29.7083 249.082 28.9886 248.685C28.2689 248.277 27.3693 248.074 26.2898 248.074H20.4659L19.0597 256.597ZM21.1193 244.281H26.3324C27.2415 244.281 28.0843 244.116 28.8608 243.784C29.6468 243.443 30.3002 242.965 30.821 242.349C31.3513 241.724 31.678 240.986 31.8011 240.134C32 239.007 31.7633 238.079 31.0909 237.349C30.4186 236.62 29.3106 236.256 27.767 236.256H22.4261L21.1193 244.281ZM48.6868 261.426C46.5372 261.426 44.7474 260.953 43.3175 260.006C41.897 259.059 40.898 257.728 40.3203 256.014C39.7427 254.3 39.6385 252.312 40.0078 250.048C40.3771 247.813 41.1158 245.858 42.2237 244.182C43.3411 242.506 44.7474 241.208 46.4425 240.29C48.147 239.362 50.0552 238.898 52.1669 238.898C54.3165 238.898 56.1016 239.376 57.522 240.332C58.9425 241.279 59.9415 242.61 60.5192 244.324C61.1063 246.038 61.2152 248.036 60.8459 250.318C60.486 252.544 59.7427 254.49 58.6158 256.156C57.4983 257.823 56.0921 259.12 54.397 260.048C52.7019 260.967 50.7985 261.426 48.6868 261.426ZM49.1129 257.307C50.3061 257.307 51.3525 256.985 52.2521 256.341C53.1612 255.687 53.9046 254.812 54.4822 253.713C55.0694 252.605 55.4766 251.374 55.7038 250.02C55.9122 248.713 55.9169 247.529 55.718 246.469C55.5192 245.399 55.093 244.551 54.4396 243.926C53.7957 243.292 52.9008 242.974 51.755 242.974C50.5618 242.974 49.5059 243.306 48.5874 243.969C47.6783 244.622 46.9349 245.503 46.3572 246.611C45.7796 247.709 45.3819 248.936 45.1641 250.29C44.9463 251.597 44.9368 252.78 45.1357 253.841C45.3345 254.902 45.7607 255.744 46.4141 256.369C47.0675 256.994 47.9671 257.307 49.1129 257.307ZM73.0227 261.426C70.8731 261.426 69.0833 260.953 67.6534 260.006C66.233 259.059 65.2339 257.728 64.6562 256.014C64.0786 254.3 63.9744 252.312 64.3438 250.048C64.7131 247.813 65.4517 245.858 66.5597 244.182C67.6771 242.506 69.0833 241.208 70.7784 240.29C72.483 239.362 74.3911 238.898 76.5028 238.898C78.6525 238.898 80.4375 239.376 81.858 240.332C83.2784 241.279 84.2775 242.61 84.8551 244.324C85.4422 246.038 85.5511 248.036 85.1818 250.318C84.822 252.544 84.0786 254.49 82.9517 256.156C81.8343 257.823 80.428 259.12 78.733 260.048C77.0379 260.967 75.1345 261.426 73.0227 261.426ZM73.4489 257.307C74.642 257.307 75.6884 256.985 76.5881 256.341C77.4972 255.687 78.2405 254.812 78.8182 253.713C79.4053 252.605 79.8125 251.374 80.0398 250.02C80.2481 248.713 80.2528 247.529 80.054 246.469C79.8551 245.399 79.429 244.551 78.7756 243.926C78.1316 243.292 77.2367 242.974 76.0909 242.974C74.8977 242.974 73.8419 243.306 72.9233 243.969C72.0142 244.622 71.2708 245.503 70.6932 246.611C70.1155 247.709 69.7178 248.936 69.5 250.29C69.2822 251.597 69.2727 252.78 69.4716 253.841C69.6705 254.902 70.0966 255.744 70.75 256.369C71.4034 256.994 72.303 257.307 73.4489 257.307ZM107.685 244.949L102.955 245.46C102.908 244.977 102.761 244.527 102.515 244.111C102.269 243.694 101.899 243.363 101.407 243.116C100.924 242.861 100.299 242.733 99.532 242.733C98.4145 242.733 97.4344 242.984 96.5916 243.486C95.7488 243.988 95.2706 244.632 95.157 245.418C95.0528 246.005 95.1948 246.483 95.5831 246.852C95.9714 247.222 96.6911 247.534 97.7422 247.79L101.35 248.585C103.339 249.03 104.769 249.75 105.64 250.744C106.521 251.739 106.828 253.041 106.563 254.651C106.336 255.995 105.749 257.179 104.802 258.202C103.855 259.215 102.643 260.006 101.165 260.574C99.6977 261.142 98.0689 261.426 96.2791 261.426C93.5613 261.426 91.4685 260.863 90.0007 259.736C88.5424 258.599 87.8179 257.037 87.8274 255.048L92.8842 254.565C92.9411 255.55 93.2867 256.294 93.9212 256.795C94.5556 257.288 95.4363 257.539 96.5632 257.548C97.8322 257.558 98.9022 257.293 99.7734 256.753C100.654 256.204 101.151 255.536 101.265 254.75C101.36 254.163 101.213 253.685 100.825 253.315C100.446 252.946 99.7687 252.652 98.7933 252.435L95.2138 251.653C93.1873 251.208 91.7431 250.455 90.8814 249.395C90.0291 248.325 89.7403 246.975 90.0149 245.347C90.2422 244.021 90.7962 242.88 91.6768 241.923C92.567 240.957 93.7081 240.214 95.1001 239.693C96.4922 239.163 98.05 238.898 99.7734 238.898C102.368 238.898 104.324 239.442 105.64 240.531C106.956 241.62 107.638 243.093 107.685 244.949ZM124.269 239.182L123.602 243.159H111.073L111.727 239.182H124.269ZM115.675 233.955H120.817L117.408 254.438C117.304 255.129 117.323 255.659 117.465 256.028C117.617 256.388 117.858 256.634 118.19 256.767C118.531 256.9 118.914 256.966 119.34 256.966C119.653 256.966 119.946 256.942 120.221 256.895C120.496 256.838 120.713 256.795 120.874 256.767L121.102 260.787C120.789 260.882 120.368 260.986 119.837 261.099C119.317 261.213 118.692 261.279 117.962 261.298C116.656 261.327 115.519 261.128 114.553 260.702C113.597 260.266 112.896 259.598 112.451 258.699C112.015 257.79 111.916 256.653 112.153 255.29L115.675 233.955ZM137.923 231.909H143.875L148.861 244.778H149.173L158.392 231.909H164.344L150.736 250.148L148.932 261H143.676L145.48 250.148L137.923 231.909ZM168.531 261.426C166.381 261.426 164.591 260.953 163.161 260.006C161.741 259.059 160.742 257.728 160.164 256.014C159.586 254.3 159.482 252.312 159.852 250.048C160.221 247.813 160.96 245.858 162.067 244.182C163.185 242.506 164.591 241.208 166.286 240.29C167.991 239.362 169.899 238.898 172.011 238.898C174.16 238.898 175.945 239.376 177.366 240.332C178.786 241.279 179.785 242.61 180.363 244.324C180.95 246.038 181.059 248.036 180.69 250.318C180.33 252.544 179.586 254.49 178.46 256.156C177.342 257.823 175.936 259.12 174.241 260.048C172.546 260.967 170.642 261.426 168.531 261.426ZM168.957 257.307C170.15 257.307 171.196 256.985 172.096 256.341C173.005 255.687 173.748 254.812 174.326 253.713C174.913 252.605 175.32 251.374 175.548 250.02C175.756 248.713 175.761 247.529 175.562 246.469C175.363 245.399 174.937 244.551 174.283 243.926C173.639 243.292 172.745 242.974 171.599 242.974C170.406 242.974 169.35 243.306 168.431 243.969C167.522 244.622 166.779 245.503 166.201 246.611C165.623 247.709 165.226 248.936 165.008 250.29C164.79 251.597 164.781 252.78 164.979 253.841C165.178 254.902 165.604 255.744 166.258 256.369C166.911 256.994 167.811 257.307 168.957 257.307ZM198.719 251.824L200.835 239.182H205.977L202.341 261H197.355L198.009 257.122H197.781C197.099 258.344 196.124 259.343 194.855 260.119C193.596 260.896 192.147 261.284 190.509 261.284C189.079 261.284 187.871 260.967 186.886 260.332C185.902 259.688 185.201 258.756 184.784 257.534C184.377 256.303 184.315 254.816 184.599 253.074L186.929 239.182H192.071L189.884 252.278C189.666 253.661 189.865 254.759 190.48 255.574C191.105 256.388 192.033 256.795 193.264 256.795C194.022 256.795 194.784 256.611 195.551 256.241C196.328 255.872 197.005 255.323 197.582 254.594C198.16 253.855 198.539 252.932 198.719 251.824ZM207.629 261L211.265 239.182H216.251L215.64 242.818H215.867C216.464 241.559 217.307 240.588 218.396 239.906C219.494 239.215 220.668 238.869 221.918 238.869C222.212 238.869 222.529 238.884 222.87 238.912C223.211 238.931 223.504 238.964 223.751 239.011L222.955 243.741C222.737 243.666 222.397 243.599 221.933 243.543C221.478 243.476 221.028 243.443 220.583 243.443C219.646 243.443 218.774 243.647 217.969 244.054C217.174 244.452 216.502 245.006 215.952 245.716C215.403 246.426 215.048 247.245 214.887 248.173L212.771 261H207.629ZM252.952 240.048C252.99 238.732 252.587 237.723 251.744 237.023C250.911 236.322 249.713 235.972 248.151 235.972C247.052 235.972 246.081 236.137 245.239 236.469C244.405 236.791 243.733 237.241 243.222 237.818C242.71 238.386 242.393 239.035 242.27 239.764C242.166 240.361 242.218 240.882 242.426 241.327C242.634 241.772 242.952 242.151 243.378 242.463C243.813 242.776 244.306 243.036 244.855 243.244C245.414 243.453 245.982 243.628 246.56 243.77L249.173 244.452C250.215 244.707 251.209 245.053 252.156 245.489C253.103 245.915 253.922 246.464 254.614 247.136C255.314 247.799 255.826 248.599 256.148 249.537C256.47 250.474 256.522 251.573 256.304 252.832C256.02 254.537 255.333 256.038 254.244 257.335C253.165 258.623 251.744 259.632 249.983 260.361C248.231 261.08 246.19 261.44 243.861 261.44C241.607 261.44 239.704 261.09 238.151 260.389C236.598 259.679 235.461 258.652 234.741 257.307C234.031 255.962 233.804 254.329 234.06 252.406H239.244C239.14 253.42 239.306 254.262 239.741 254.935C240.187 255.607 240.826 256.109 241.659 256.44C242.492 256.772 243.458 256.938 244.557 256.938C245.703 256.938 246.74 256.767 247.668 256.426C248.596 256.076 249.353 255.593 249.94 254.977C250.537 254.352 250.902 253.623 251.034 252.79C251.167 252.042 251.058 251.417 250.707 250.915C250.357 250.413 249.813 249.996 249.074 249.665C248.345 249.324 247.473 249.021 246.46 248.756L243.307 247.903C241.025 247.278 239.292 246.341 238.108 245.091C236.934 243.841 236.517 242.174 236.858 240.091C237.142 238.367 237.857 236.866 239.003 235.588C240.149 234.3 241.583 233.301 243.307 232.591C245.03 231.871 246.915 231.511 248.96 231.511C251.025 231.511 252.772 231.871 254.202 232.591C255.641 233.311 256.692 234.314 257.355 235.602C258.027 236.881 258.25 238.363 258.023 240.048H252.952ZM268.999 261.426C266.85 261.426 265.06 260.953 263.63 260.006C262.21 259.059 261.21 257.728 260.633 256.014C260.055 254.3 259.951 252.312 260.32 250.048C260.69 247.813 261.428 245.858 262.536 244.182C263.654 242.506 265.06 241.208 266.755 240.29C268.46 239.362 270.368 238.898 272.479 238.898C274.629 238.898 276.414 239.376 277.835 240.332C279.255 241.279 280.254 242.61 280.832 244.324C281.419 246.038 281.528 248.036 281.158 250.318C280.799 252.544 280.055 254.49 278.928 256.156C277.811 257.823 276.405 259.12 274.71 260.048C273.014 260.967 271.111 261.426 268.999 261.426ZM269.425 257.307C270.619 257.307 271.665 256.985 272.565 256.341C273.474 255.687 274.217 254.812 274.795 253.713C275.382 252.605 275.789 251.374 276.016 250.02C276.225 248.713 276.229 247.529 276.031 246.469C275.832 245.399 275.406 244.551 274.752 243.926C274.108 243.292 273.213 242.974 272.067 242.974C270.874 242.974 269.818 243.306 268.9 243.969C267.991 244.622 267.247 245.503 266.67 246.611C266.092 247.709 265.694 248.936 265.477 250.29C265.259 251.597 265.249 252.78 265.448 253.841C265.647 254.902 266.073 255.744 266.727 256.369C267.38 256.994 268.28 257.307 269.425 257.307ZM293.222 261.426C291.044 261.426 289.254 260.948 287.852 259.991C286.451 259.035 285.471 257.714 284.912 256.028C284.363 254.333 284.273 252.383 284.642 250.176C285.002 247.96 285.745 246.005 286.872 244.31C288.009 242.605 289.438 241.279 291.162 240.332C292.885 239.376 294.813 238.898 296.943 238.898C298.714 238.898 300.224 239.224 301.474 239.878C302.734 240.522 303.671 241.436 304.287 242.619C304.912 243.794 305.153 245.167 305.011 246.739H300.082C300.063 245.687 299.737 244.812 299.102 244.111C298.468 243.401 297.54 243.045 296.318 243.045C295.258 243.045 294.282 243.33 293.392 243.898C292.502 244.456 291.749 245.261 291.134 246.312C290.518 247.364 290.092 248.623 289.855 250.091C289.609 251.578 289.614 252.856 289.869 253.926C290.134 254.987 290.613 255.806 291.304 256.384C292.005 256.952 292.89 257.236 293.96 257.236C294.718 257.236 295.423 257.094 296.077 256.81C296.73 256.516 297.303 256.095 297.795 255.545C298.297 254.996 298.69 254.329 298.974 253.543H303.889C303.501 255.086 302.81 256.455 301.815 257.648C300.83 258.831 299.609 259.759 298.151 260.432C296.692 261.095 295.049 261.426 293.222 261.426ZM306.847 261L310.484 239.182H315.626L311.989 261H306.847ZM313.808 236.057C312.984 236.057 312.302 235.782 311.762 235.233C311.222 234.684 310.986 234.026 311.052 233.259C311.118 232.491 311.464 231.833 312.089 231.284C312.723 230.735 313.448 230.46 314.262 230.46C315.086 230.46 315.763 230.735 316.293 231.284C316.833 231.833 317.07 232.491 317.004 233.259C316.947 234.026 316.601 234.684 315.967 235.233C315.342 235.782 314.622 236.057 313.808 236.057ZM323.499 261.44C322.116 261.44 320.913 261.194 319.891 260.702C318.868 260.2 318.115 259.461 317.632 258.486C317.159 257.51 317.04 256.308 317.277 254.878C317.485 253.647 317.883 252.629 318.47 251.824C319.067 251.019 319.796 250.375 320.658 249.892C321.529 249.4 322.476 249.03 323.499 248.784C324.531 248.538 325.582 248.358 326.652 248.244C327.959 248.112 329.015 247.989 329.82 247.875C330.634 247.761 331.245 247.591 331.652 247.364C332.059 247.127 332.305 246.767 332.391 246.284V246.199C332.561 245.129 332.391 244.3 331.879 243.713C331.368 243.126 330.516 242.832 329.322 242.832C328.072 242.832 327.021 243.107 326.169 243.656C325.317 244.205 324.696 244.854 324.308 245.602L319.649 244.92C320.236 243.595 321.041 242.487 322.064 241.597C323.087 240.697 324.266 240.025 325.601 239.58C326.946 239.125 328.38 238.898 329.905 238.898C330.946 238.898 331.964 239.021 332.959 239.267C333.963 239.513 334.848 239.92 335.615 240.489C336.392 241.047 336.96 241.81 337.32 242.776C337.689 243.741 337.75 244.949 337.504 246.398L335.075 261H330.132L330.643 258.003H330.473C330.066 258.609 329.536 259.177 328.882 259.707C328.229 260.228 327.452 260.65 326.553 260.972C325.653 261.284 324.635 261.44 323.499 261.44ZM325.445 257.662C326.477 257.662 327.405 257.458 328.229 257.051C329.053 256.634 329.73 256.085 330.26 255.403C330.79 254.722 331.122 253.978 331.254 253.173L331.68 250.602C331.491 250.735 331.197 250.858 330.8 250.972C330.402 251.085 329.957 251.185 329.464 251.27C328.982 251.355 328.503 251.431 328.03 251.497C327.556 251.563 327.149 251.62 326.808 251.668C326.022 251.772 325.303 251.942 324.649 252.179C324.005 252.416 323.47 252.747 323.044 253.173C322.627 253.59 322.367 254.13 322.263 254.793C322.111 255.73 322.334 256.445 322.93 256.938C323.527 257.42 324.365 257.662 325.445 257.662ZM350.217 231.909L345.388 261H340.246L345.075 231.909H350.217ZM17.8807 279.909H24.3295L29.4858 300.989H29.8267L41.9432 279.909H48.392L43.5625 309H38.5057L41.8295 289.014H41.5739L30.2102 308.915H26.446L21.7301 288.972H21.4602L18.108 309H13.0511L17.8807 279.909ZM58.6761 309.426C56.4886 309.426 54.6799 308.972 53.25 308.062C51.8201 307.144 50.8163 305.847 50.2386 304.17C49.6705 302.485 49.5758 300.501 49.9545 298.219C50.3239 295.974 51.0767 294.005 52.2131 292.31C53.3494 290.605 54.7699 289.279 56.4744 288.332C58.1884 287.376 60.0824 286.898 62.1562 286.898C63.5009 286.898 64.7367 287.116 65.8636 287.551C66.9905 287.977 67.9422 288.64 68.7188 289.54C69.4953 290.439 70.0303 291.585 70.3239 292.977C70.6174 294.36 70.6032 296.008 70.2812 297.92L70.0398 299.497H52.142L52.696 296.031H65.6506C65.821 295.046 65.7642 294.17 65.4801 293.403C65.196 292.627 64.7225 292.016 64.0597 291.571C63.3968 291.126 62.5682 290.903 61.5739 290.903C60.5606 290.903 59.6136 291.164 58.733 291.685C57.8617 292.196 57.1278 292.859 56.5312 293.673C55.9347 294.488 55.5559 295.345 55.3949 296.244L54.8125 299.568C54.6042 300.932 54.6515 302.045 54.9545 302.906C55.2576 303.768 55.7879 304.402 56.5455 304.81C57.303 305.217 58.2595 305.42 59.4148 305.42C60.1723 305.42 60.8731 305.316 61.517 305.108C62.161 304.9 62.7339 304.587 63.2358 304.17C63.7472 303.744 64.1733 303.223 64.5142 302.608L69.2159 303.148C68.6951 304.417 67.9328 305.525 66.929 306.472C65.9252 307.409 64.7225 308.138 63.321 308.659C61.929 309.17 60.3807 309.426 58.6761 309.426ZM80.892 309.384C79.178 309.384 77.715 308.943 76.5028 308.062C75.2907 307.182 74.429 305.903 73.9176 304.227C73.4157 302.551 73.3589 300.515 73.7472 298.119C74.1544 295.695 74.8977 293.65 75.9773 291.983C77.0568 290.307 78.3447 289.043 79.8409 288.19C81.3466 287.329 82.9375 286.898 84.6136 286.898C85.9015 286.898 86.9195 287.116 87.6676 287.551C88.4252 287.977 88.9934 288.493 89.3722 289.099C89.7509 289.696 90.0303 290.259 90.2102 290.79H90.4233L92.2273 279.909H97.3835L92.554 309H87.4972L88.0795 305.562H87.767C87.4072 306.093 86.929 306.656 86.3324 307.253C85.7358 307.84 84.9924 308.342 84.1023 308.759C83.2121 309.175 82.142 309.384 80.892 309.384ZM82.9375 305.165C84.036 305.165 85.0208 304.871 85.892 304.284C86.7727 303.687 87.5066 302.859 88.0938 301.798C88.6809 300.738 89.0928 299.502 89.3295 298.091C89.5663 296.68 89.5663 295.454 89.3295 294.412C89.0928 293.37 88.6335 292.561 87.9517 291.983C87.2699 291.405 86.375 291.116 85.267 291.116C84.1307 291.116 83.1316 291.415 82.2699 292.011C81.4176 292.608 80.7169 293.432 80.1676 294.483C79.6184 295.534 79.2301 296.737 79.0028 298.091C78.7756 299.455 78.7614 300.671 78.9602 301.741C79.1686 302.802 79.5994 303.64 80.2528 304.256C80.9157 304.862 81.8106 305.165 82.9375 305.165ZM98.0582 309L101.695 287.182H106.837L103.2 309H98.0582ZM105.018 284.057C104.195 284.057 103.513 283.782 102.973 283.233C102.433 282.684 102.196 282.026 102.263 281.259C102.329 280.491 102.675 279.833 103.3 279.284C103.934 278.735 104.659 278.46 105.473 278.46C106.297 278.46 106.974 278.735 107.504 279.284C108.044 279.833 108.281 280.491 108.214 281.259C108.158 282.026 107.812 282.684 107.178 283.233C106.553 283.782 105.833 284.057 105.018 284.057ZM114.71 309.44C113.327 309.44 112.124 309.194 111.102 308.702C110.079 308.2 109.326 307.461 108.843 306.486C108.37 305.51 108.251 304.308 108.488 302.878C108.696 301.647 109.094 300.629 109.681 299.824C110.278 299.019 111.007 298.375 111.869 297.892C112.74 297.4 113.687 297.03 114.71 296.784C115.742 296.538 116.793 296.358 117.863 296.244C119.17 296.112 120.226 295.989 121.031 295.875C121.845 295.761 122.456 295.591 122.863 295.364C123.27 295.127 123.516 294.767 123.602 294.284V294.199C123.772 293.129 123.602 292.3 123.09 291.713C122.579 291.126 121.727 290.832 120.533 290.832C119.283 290.832 118.232 291.107 117.38 291.656C116.528 292.205 115.907 292.854 115.519 293.602L110.86 292.92C111.447 291.595 112.252 290.487 113.275 289.597C114.298 288.697 115.477 288.025 116.812 287.58C118.156 287.125 119.591 286.898 121.116 286.898C122.157 286.898 123.175 287.021 124.17 287.267C125.174 287.513 126.059 287.92 126.826 288.489C127.603 289.047 128.171 289.81 128.531 290.776C128.9 291.741 128.961 292.949 128.715 294.398L126.286 309H121.343L121.854 306.003H121.684C121.277 306.609 120.746 307.177 120.093 307.707C119.44 308.228 118.663 308.65 117.763 308.972C116.864 309.284 115.846 309.44 114.71 309.44ZM116.656 305.662C117.688 305.662 118.616 305.458 119.44 305.051C120.263 304.634 120.941 304.085 121.471 303.403C122.001 302.722 122.333 301.978 122.465 301.173L122.891 298.602C122.702 298.735 122.408 298.858 122.011 298.972C121.613 299.085 121.168 299.185 120.675 299.27C120.192 299.355 119.714 299.431 119.241 299.497C118.767 299.563 118.36 299.62 118.019 299.668C117.233 299.772 116.513 299.942 115.86 300.179C115.216 300.416 114.681 300.747 114.255 301.173C113.838 301.59 113.578 302.13 113.474 302.793C113.322 303.73 113.545 304.445 114.141 304.938C114.738 305.42 115.576 305.662 116.656 305.662ZM147.728 309L144.347 279.909H150.015L151.719 301.287H151.989L161.123 279.909H166.279L168.353 301.301H168.609L177.387 279.909H183.055L170.015 309H164.816L162.401 288.588H162.174L152.927 309H147.728ZM181.652 309L185.288 287.182H190.43L186.794 309H181.652ZM188.612 284.057C187.788 284.057 187.107 283.782 186.567 283.233C186.027 282.684 185.79 282.026 185.857 281.259C185.923 280.491 186.268 279.833 186.893 279.284C187.528 278.735 188.252 278.46 189.067 278.46C189.891 278.46 190.568 278.735 191.098 279.284C191.638 279.833 191.875 280.491 191.808 281.259C191.751 282.026 191.406 282.684 190.771 283.233C190.146 283.782 189.427 284.057 188.612 284.057ZM206.613 287.182L205.945 291.159H193.417L194.07 287.182H206.613ZM198.019 281.955H203.161L199.752 302.438C199.648 303.129 199.667 303.659 199.809 304.028C199.96 304.388 200.202 304.634 200.533 304.767C200.874 304.9 201.258 304.966 201.684 304.966C201.996 304.966 202.29 304.942 202.565 304.895C202.839 304.838 203.057 304.795 203.218 304.767L203.445 308.787C203.133 308.882 202.711 308.986 202.181 309.099C201.66 309.213 201.035 309.279 200.306 309.298C198.999 309.327 197.863 309.128 196.897 308.702C195.941 308.266 195.24 307.598 194.795 306.699C194.359 305.79 194.26 304.653 194.496 303.29L198.019 281.955ZM215.018 296.216L212.916 309H207.76L212.589 279.909H217.632L215.814 290.889H216.084C216.775 289.649 217.717 288.673 218.911 287.963C220.113 287.253 221.557 286.898 223.243 286.898C224.739 286.898 225.999 287.215 227.021 287.849C228.044 288.484 228.764 289.412 229.18 290.634C229.607 291.855 229.678 293.347 229.393 295.108L227.064 309H221.908L224.095 295.903C224.332 294.436 224.138 293.295 223.513 292.48C222.897 291.656 221.922 291.244 220.587 291.244C219.668 291.244 218.821 291.443 218.044 291.841C217.268 292.229 216.614 292.793 216.084 293.531C215.563 294.27 215.208 295.165 215.018 296.216Z" fill="black"/>
<path d="M16.7869 357H11.1619L26.233 327.909H32.7386L38.1648 357H32.5398L28.6335 333.875H28.4062L16.7869 357ZM18.8608 345.594H34.2017L33.4915 349.827H18.1506L18.8608 345.594ZM49.1733 357.384C47.4593 357.384 45.9962 356.943 44.7841 356.062C43.572 355.182 42.7102 353.903 42.1989 352.227C41.697 350.551 41.6402 348.515 42.0284 346.119C42.4356 343.695 43.179 341.65 44.2585 339.983C45.3381 338.307 46.6259 337.043 48.1222 336.19C49.6278 335.329 51.2188 334.898 52.8949 334.898C54.1828 334.898 55.2008 335.116 55.9489 335.551C56.7064 335.977 57.2746 336.493 57.6534 337.099C58.0322 337.696 58.3116 338.259 58.4915 338.79H58.7045L60.5085 327.909H65.6648L60.8352 357H55.7784L56.3608 353.562H56.0483C55.6884 354.093 55.2102 354.656 54.6136 355.253C54.017 355.84 53.2737 356.342 52.3835 356.759C51.4934 357.175 50.4233 357.384 49.1733 357.384ZM51.2188 353.165C52.3172 353.165 53.3021 352.871 54.1733 352.284C55.054 351.687 55.7879 350.859 56.375 349.798C56.9621 348.738 57.3741 347.502 57.6108 346.091C57.8475 344.68 57.8475 343.454 57.6108 342.412C57.3741 341.37 56.9148 340.561 56.233 339.983C55.5511 339.405 54.6563 339.116 53.5483 339.116C52.4119 339.116 51.4129 339.415 50.5511 340.011C49.6989 340.608 48.9981 341.432 48.4489 342.483C47.8996 343.534 47.5114 344.737 47.2841 346.091C47.0568 347.455 47.0426 348.671 47.2415 349.741C47.4498 350.802 47.8807 351.64 48.5341 352.256C49.197 352.862 50.0919 353.165 51.2188 353.165ZM81.7656 347.824L83.8821 335.182H89.0241L85.3878 357H80.402L81.0554 353.122H80.8281C80.1463 354.344 79.1709 355.343 77.902 356.119C76.6425 356.896 75.1937 357.284 73.5554 357.284C72.1255 357.284 70.9181 356.967 69.9332 356.332C68.9484 355.688 68.2476 354.756 67.831 353.534C67.4238 352.303 67.3622 350.816 67.6463 349.074L69.9759 335.182H75.1179L72.9304 348.278C72.7126 349.661 72.9115 350.759 73.527 351.574C74.152 352.388 75.08 352.795 76.3111 352.795C77.0687 352.795 77.831 352.611 78.598 352.241C79.3745 351.872 80.0516 351.323 80.6293 350.594C81.2069 349.855 81.5857 348.932 81.7656 347.824ZM90.9027 357L95.7322 327.909H100.874L99.0845 338.79H99.3118C99.6527 338.259 100.112 337.696 100.69 337.099C101.277 336.493 102.02 335.977 102.92 335.551C103.819 335.116 104.908 334.898 106.187 334.898C107.872 334.898 109.321 335.329 110.533 336.19C111.746 337.043 112.612 338.307 113.133 339.983C113.654 341.65 113.715 343.695 113.317 346.119C112.92 348.515 112.191 350.551 111.13 352.227C110.069 353.903 108.786 355.182 107.281 356.062C105.775 356.943 104.165 357.384 102.451 357.384C101.201 357.384 100.197 357.175 99.4396 356.759C98.6915 356.342 98.1186 355.84 97.7209 355.253C97.3232 354.656 97.0343 354.093 96.8544 353.562H96.5277L95.9595 357H90.9027ZM97.7635 346.091C97.5362 347.502 97.5315 348.738 97.7493 349.798C97.9766 350.859 98.4216 351.687 99.0845 352.284C99.7569 352.871 100.642 353.165 101.741 353.165C102.868 353.165 103.862 352.862 104.724 352.256C105.595 351.64 106.315 350.802 106.883 349.741C107.451 348.671 107.849 347.455 108.076 346.091C108.294 344.737 108.294 343.534 108.076 342.483C107.868 341.432 107.427 340.608 106.755 340.011C106.092 339.415 105.192 339.116 104.056 339.116C102.948 339.116 101.963 339.405 101.102 339.983C100.24 340.561 99.5249 341.37 98.9567 342.412C98.3885 343.454 97.9908 344.68 97.7635 346.091ZM125.842 327.909L121.013 357H115.871L120.7 327.909H125.842ZM126.3 357L129.937 335.182H135.079L131.442 357H126.3ZM133.261 332.057C132.437 332.057 131.755 331.782 131.215 331.233C130.675 330.684 130.439 330.026 130.505 329.259C130.571 328.491 130.917 327.833 131.542 327.284C132.176 326.735 132.901 326.46 133.715 326.46C134.539 326.46 135.216 326.735 135.746 327.284C136.286 327.833 136.523 328.491 136.457 329.259C136.4 330.026 136.054 330.684 135.42 331.233C134.795 331.782 134.075 332.057 133.261 332.057ZM156.631 340.949L151.901 341.46C151.853 340.977 151.706 340.527 151.46 340.111C151.214 339.694 150.845 339.363 150.352 339.116C149.869 338.861 149.244 338.733 148.477 338.733C147.36 338.733 146.38 338.984 145.537 339.486C144.694 339.988 144.216 340.632 144.102 341.418C143.998 342.005 144.14 342.483 144.528 342.852C144.917 343.222 145.636 343.534 146.688 343.79L150.295 344.585C152.284 345.03 153.714 345.75 154.585 346.744C155.466 347.739 155.774 349.041 155.509 350.651C155.281 351.995 154.694 353.179 153.747 354.202C152.8 355.215 151.588 356.006 150.111 356.574C148.643 357.142 147.014 357.426 145.224 357.426C142.507 357.426 140.414 356.863 138.946 355.736C137.488 354.599 136.763 353.037 136.773 351.048L141.83 350.565C141.886 351.55 142.232 352.294 142.866 352.795C143.501 353.288 144.382 353.539 145.509 353.548C146.777 353.558 147.848 353.293 148.719 352.753C149.599 352.204 150.097 351.536 150.21 350.75C150.305 350.163 150.158 349.685 149.77 349.315C149.391 348.946 148.714 348.652 147.739 348.435L144.159 347.653C142.133 347.208 140.688 346.455 139.827 345.395C138.974 344.325 138.686 342.975 138.96 341.347C139.188 340.021 139.741 338.88 140.622 337.923C141.512 336.957 142.653 336.214 144.045 335.693C145.438 335.163 146.995 334.898 148.719 334.898C151.313 334.898 153.269 335.442 154.585 336.531C155.902 337.62 156.583 339.093 156.631 340.949ZM165.956 344.216L163.854 357H158.697L163.527 327.909H168.57L166.751 338.889H167.021C167.713 337.649 168.655 336.673 169.848 335.963C171.051 335.253 172.495 334.898 174.18 334.898C175.677 334.898 176.936 335.215 177.959 335.849C178.982 336.484 179.701 337.412 180.118 338.634C180.544 339.855 180.615 341.347 180.331 343.108L178.001 357H172.845L175.033 343.903C175.269 342.436 175.075 341.295 174.45 340.48C173.835 339.656 172.859 339.244 171.524 339.244C170.606 339.244 169.758 339.443 168.982 339.841C168.205 340.229 167.552 340.793 167.021 341.531C166.5 342.27 166.145 343.165 165.956 344.216ZM192.817 357.426C190.629 357.426 188.821 356.972 187.391 356.062C185.961 355.144 184.957 353.847 184.379 352.17C183.811 350.485 183.716 348.501 184.095 346.219C184.464 343.974 185.217 342.005 186.354 340.31C187.49 338.605 188.911 337.279 190.615 336.332C192.329 335.376 194.223 334.898 196.297 334.898C197.642 334.898 198.877 335.116 200.004 335.551C201.131 335.977 202.083 336.64 202.859 337.54C203.636 338.439 204.171 339.585 204.464 340.977C204.758 342.36 204.744 344.008 204.422 345.92L204.18 347.497H186.283L186.837 344.031H199.791C199.962 343.046 199.905 342.17 199.621 341.403C199.337 340.627 198.863 340.016 198.2 339.571C197.537 339.126 196.709 338.903 195.714 338.903C194.701 338.903 193.754 339.164 192.874 339.685C192.002 340.196 191.268 340.859 190.672 341.673C190.075 342.488 189.696 343.345 189.536 344.244L188.953 347.568C188.745 348.932 188.792 350.045 189.095 350.906C189.398 351.768 189.929 352.402 190.686 352.81C191.444 353.217 192.4 353.42 193.555 353.42C194.313 353.42 195.014 353.316 195.658 353.108C196.302 352.9 196.875 352.587 197.376 352.17C197.888 351.744 198.314 351.223 198.655 350.608L203.357 351.148C202.836 352.417 202.073 353.525 201.07 354.472C200.066 355.409 198.863 356.138 197.462 356.659C196.07 357.17 194.521 357.426 192.817 357.426ZM206.964 357L210.601 335.182H215.587L214.976 338.818H215.203C215.8 337.559 216.643 336.588 217.732 335.906C218.83 335.215 220.004 334.869 221.254 334.869C221.548 334.869 221.865 334.884 222.206 334.912C222.547 334.931 222.84 334.964 223.087 335.011L222.291 339.741C222.073 339.666 221.732 339.599 221.268 339.543C220.814 339.476 220.364 339.443 219.919 339.443C218.982 339.443 218.11 339.647 217.305 340.054C216.51 340.452 215.838 341.006 215.288 341.716C214.739 342.426 214.384 343.245 214.223 344.173L212.107 357H206.964Z" fill="#6EACF6"/>
<defs>
<filter id="filter0_d_1022_193" x="386.941" y="234.312" width="96.2695" height="78.1497" filterUnits="userSpaceOnUse" color-interpolation-filters="sRGB">
<feFlood flood-opacity="0" result="BackgroundImageFix"/>
<feColorMatrix in="SourceAlpha" type="matrix" values="0 0 0 0 0 0 0 0 0 0 0 0 0 0 0 0 0 0 127 0" result="hardAlpha"/>
<feOffset dy="4"/>
<feGaussianBlur stdDeviation="2"/>
<feComposite in2="hardAlpha" operator="out"/>
<feColorMatrix type="matrix" values="0 0 0 0 0 0 0 0 0 0 0 0 0 0 0 0 0 0 0.25 0"/>
<feBlend mode="normal" in2="BackgroundImageFix" result="effect1_dropShadow_1022_193"/>
<feBlend mode="normal" in="SourceGraphic" in2="effect1_dropShadow_1022_193" result="shape"/>
</filter>
<linearGradient id="paint0_linear_1022_193" x1="425" y1="0" x2="425" y2="403.5" gradientUnits="userSpaceOnUse">
<stop offset="1" stop-color="#758FEB"/>
</linearGradient>
<linearGradient id="paint1_linear_1022_193" x1="707.953" y1="77.7956" x2="762.318" y2="66.3993" gradientUnits="userSpaceOnUse">
<stop stop-color="white"/>
<stop offset="1" stop-color="white" stop-opacity="0.3"/>
</linearGradient>
<linearGradient id="paint2_linear_1022_193" x1="619.953" y1="62.7956" x2="674.318" y2="51.3993" gradientUnits="userSpaceOnUse">
<stop stop-color="white"/>
<stop offset="1" stop-color="white" stop-opacity="0.3"/>
</linearGradient>
<linearGradient id="paint3_linear_1022_193" x1="471.953" y1="126.796" x2="526.318" y2="115.399" gradientUnits="userSpaceOnUse">
<stop stop-color="white"/>
<stop offset="1" stop-color="white" stop-opacity="0.3"/>
</linearGradient>
<linearGradient id="paint4_linear_1022_193" x1="303.953" y1="105.796" x2="358.318" y2="94.3993" gradientUnits="userSpaceOnUse">
<stop stop-color="white"/>
<stop offset="1" stop-color="white" stop-opacity="0.3"/>
</linearGradient>
<linearGradient id="paint5_linear_1022_193" x1="194.953" y1="111.796" x2="249.318" y2="100.399" gradientUnits="userSpaceOnUse">
<stop stop-color="white"/>
<stop offset="1" stop-color="white" stop-opacity="0.3"/>
</linearGradient>
<linearGradient id="paint6_linear_1022_193" x1="81.9533" y1="43.7956" x2="136.318" y2="32.3993" gradientUnits="userSpaceOnUse">
<stop stop-color="white"/>
<stop offset="1" stop-color="white" stop-opacity="0.3"/>
</linearGradient>
</defs>
</svg>
