<svg width="823" height="596" viewBox="0 0 823 596" fill="none" xmlns="http://www.w3.org/2000/svg">
<g clip-path="url(#clip0_990_594)">
<path d="M822 7.00243V229C821.034 228.32 820.082 227.64 819.116 226.959C818.525 226.543 817.933 226.127 817.338 225.712C778.149 198.376 730.134 177.912 677.272 166.014C624.409 154.115 568.221 151.126 513.361 157.292C473.682 161.736 436.397 168.543 414.101 178.966C246.416 257.354 56.1556 182.654 2.88421 161.767C1.918 161.396 0.95179 161.016 0 160.626V7.00245C0 5.14528 1.06356 3.36419 2.95669 2.05098C4.84982 0.737766 7.41745 0 10.0947 0H811.905C814.583 0 817.15 0.737755 819.043 2.05096C820.936 3.36417 822 5.14527 822 7.00243Z" fill="url(#paint0_linear_990_594)"/>
<path d="M822 7.00243V229C821.034 228.32 820.082 227.64 819.116 226.959C818.525 226.543 817.933 226.127 817.338 225.712C778.149 198.376 730.134 177.912 677.272 166.014C624.409 154.115 568.221 151.126 513.361 157.292C473.682 161.736 436.397 168.543 414.101 178.966C246.416 257.354 56.1556 182.654 2.88421 161.767C1.918 161.396 0.95179 161.016 0 160.626V7.00245C0 5.14528 1.06356 3.36419 2.95669 2.05098C4.84982 0.737766 7.41745 0 10.0947 0H811.905C814.583 0 817.15 0.737755 819.043 2.05096C820.937 3.36417 822 5.14527 822 7.00243Z" fill="url(#paint1_linear_990_594)"/>
<path d="M42 122C43.1046 122 44 121.105 44 120C44 118.895 43.1046 118 42 118C40.8954 118 40 118.895 40 120C40 121.105 40.8954 122 42 122Z" fill="#3F3D56"/>
<path d="M71 47C72.1046 47 73 46.1046 73 45C73 43.8954 72.1046 43 71 43C69.8954 43 69 43.8954 69 45C69 46.1046 69.8954 47 71 47Z" fill="#FF6584"/>
<path d="M115 83C116.105 83 117 82.1046 117 81C117 79.8954 116.105 79 115 79C113.895 79 113 79.8954 113 81C113 82.1046 113.895 83 115 83Z" fill="white"/>
<path opacity="0.8" d="M764.353 148.836L771.09 136.556L777.827 124.276L781.63 117.344C781.84 116.961 781.262 116.605 781.051 116.989L774.314 129.269L767.577 141.549L763.774 148.481C763.564 148.864 764.142 149.22 764.353 148.836Z" fill="url(#paint2_linear_990_594)"/>
<path d="M663.877 114.345C662.81 114.631 662.177 115.727 662.462 116.794C662.748 117.861 663.845 118.494 664.912 118.209C665.979 117.923 666.612 116.826 666.326 115.759C666.04 114.692 664.944 114.059 663.877 114.345Z" fill="#3F3D56"/>
<path d="M731.701 108.596C730.634 108.882 730.001 109.978 730.287 111.045C730.573 112.112 731.669 112.745 732.736 112.46C733.803 112.174 734.436 111.077 734.15 110.01C733.864 108.943 732.768 108.31 731.701 108.596Z" fill="white"/>
<path d="M803.102 73.8457L804.881 73.1991L804.815 71.3067L805.981 72.7988L807.76 72.1513L806.701 73.7208L807.867 75.2129L806.047 74.6912L804.988 76.2607L804.922 74.3683L803.102 73.8457Z" fill="white"/>
<path d="M740.328 48.2187L742.108 47.5722L742.042 45.6798L743.207 47.1718L744.986 46.5243L743.928 48.0939L745.094 49.586L743.273 49.0642L742.215 50.6338L742.149 48.7414L740.328 48.2187Z" fill="white"/>
<path opacity="0.8" d="M362.998 54.094L370.402 42.2042L377.806 30.3143L381.986 23.6023C382.217 23.2309 381.659 22.8442 381.428 23.2156L374.024 35.1054L366.62 46.9952L362.44 53.7073C362.209 54.0786 362.767 54.4654 362.998 54.094Z" fill="url(#paint3_linear_990_594)"/>
<path opacity="0.8" d="M444.998 155.094L452.402 143.204L459.806 131.314L463.986 124.602C464.217 124.231 463.659 123.844 463.428 124.216L456.024 136.105L448.62 147.995L444.44 154.707C444.209 155.079 444.767 155.465 444.998 155.094Z" fill="url(#paint4_linear_990_594)"/>
<path opacity="0.8" d="M255.998 163.094L263.402 151.204L270.806 139.314L274.986 132.602C275.217 132.231 274.659 131.844 274.428 132.216L267.024 144.105L259.62 155.995L255.44 162.707C255.209 163.079 255.767 163.465 255.998 163.094Z" fill="url(#paint5_linear_990_594)"/>
<path opacity="0.8" d="M85.9985 125.094L93.4023 113.204L100.806 101.314L104.986 94.6023C105.217 94.2309 104.659 93.8442 104.428 94.2156L97.0238 106.105L89.62 117.995L85.4404 124.707C85.2092 125.079 85.7672 125.465 85.9985 125.094Z" fill="url(#paint6_linear_990_594)"/>
<path opacity="0.8" d="M225.998 47.094L233.402 35.2042L240.806 23.3143L244.986 16.6023C245.217 16.2309 244.659 15.8442 244.428 16.2156L237.024 28.1054L229.62 39.9952L225.44 46.7073C225.209 47.0786 225.767 47.4654 225.998 47.094Z" fill="url(#paint7_linear_990_594)"/>
<path d="M0.241708 57.8944C30.8296 86.3446 71.3477 104.598 112.967 108.976C117.051 109.408 121.146 109.704 125.25 109.863C126.161 109.901 127.072 109.924 127.991 109.947C129.479 109.985 130.975 110 132.463 110C134.247 110 136.031 109.975 137.815 109.924C148.142 109.623 158.429 108.499 168.578 106.563C168.95 106.487 169.314 106.419 169.686 106.343C171.288 106.032 172.885 105.698 174.476 105.342C177.528 104.667 180.565 103.918 183.587 103.096C184.566 102.831 185.545 102.557 186.525 102.269C187.929 101.867 189.326 101.442 190.723 101.01C191.247 100.843 191.771 100.683 192.295 100.509C192.826 100.342 193.358 100.168 193.889 99.9855C197.131 98.9234 200.345 97.7702 203.531 96.526C221.676 89.5206 238.662 79.8248 253.918 67.7647C256.029 66.0881 258.17 64.3279 260.235 62.6209C271.334 53.4713 282.813 44.0107 296.805 41.9471C311.913 39.7242 326.429 46.5978 340.459 53.2437C345.219 55.497 350.138 57.8261 355.005 59.7759C378.761 69.127 404.941 70.3778 429.482 63.3341C429.99 63.1975 430.499 63.0458 431 62.8941V61.3084C430.499 61.4602 429.99 61.6119 429.482 61.756C405.147 68.8353 379.15 67.6425 355.567 58.3648C350.746 56.4378 345.841 54.1162 341.104 51.8705C326.869 45.126 312.148 38.1537 296.585 40.4449C282.175 42.5692 270.529 52.1664 259.271 61.4526C257.206 63.152 255.072 64.9121 252.977 66.5812C237.822 78.5641 220.945 88.1937 202.916 95.1452H202.908C199.856 96.3287 196.766 97.444 193.661 98.4758C193.213 98.6199 192.765 98.7641 192.317 98.9158C191.816 99.0751 191.308 99.2344 190.807 99.3938C189.524 99.8034 188.238 100.193 186.95 100.562C185.69 100.941 184.422 101.301 183.146 101.639H183.139C179.874 102.527 176.589 103.329 173.284 104.044C171.789 104.378 170.293 104.682 168.782 104.97C168.456 105.038 168.122 105.099 167.788 105.16C158.052 106.996 148.188 108.076 138.286 108.392H138.278C134.839 108.498 131.405 108.51 127.976 108.43C127.08 108.407 126.192 108.376 125.304 108.346C121.424 108.194 117.55 107.921 113.68 107.527H113.673C72.1828 103.286 31.7634 85.1383 1.2742 56.7792C1.12604 56.6433 0.930041 56.5716 0.729131 56.5798C0.528221 56.588 0.338736 56.6755 0.202182 56.823C0.0656278 56.9705 -0.00687814 57.166 0.000521174 57.3668C0.00792048 57.5676 0.094668 57.7573 0.241708 57.8944Z" fill="white"/>
<path d="M387.643 572.606C387.674 571.811 383.469 571.003 378.25 570.799C373.031 570.596 368.775 571.074 368.744 571.869C368.713 572.663 372.918 573.472 378.137 573.675C383.357 573.879 387.612 573.4 387.643 572.606Z" fill="#E6E6E6"/>
<path d="M447.503 578.181C447.534 577.387 443.328 576.578 438.109 576.374C432.89 576.171 428.634 576.65 428.603 577.444C428.572 578.238 432.778 579.047 437.997 579.25C443.216 579.454 447.472 578.975 447.503 578.181Z" fill="#3F3D56"/>
<path d="M363.413 581.922C363.444 581.128 359.238 580.319 354.019 580.116C348.8 579.912 344.544 580.391 344.513 581.185C344.482 581.979 348.688 582.788 353.907 582.992C359.126 583.195 363.382 582.716 363.413 581.922Z" fill="#FF6584"/>
<path d="M427.972 590.919C428.003 590.125 423.797 589.316 418.578 589.113C413.359 588.909 409.103 589.388 409.072 590.182C409.041 590.976 413.247 591.785 418.466 591.989C423.685 592.192 427.941 591.713 427.972 590.919Z" fill="#FF6584"/>
<path d="M333.991 584.086C333.994 583.372 332.116 582.783 329.796 582.772C327.475 582.761 325.592 583.331 325.588 584.046C325.585 584.761 327.463 585.349 329.783 585.36C332.103 585.371 333.987 584.801 333.991 584.086Z" fill="#E6E6E6"/>
<path d="M357.213 589.445C357.217 588.73 355.338 588.142 353.018 588.131C350.698 588.119 348.814 588.69 348.811 589.404C348.807 590.119 350.686 590.707 353.006 590.718C355.326 590.73 357.21 590.159 357.213 589.445Z" fill="#E6E6E6"/>
<path d="M319.241 591.458C319.244 590.744 317.366 590.155 315.046 590.144C312.725 590.133 310.842 590.703 310.838 591.418C310.835 592.133 312.713 592.721 315.033 592.732C317.353 592.743 319.237 592.173 319.241 591.458Z" fill="#3F3D56"/>
<path d="M399.073 582.302C399.076 581.588 397.198 580.999 394.878 580.988C392.557 580.977 390.674 581.547 390.67 582.262C390.667 582.976 392.545 583.565 394.865 583.576C397.185 583.587 399.069 583.017 399.073 582.302Z" fill="#E6E6E6"/>
<path d="M371.963 577.091C371.967 576.377 370.088 575.788 367.768 575.777C365.448 575.766 363.564 576.336 363.561 577.051C363.557 577.765 365.436 578.354 367.756 578.365C370.076 578.376 371.96 577.806 371.963 577.091Z" fill="#FF6584"/>
<path d="M417.026 574.208C417.029 573.494 415.151 572.905 412.831 572.894C410.511 572.883 408.627 573.453 408.623 574.168C408.62 574.883 410.498 575.471 412.818 575.482C415.139 575.493 417.022 574.923 417.026 574.208Z" fill="#3F3D56"/>
<path d="M382.78 589.692C382.783 588.977 380.905 588.389 378.585 588.378C376.264 588.366 374.381 588.937 374.377 589.651C374.374 590.366 376.252 590.954 378.572 590.966C380.892 590.977 382.776 590.406 382.78 589.692Z" fill="#3F3D56"/>
<path d="M618.516 58.8198C624.038 58.8198 628.516 54.3427 628.516 48.8198C628.516 43.297 624.038 38.8198 618.516 38.8198C612.993 38.8198 608.516 43.297 608.516 48.8198C608.516 54.3427 612.993 58.8198 618.516 58.8198Z" fill="#3F3D56"/>
<path d="M490.516 92.8198C491.62 92.8198 492.516 91.9244 492.516 90.8198C492.516 89.7153 491.62 88.8198 490.516 88.8198C489.411 88.8198 488.516 89.7153 488.516 90.8198C488.516 91.9244 489.411 92.8198 490.516 92.8198Z" fill="#3F3D56"/>
<path d="M388.516 131.82C389.62 131.82 390.516 130.925 390.516 129.82C390.516 128.716 389.62 127.82 388.516 127.82C387.411 127.82 386.516 128.716 386.516 129.82C386.516 130.925 387.411 131.82 388.516 131.82Z" fill="#3F3D56"/>
<path d="M275.516 80.8198C276.62 80.8198 277.516 79.9244 277.516 78.8198C277.516 77.7153 276.62 76.8198 275.516 76.8198C274.411 76.8198 273.516 77.7153 273.516 78.8198C273.516 79.9244 274.411 80.8198 275.516 80.8198Z" fill="#FF6584"/>
<path d="M323.516 30.8198C324.62 30.8198 325.516 29.9244 325.516 28.8198C325.516 27.7153 324.62 26.8198 323.516 26.8198C322.411 26.8198 321.516 27.7153 321.516 28.8198C321.516 29.9244 322.411 30.8198 323.516 30.8198Z" fill="white"/>
<path d="M657.516 19.8198C658.62 19.8198 659.516 18.9244 659.516 17.8198C659.516 16.7153 658.62 15.8198 657.516 15.8198C656.411 15.8198 655.516 16.7153 655.516 17.8198C655.516 18.9244 656.411 19.8198 657.516 19.8198Z" fill="white"/>
<path d="M554.516 53.8198C555.62 53.8198 556.516 52.9244 556.516 51.8198C556.516 50.7153 555.62 49.8198 554.516 49.8198C553.411 49.8198 552.516 50.7153 552.516 51.8198C552.516 52.9244 553.411 53.8198 554.516 53.8198Z" fill="white"/>
<path d="M795 192C796.105 192 797 191.105 797 190C797 188.895 796.105 188 795 188C793.895 188 793 188.895 793 190C793 191.105 793.895 192 795 192Z" fill="white"/>
<path d="M784 25C785.105 25 786 24.1046 786 23C786 21.8954 785.105 21 784 21C782.895 21 782 21.8954 782 23C782 24.1046 782.895 25 784 25Z" fill="#FF6584"/>
<path d="M321.516 119.82C322.62 119.82 323.516 118.925 323.516 117.82C323.516 116.716 322.62 115.82 321.516 115.82C320.411 115.82 319.516 116.716 319.516 117.82C319.516 118.925 320.411 119.82 321.516 119.82Z" fill="white"/>
<path d="M168.516 113.82C169.62 113.82 170.516 112.925 170.516 111.82C170.516 110.716 169.62 109.82 168.516 109.82C167.411 109.82 166.516 110.716 166.516 111.82C166.516 112.925 167.411 113.82 168.516 113.82Z" fill="white"/>
<path d="M243.555 134.907L241.669 135.071L241.243 136.916L240.503 135.173L238.617 135.338L240.046 134.096L239.306 132.353L240.929 133.328L242.358 132.086L241.932 133.931L243.555 134.907Z" fill="white"/>
<path d="M484.555 28.9069L482.669 29.0709L482.243 30.9159L481.503 29.1729L479.617 29.3379L481.046 28.0959L480.306 26.3529L481.929 27.3279L483.358 26.0859L482.932 27.9309L484.555 28.9069Z" fill="white"/>
<path d="M598.555 109.907L596.669 110.071L596.243 111.916L595.503 110.173L593.617 110.338L595.046 109.096L594.306 107.353L595.929 108.328L597.358 107.086L596.932 108.931L598.555 109.907Z" fill="white"/>
<path d="M386.555 86.9069L384.669 87.0709L384.243 88.9159L383.503 87.1729L381.617 87.3379L383.046 86.0959L382.306 84.3529L383.929 85.3279L385.358 84.0859L384.932 85.9309L386.555 86.9069Z" fill="white"/>
<path d="M297.555 175.907L295.669 176.071L295.243 177.916L294.503 176.173L292.617 176.338L294.046 175.096L293.306 173.353L294.929 174.328L296.358 173.086L295.932 174.931L297.555 175.907Z" fill="white"/>
<path d="M674.555 173.907L672.669 174.071L672.243 175.916L671.503 174.173L669.617 174.338L671.046 173.096L670.306 171.353L671.929 172.328L673.358 171.086L672.932 172.931L674.555 173.907Z" fill="white"/>
<path d="M190.555 57.9069L188.669 58.0709L188.243 59.9159L187.503 58.1729L185.617 58.3379L187.046 57.0959L186.306 55.3529L187.929 56.3279L189.358 55.0859L188.932 56.9309L190.555 57.9069Z" fill="white"/>
<path d="M109.938 40.821L108.052 40.985L107.626 42.83L106.886 41.087L105 41.252L106.429 40.01L105.689 38.267L107.312 39.242L108.741 38L108.315 39.845L109.938 40.821Z" fill="white"/>
<path d="M26.938 147.821L25.052 147.985L24.626 149.83L23.886 148.087L22 148.252L23.429 147.01L22.689 145.267L24.312 146.242L25.741 145L25.315 146.845L26.938 147.821Z" fill="white"/>
<path d="M31.938 16.821L30.052 16.985L29.626 18.83L28.886 17.087L27 17.252L28.429 16.01L27.689 14.267L29.312 15.242L30.741 14L30.315 15.845L31.938 16.821Z" fill="white"/>
<path d="M169.938 19.821L168.052 19.985L167.626 21.83L166.886 20.087L165 20.252L166.429 19.01L165.689 17.267L167.312 18.242L168.741 17L168.315 18.845L169.938 19.821Z" fill="white"/>
<path d="M610.893 573.889C610.924 573.095 606.315 572.27 600.597 572.047C594.88 571.824 590.22 572.287 590.189 573.081C590.158 573.876 594.768 574.7 600.485 574.923C606.203 575.146 610.862 574.683 610.893 573.889Z" fill="#E6E6E6"/>
<path d="M676.483 579.687C676.514 578.893 671.905 578.068 666.187 577.845C660.47 577.622 655.81 578.085 655.779 578.879C655.748 579.674 660.358 580.498 666.075 580.721C671.792 580.944 676.452 580.481 676.483 579.687Z" fill="#3F3D56"/>
<path d="M584.39 583.119C584.421 582.325 579.811 581.501 574.093 581.278C568.376 581.055 563.716 581.518 563.685 582.312C563.654 583.106 568.264 583.931 573.981 584.154C579.699 584.377 584.359 583.914 584.39 583.119Z" fill="#FF6584"/>
<path d="M655.136 592.355C655.167 591.561 650.557 590.736 644.839 590.513C639.122 590.29 634.462 590.753 634.431 591.547C634.4 592.342 639.01 593.166 644.727 593.389C650.445 593.612 655.105 593.149 655.136 592.355Z" fill="#FF6584"/>
<path d="M552.167 585.172C552.173 584.458 550.118 583.861 547.576 583.84C545.035 583.819 542.97 584.381 542.964 585.096C542.958 585.81 545.013 586.407 547.555 586.428C550.096 586.449 552.161 585.887 552.167 585.172Z" fill="#E6E6E6"/>
<path d="M577.628 590.62C577.634 589.905 575.579 589.308 573.037 589.287C570.496 589.266 568.431 589.828 568.425 590.543C568.419 591.258 570.474 591.854 573.016 591.875C575.557 591.896 577.622 591.334 577.628 590.62Z" fill="#E6E6E6"/>
<path d="M536.046 592.491C536.052 591.776 533.997 591.179 531.455 591.158C528.914 591.137 526.849 591.699 526.843 592.414C526.837 593.129 528.892 593.725 531.434 593.746C533.975 593.768 536.04 593.205 536.046 592.491Z" fill="#3F3D56"/>
<path d="M623.456 583.629C623.462 582.915 621.407 582.318 618.865 582.297C616.324 582.276 614.259 582.838 614.253 583.553C614.247 584.267 616.302 584.864 618.844 584.885C621.385 584.906 623.451 584.344 623.456 583.629Z" fill="#E6E6E6"/>
<path d="M593.745 578.318C593.751 577.603 591.696 577.007 589.155 576.985C586.613 576.964 584.548 577.526 584.542 578.241C584.536 578.956 586.592 579.552 589.133 579.573C591.674 579.595 593.74 579.032 593.745 578.318Z" fill="#FF6584"/>
<path d="M643.085 575.603C643.091 574.888 641.036 574.292 638.494 574.271C635.953 574.249 633.888 574.812 633.882 575.526C633.876 576.241 635.931 576.837 638.473 576.859C641.014 576.88 643.079 576.318 643.085 575.603Z" fill="#3F3D56"/>
<path d="M605.632 590.961C605.638 590.247 603.583 589.65 601.041 589.629C598.5 589.608 596.435 590.17 596.429 590.885C596.423 591.599 598.478 592.196 601.02 592.217C603.561 592.238 605.626 591.676 605.632 590.961Z" fill="#3F3D56"/>
<path d="M224.643 573.606C224.674 572.811 220.469 572.003 215.25 571.799C210.031 571.596 205.775 572.074 205.744 572.869C205.713 573.663 209.918 574.472 215.137 574.675C220.357 574.879 224.612 574.4 224.643 573.606Z" fill="#E6E6E6"/>
<path d="M284.503 579.181C284.534 578.387 280.328 577.578 275.109 577.374C269.89 577.171 265.634 577.65 265.603 578.444C265.572 579.238 269.778 580.047 274.997 580.25C280.216 580.454 284.472 579.975 284.503 579.181Z" fill="#3F3D56"/>
<path d="M200.413 582.922C200.444 582.128 196.238 581.319 191.019 581.115C185.8 580.912 181.544 581.391 181.513 582.185C181.482 582.979 185.688 583.788 190.907 583.992C196.126 584.195 200.382 583.716 200.413 582.922Z" fill="#FF6584"/>
<path d="M264.968 591.919C264.999 591.125 260.793 590.316 255.574 590.113C250.355 589.909 246.099 590.388 246.068 591.182C246.037 591.976 250.243 592.785 255.462 592.989C260.681 593.192 264.937 592.713 264.968 591.919Z" fill="#FF6584"/>
<path d="M170.987 585.086C170.99 584.372 169.112 583.783 166.792 583.772C164.472 583.761 162.588 584.331 162.584 585.046C162.581 585.761 164.459 586.349 166.779 586.36C169.099 586.371 170.983 585.801 170.987 585.086Z" fill="#E6E6E6"/>
<path d="M194.213 590.445C194.217 589.73 192.338 589.142 190.018 589.131C187.698 589.119 185.814 589.69 185.811 590.404C185.807 591.119 187.686 591.707 190.006 591.718C192.326 591.73 194.21 591.159 194.213 590.445Z" fill="#E6E6E6"/>
<path d="M156.241 592.458C156.244 591.744 154.366 591.155 152.046 591.144C149.725 591.133 147.842 591.703 147.838 592.418C147.835 593.133 149.713 593.721 152.033 593.732C154.353 593.743 156.237 593.173 156.241 592.458Z" fill="#3F3D56"/>
<path d="M236.073 583.302C236.076 582.588 234.198 581.999 231.878 581.988C229.557 581.977 227.674 582.547 227.67 583.262C227.667 583.976 229.545 584.565 231.865 584.576C234.185 584.587 236.069 584.017 236.073 583.302Z" fill="#E6E6E6"/>
<path d="M208.963 578.091C208.967 577.377 207.088 576.788 204.768 576.777C202.448 576.766 200.564 577.336 200.561 578.051C200.557 578.765 202.436 579.354 204.756 579.365C207.076 579.376 208.96 578.806 208.963 578.091Z" fill="#FF6584"/>
<path d="M254.026 575.208C254.029 574.494 252.151 573.905 249.831 573.894C247.511 573.883 245.627 574.453 245.623 575.168C245.62 575.883 247.498 576.471 249.818 576.482C252.139 576.493 254.022 575.923 254.026 575.208Z" fill="#3F3D56"/>
<path d="M219.78 590.692C219.783 589.977 217.905 589.389 215.585 589.378C213.264 589.366 211.381 589.937 211.377 590.651C211.374 591.366 213.252 591.954 215.572 591.966C217.892 591.977 219.776 591.406 219.78 590.692Z" fill="#3F3D56"/>
<path d="M153.418 153.509L97.3164 154.319L97.3453 156.319L153.447 155.509L153.418 153.509Z" fill="#E6E6E6"/>
<path d="M155.532 159.426C154.437 158.889 153.579 157.967 153.119 156.837C152.66 155.708 152.633 154.448 153.042 153.3C153.452 152.151 154.269 151.193 155.34 150.608C156.41 150.023 157.658 149.853 158.846 150.129C160.033 150.405 161.078 151.108 161.781 152.105C162.483 153.102 162.795 154.322 162.656 155.534C162.517 156.746 161.936 157.864 161.026 158.675C160.116 159.487 158.939 159.935 157.719 159.934C156.961 159.934 156.213 159.76 155.532 159.426ZM156.746 152.095C156.374 152.222 156.03 152.422 155.734 152.683C155.439 152.945 155.199 153.262 155.027 153.616C154.722 154.242 154.643 154.954 154.803 155.631C154.964 156.308 155.355 156.909 155.909 157.33C156.462 157.751 157.145 157.967 157.841 157.942C158.536 157.916 159.201 157.649 159.722 157.188C160.243 156.727 160.588 156.099 160.698 155.412C160.808 154.725 160.676 154.021 160.325 153.42C159.974 152.819 159.426 152.359 158.773 152.117C158.12 151.875 157.404 151.868 156.746 152.095Z" fill="#E6E6E6"/>
<path d="M622.602 92.1969C621.372 92.1997 620.183 91.7494 619.263 90.9319C618.344 90.1144 617.757 88.9869 617.615 87.7645C617.474 86.542 617.787 85.3103 618.496 84.3041C619.204 83.2979 620.258 82.5878 621.457 82.3092C622.656 82.0307 623.915 82.2031 624.995 82.7936C626.074 83.3842 626.899 84.3515 627.311 85.5111C627.723 86.6707 627.693 87.9414 627.228 89.0807C626.763 90.2201 625.895 91.1484 624.789 91.6886C624.108 92.0214 623.361 92.1952 622.602 92.1969ZM622.596 84.1925C621.944 84.1924 621.309 84.4046 620.789 84.7969C620.268 85.1892 619.889 85.7403 619.71 86.3669C619.53 86.9936 619.559 87.6617 619.792 88.2703C620.026 88.879 620.451 89.3951 621.004 89.7406C621.557 90.0862 622.207 90.2424 622.857 90.1857C623.506 90.129 624.119 89.8625 624.604 89.4264C625.088 88.9903 625.418 88.4083 625.542 87.7684C625.667 87.1285 625.58 86.4655 625.294 85.8795C625.047 85.3741 624.663 84.9476 624.186 84.6495C623.709 84.3514 623.158 84.193 622.596 84.1925Z" fill="#E6E6E6"/>
<path d="M561.217 137.821L541.504 238.336L543.467 238.721L563.179 138.206L561.217 137.821Z" fill="white"/>
<path d="M557.625 132.83C557.842 131.619 558.497 130.53 559.465 129.77C560.433 129.011 561.647 128.635 562.876 128.713C564.104 128.792 565.26 129.32 566.124 130.196C566.987 131.073 567.498 132.237 567.559 133.466C567.619 134.695 567.225 135.903 566.451 136.86C565.678 137.818 564.579 138.456 563.365 138.655C562.15 138.854 560.905 138.598 559.867 137.938C558.829 137.277 558.07 136.257 557.735 135.073C557.529 134.344 557.492 133.577 557.625 132.83ZM565.503 134.251C565.619 133.609 565.523 132.947 565.23 132.365C564.937 131.783 564.462 131.312 563.877 131.023C563.293 130.735 562.63 130.644 561.99 130.765C561.349 130.887 560.766 131.213 560.327 131.696C559.888 132.178 559.619 132.79 559.559 133.439C559.499 134.088 559.652 134.739 559.994 135.294C560.337 135.848 560.851 136.276 561.459 136.513C562.066 136.749 562.734 136.782 563.362 136.605C563.903 136.452 564.391 136.151 564.769 135.734C565.148 135.318 565.402 134.804 565.503 134.251Z" fill="#E6E6E6"/>
<path d="M408.5 584C487.753 584 552 572.583 552 558.5C552 544.417 487.753 533 408.5 533C329.247 533 265 544.417 265 558.5C265 572.583 329.247 584 408.5 584Z" fill="#D0CDE1" fill-opacity="0.69"/>
<path d="M496 475C573.32 475 636 412.32 636 335C636 257.68 573.32 195 496 195C418.68 195 356 257.68 356 335C356 412.32 418.68 475 496 475Z" fill="#1171FF"/>
<path opacity="0.05" d="M495 451C559.065 451 611 399.289 611 335.5C611 271.711 559.065 220 495 220C430.935 220 379 271.711 379 335.5C379 399.289 430.935 451 495 451Z" fill="white"/>
<path opacity="0.05" d="M496 430C548.467 430 591 387.691 591 335.5C591 283.309 548.467 241 496 241C443.533 241 401 283.309 401 335.5C401 387.691 443.533 430 496 430Z" fill="white"/>
<path opacity="0.05" d="M496 404C533.555 404 564 373.331 564 335.5C564 297.668 533.555 267 496 267C458.445 267 428 297.668 428 335.5C428 373.331 458.445 404 496 404Z" fill="#6EACF6"/>
<path d="M520.476 378.45C513.674 382.874 505.836 385.449 497.734 385.921C489.632 386.393 481.547 384.745 474.277 381.14L475.307 379.042C484.07 383.344 494.002 384.658 503.583 382.782C513.164 380.906 521.867 375.944 528.358 368.655C534.849 361.366 538.771 352.152 539.525 342.423C540.278 332.694 537.821 322.986 532.529 314.786C527.237 306.585 519.402 300.344 510.224 297.017C501.046 293.69 491.029 293.461 481.708 296.365C472.387 299.269 464.275 305.145 458.614 313.095C452.952 321.045 450.053 330.631 450.361 340.384L448.023 340.455C447.764 332.249 449.662 324.118 453.527 316.873C457.392 309.628 463.09 303.522 470.052 299.164C477.014 294.806 484.997 292.348 493.206 292.034C501.415 291.721 509.563 293.563 516.837 297.378C524.111 301.193 530.258 306.847 534.665 313.776C539.072 320.705 541.585 328.667 541.953 336.87C542.321 345.072 540.532 353.227 536.763 360.523C532.995 367.819 527.38 374 520.476 378.45Z" fill="white"/>
<path d="M494.5 342C487.608 342 482 336.168 482 329C482 321.832 487.608 316 494.5 316C501.392 316 507 321.832 507 329C507 336.168 501.392 342 494.5 342ZM494.5 319.285C489.457 319.285 485.355 323.643 485.355 329C485.355 334.357 489.457 338.715 494.5 338.715C499.543 338.715 503.645 334.357 503.645 329C503.645 323.643 499.543 319.285 494.5 319.285Z" fill="white"/>
<path d="M505.41 364H482.59C480.578 363.998 478.649 363.201 477.226 361.785C475.803 360.369 475.002 358.449 475 356.447V334.171C475.002 332.8 475.55 331.486 476.524 330.516C477.498 329.547 478.819 329.002 480.196 329H507.804C509.181 329.002 510.502 329.547 511.476 330.516C512.45 331.486 512.998 332.8 513 334.171V356.447C512.998 358.449 512.197 360.369 510.774 361.785C509.351 363.201 507.422 363.998 505.41 364Z" fill="white"/>
<path d="M498 342.055C498.001 341.335 497.788 340.627 497.384 340.006C496.98 339.384 496.399 338.87 495.702 338.518C495.004 338.166 494.215 337.987 493.415 338.001C492.615 338.014 491.834 338.22 491.151 338.596C490.469 338.971 489.91 339.504 489.533 340.139C489.155 340.774 488.972 341.488 489.003 342.208C489.034 342.928 489.278 343.627 489.708 344.234C490.139 344.841 490.742 345.333 491.455 345.661V352H495.545V345.661C496.284 345.322 496.904 344.806 497.337 344.169C497.77 343.533 498 342.801 498 342.055Z" fill="#3B80E5"/>
<path d="M356.426 348C356.426 348 345.333 379.179 350.263 390.256C355.194 401.333 363 412 363 412C363 412 360.124 350.051 356.426 348Z" fill="#D0CDE1"/>
<path opacity="0.1" d="M356.426 348C356.426 348 345.333 379.179 350.263 390.256C355.194 401.333 363 412 363 412C363 412 360.124 350.051 356.426 348Z" fill="black"/>
<path d="M364.664 420.816C364.664 420.816 363.852 428.573 363.446 428.981C363.04 429.389 363.852 430.206 363.446 431.431C363.04 432.655 362.634 434.288 363.446 434.696C364.258 435.105 358.978 471.029 358.978 471.029C358.978 471.029 345.982 488.175 351.262 515.119L352.886 542.47C352.886 542.47 365.477 543.287 365.477 538.796C365.477 538.796 364.664 533.489 364.664 531.04C364.664 528.59 366.695 528.59 365.477 527.366C364.258 526.141 364.258 525.325 364.258 525.325C364.258 525.325 366.289 523.692 365.883 523.283C365.477 522.875 369.538 493.89 369.538 493.89C369.538 493.89 374.006 489.4 374.006 486.95V484.501C374.006 484.501 376.036 479.194 376.036 478.786C376.036 478.378 387.002 453.475 387.002 453.475L391.47 471.438L396.343 497.156C396.343 497.156 398.78 520.426 403.654 529.407C403.654 529.407 412.183 558.8 412.183 557.983C412.183 557.167 426.398 555.126 425.991 551.452C425.585 547.777 417.463 496.34 417.463 496.34L419.493 420L364.664 420.816Z" fill="#2F2E41"/>
<path d="M353.103 538.933C353.103 538.933 342.253 560.721 349.486 561.543C356.72 562.365 359.532 562.365 362.747 559.077C364.505 557.279 368.064 554.866 370.929 553.049C372.627 551.989 373.999 550.462 374.887 548.641C375.775 546.821 376.143 544.781 375.95 542.756C375.738 540.744 375.003 539.087 373.195 538.933C368.373 538.522 362.747 534 362.747 534L353.103 538.933Z" fill="#2F2E41"/>
<path d="M415.103 554.933C415.103 554.933 404.253 576.721 411.486 577.543C418.72 578.365 421.532 578.365 424.747 575.077C426.505 573.279 430.064 570.866 432.929 569.049C434.627 567.989 435.999 566.462 436.887 564.641C437.775 562.821 438.143 560.781 437.95 558.756C437.738 556.745 437.003 555.087 435.195 554.933C430.373 554.522 424.747 550 424.747 550L415.103 554.933Z" fill="#2F2E41"/>
<path d="M402 313C411.389 313 419 305.389 419 296C419 286.611 411.389 279 402 279C392.611 279 385 286.611 385 296C385 305.389 392.611 313 402 313Z" fill="#FFB8B8"/>
<path d="M391.066 301C391.066 301 378.996 324.377 378.03 324.377C377.064 324.377 399.757 332 399.757 332C399.757 332 406.034 309.639 407 307.607L391.066 301Z" fill="#FFB8B8"/>
<path d="M409.991 325.952C409.991 325.952 385.997 312.605 383.598 313.009C381.198 313.413 355.605 336.063 356.005 345.366C356.405 354.668 359.604 370.038 359.604 370.038C359.604 370.038 360.803 412.911 363.203 413.315C365.602 413.72 362.803 421 363.603 421C364.403 421 419.589 421 419.989 419.787C420.389 418.573 409.991 325.952 409.991 325.952Z" fill="#D0CDE1"/>
<path d="M424.161 423C424.161 423 431.914 446.8 425.385 445.979C418.856 445.159 416 425.462 416 425.462L424.161 423Z" fill="#FFB8B8"/>
<path d="M402.936 324.042C402.936 324.042 387.817 327.348 390.269 348.009C392.721 368.67 397.215 389.331 397.215 389.331L412.333 422.802L413.968 429L425 426.107L416.828 378.174C416.828 378.174 413.968 326.935 410.29 325.282C407.971 324.282 405.45 323.857 402.936 324.042Z" fill="#D0CDE1"/>
<path opacity="0.1" d="M394 387.785L413 421L396.992 386L394 387.785Z" fill="black"/>
<path d="M418.849 290.083L418.904 288.817L421.437 289.444C421.41 289.037 421.294 288.641 421.098 288.283C420.902 287.925 420.631 287.614 420.302 287.371L423 287.221C420.736 284.02 417.844 281.309 414.497 279.252C411.151 277.194 407.42 275.833 403.53 275.25C397.695 274.408 391.197 275.626 387.195 279.935C385.254 282.025 384.035 284.683 383.167 287.394C381.569 292.388 381.244 298.341 384.576 302.4C387.962 306.526 393.877 307.334 399.206 307.845C401.081 308.025 403.046 308.192 404.784 307.468C404.977 305.485 404.722 303.484 404.037 301.612C403.752 301.033 403.615 300.392 403.64 299.747C403.877 298.17 405.992 297.772 407.581 297.985C409.169 298.199 411.079 298.525 412.123 297.314C412.842 296.481 412.8 295.266 412.895 294.172C413.154 291.192 418.822 290.708 418.849 290.083Z" fill="#2F2E41"/>
<path d="M525 562C536.046 562 545 552.822 545 541.5C545 530.178 536.046 521 525 521C513.954 521 505 530.178 505 541.5C505 552.822 513.954 562 525 562Z" fill="#3F3D56"/>
<path d="M289.5 555C300.822 555 310 546.046 310 535C310 523.954 300.822 515 289.5 515C278.178 515 269 523.954 269 535C269 546.046 278.178 555 289.5 555Z" fill="#5DE08A"/>
<path d="M290 522C298.284 522 305 515.508 305 507.5C305 499.492 298.284 493 290 493C281.716 493 275 499.492 275 507.5C275 515.508 281.716 522 290 522Z" fill="#5DE08A"/>
<path d="M290 496C295.523 496 300 491.299 300 485.5C300 479.701 295.523 475 290 475C284.477 475 280 479.701 280 485.5C280 491.299 284.477 496 290 496Z" fill="#5DE08A"/>
<path d="M73 99C74.4355 95.9436 74.7335 93.7711 74.8901 90.398C75.0467 87.0249 74.5373 83.6539 73.3912 80.4777C72.245 77.3014 70.4844 74.382 68.21 71.8861C65.9356 69.3903 63.1918 67.3668 60.1354 65.9313C57.079 64.4958 53.7698 63.6764 50.3967 63.5198C47.0235 63.3632 43.6526 63.8725 40.4764 65.0187C37.3001 66.1649 34.3807 67.9254 31.8848 70.1999C29.3889 72.4743 27.9345 73.4436 26.499 76.5L37.5 83.5L49 89.5L60.5 94.5L73 99Z" fill="#FF6584"/>
</g>
<defs>
<linearGradient id="paint0_linear_990_594" x1="411" y1="229" x2="411" y2="9.33354e-06" gradientUnits="userSpaceOnUse">
<stop stop-color="#94B9EF"/>
<stop offset="1" stop-color="#1070FF"/>
</linearGradient>
<linearGradient id="paint1_linear_990_594" x1="411" y1="-53.5" x2="411" y2="229" gradientUnits="userSpaceOnUse">
<stop stop-color="#42A9F8"/>
<stop offset="1" stop-color="#C1F4FF"/>
</linearGradient>
<linearGradient id="paint2_linear_990_594" x1="760.385" y1="136.213" x2="785.019" y2="129.612" gradientUnits="userSpaceOnUse">
<stop stop-color="white"/>
<stop offset="1" stop-color="white" stop-opacity="0.3"/>
</linearGradient>
<linearGradient id="paint3_linear_990_594" x1="359.733" y1="41.2709" x2="384.693" y2="36.0387" gradientUnits="userSpaceOnUse">
<stop stop-color="white"/>
<stop offset="1" stop-color="white" stop-opacity="0.3"/>
</linearGradient>
<linearGradient id="paint4_linear_990_594" x1="441.733" y1="142.271" x2="466.693" y2="137.039" gradientUnits="userSpaceOnUse">
<stop stop-color="white"/>
<stop offset="1" stop-color="white" stop-opacity="0.3"/>
</linearGradient>
<linearGradient id="paint5_linear_990_594" x1="252.733" y1="150.271" x2="277.693" y2="145.039" gradientUnits="userSpaceOnUse">
<stop stop-color="white"/>
<stop offset="1" stop-color="white" stop-opacity="0.3"/>
</linearGradient>
<linearGradient id="paint6_linear_990_594" x1="82.7333" y1="112.271" x2="107.693" y2="107.039" gradientUnits="userSpaceOnUse">
<stop stop-color="white"/>
<stop offset="1" stop-color="white" stop-opacity="0.3"/>
</linearGradient>
<linearGradient id="paint7_linear_990_594" x1="222.733" y1="34.2709" x2="247.693" y2="29.0387" gradientUnits="userSpaceOnUse">
<stop stop-color="white"/>
<stop offset="1" stop-color="white" stop-opacity="0.3"/>
</linearGradient>
<clipPath id="clip0_990_594">
<rect width="822.034" height="595.291" fill="white"/>
</clipPath>
</defs>
</svg>
