<svg width="975" height="839" viewBox="0 0 975 839" fill="none" xmlns="http://www.w3.org/2000/svg">
<g clip-path="url(#clip0_984_1426)">
<path d="M26 0H975V33.0484C975 72.3472 964.835 110.978 945.492 145.187V145.187C869.997 278.707 686.801 300.99 581.501 189.46L555.289 161.697C488.905 91.3867 380.144 82.558 303.289 141.241L291.275 150.415C240.445 189.227 171.771 195.189 115.013 165.718V165.718C60.3219 137.321 26 80.8272 26 19.2036V0Z" fill="#3B80E5"/>
<path d="M974.557 40.3754C918.491 85.4893 844.224 114.434 767.938 121.376C760.452 122.062 752.947 122.531 745.423 122.783C743.753 122.844 742.083 122.88 740.399 122.916C737.672 122.976 734.93 123 732.203 123C728.933 123 725.663 122.96 722.393 122.88C703.463 122.402 684.608 120.62 666.006 117.55C665.325 117.43 664.657 117.322 663.975 117.201C661.039 116.708 658.112 116.179 655.194 115.613C649.6 114.543 644.034 113.356 638.495 112.052C636.7 111.631 634.905 111.198 633.11 110.741C630.536 110.103 627.975 109.43 625.415 108.744C624.455 108.479 623.494 108.227 622.534 107.95C621.56 107.685 620.586 107.409 619.612 107.12C613.67 105.436 607.779 103.607 601.939 101.634C568.68 90.5255 537.545 75.1508 509.581 56.0269C505.713 53.3682 501.789 50.5772 498.004 47.8703C477.659 33.3617 456.619 18.3598 430.972 15.0875C403.28 11.5626 376.673 22.4622 350.957 33.0008C342.232 36.5738 333.215 40.2671 324.295 43.3589C280.752 58.1871 232.764 60.1705 187.783 49.0012C186.851 48.7846 185.918 48.544 185 48.3034V45.7891C185.918 46.0297 186.851 46.2703 187.783 46.4989C232.387 57.7245 280.039 55.8331 323.265 41.1213C332.102 38.0656 341.091 34.3843 349.775 30.8233C375.866 20.1283 402.849 9.07237 431.376 12.7055C457.787 16.074 479.134 31.2924 499.771 46.0176C503.556 48.7124 507.466 51.5035 511.307 54.1502C539.085 73.1516 570.019 88.4215 603.066 99.4445H603.08C608.674 101.321 614.338 103.09 620.029 104.726C620.85 104.954 621.671 105.183 622.492 105.424C623.411 105.676 624.343 105.929 625.262 106.182C627.613 106.831 629.97 107.449 632.331 108.034C634.641 108.636 636.965 109.205 639.302 109.743H639.316C645.3 111.15 651.321 112.421 657.379 113.556C660.12 114.085 662.862 114.567 665.631 115.024C666.229 115.132 666.842 115.228 667.454 115.325C685.299 118.236 703.379 119.95 721.53 120.45H721.544C727.847 120.618 734.142 120.638 740.427 120.51C742.069 120.474 743.697 120.426 745.325 120.377C752.436 120.137 759.538 119.704 766.63 119.078H766.644C842.693 112.353 916.779 83.5765 972.665 38.6069C972.936 38.3915 973.295 38.2779 973.664 38.2909C974.032 38.3039 974.379 38.4426 974.63 38.6764C974.88 38.9103 975.013 39.2204 974.999 39.5388C974.986 39.8572 974.827 40.1581 974.557 40.3754Z" fill="#6EACF6"/>
<path d="M974.557 45.631C918.491 91.1514 844.224 120.357 767.938 127.361C760.452 128.053 752.947 128.527 745.423 128.782C743.753 128.842 742.083 128.879 740.399 128.915C737.672 128.976 734.93 129 732.203 129C728.933 129 725.663 128.96 722.393 128.879C703.463 128.397 684.608 126.599 666.006 123.501C665.325 123.38 664.657 123.27 663.975 123.149C661.039 122.651 658.112 122.117 655.194 121.547C649.6 120.466 644.034 119.269 638.495 117.954C636.7 117.529 634.905 117.092 633.11 116.631C630.536 115.987 627.975 115.307 625.415 114.616C624.455 114.349 623.494 114.094 622.534 113.814C621.56 113.547 620.586 113.268 619.612 112.977C613.67 111.277 607.779 109.432 601.939 107.442C568.68 96.2329 537.545 80.7197 509.581 61.4235C505.713 58.7409 501.789 55.9247 498.004 53.1935C477.659 38.5541 456.619 23.4171 430.972 20.1154C403.28 16.5587 376.673 27.5564 350.957 38.19C342.232 41.7952 333.215 45.5218 324.295 48.6414C280.752 63.6032 232.764 65.6044 187.783 54.3345C186.851 54.116 185.918 53.8733 185 53.6305V51.0935C185.918 51.3363 186.851 51.579 187.783 51.8097C232.387 63.1364 280.039 61.228 323.265 46.3836C332.102 43.3004 341.091 39.5859 349.775 35.9929C375.866 25.2015 402.849 14.046 431.376 17.7119C457.787 21.1107 479.134 36.4663 499.771 51.3241C503.556 54.0432 507.466 56.8594 511.307 59.5299C539.085 78.7025 570.019 94.11 603.066 105.232H603.08C608.674 107.126 614.338 108.91 620.029 110.561C620.85 110.792 621.671 111.022 622.492 111.265C623.411 111.52 624.343 111.775 625.262 112.03C627.613 112.686 629.97 113.309 632.331 113.899C634.641 114.506 636.965 115.081 639.302 115.623H639.316C645.3 117.043 651.321 118.326 657.379 119.471C660.12 120.005 662.862 120.491 665.631 120.952C666.229 121.061 666.842 121.158 667.454 121.255C685.299 124.193 703.379 125.922 721.53 126.427H721.544C727.847 126.596 734.142 126.617 740.427 126.487C742.069 126.451 743.697 126.402 745.325 126.354C752.436 126.111 759.538 125.674 766.63 125.043H766.644C842.693 118.257 916.779 89.2213 972.665 43.8466C972.936 43.6293 973.295 43.5146 973.664 43.5277C974.032 43.5409 974.379 43.6808 974.63 43.9168C974.88 44.1528 975.013 44.4656 974.999 44.7869C974.986 45.1082 974.827 45.4117 974.557 45.631Z" fill="#6EACF6" fill-opacity="0.22"/>
<circle cx="620.5" cy="132.5" r="1.5" fill="#3F3D56"/>
<circle cx="525.5" cy="22.5" r="1.5" fill="#3F3D56"/>
<circle cx="309.5" cy="102.5" r="1.5" fill="white"/>
<circle cx="154.5" cy="21.5" r="1.5" fill="#3F3D56"/>
<circle cx="460.5" cy="60.5" r="1.5" fill="white"/>
<circle cx="403.5" cy="91.5" r="1.5" fill="white"/>
<circle cx="211.5" cy="140.5" r="1.5" fill="white"/>
<circle cx="537.5" cy="78.5" r="1.5" fill="#FF6584"/>
<circle cx="119.5" cy="102.5" r="1.5" fill="white"/>
<circle cx="219.5" cy="34.5" r="1.5" fill="white"/>
<circle cx="716.5" cy="82.5" r="1.5" fill="white"/>
<circle cx="645.5" cy="53.5" r="1.5" fill="white"/>
<circle cx="848.5" cy="59.5" r="1.5" fill="#3F3D56"/>
<circle cx="707.5" cy="199.5" r="1.5" fill="white"/>
<circle cx="790.5" cy="169.5" r="1.5" fill="#FF6584"/>
<circle cx="813.5" cy="231.5" r="1.5" fill="white"/>
<circle cx="893.5" cy="143.5" r="1.5" fill="white"/>
<circle cx="327.5" cy="28.5" r="7.5" fill="#3F3D56"/>
<circle cx="177" cy="157" r="8" fill="white"/>
<path d="M846.5 104.5C845.058 99.1202 842.042 94.318 837.219 91.5332C832.395 88.7484 826.663 87.9938 821.284 89.4353C815.904 90.8768 810.785 94.1766 808 99C805.215 103.823 804.559 108.12 806 113.5L814 112L826.5 109.5L837 107L846.5 104.5Z" fill="#FF6584"/>
<path d="M51.0805 54.2855C52.3732 59.4192 55.0466 64.1011 58.8107 67.8236C62.5748 71.5461 67.2861 74.1672 72.4339 75.4028C77.5816 76.6385 82.9693 76.4414 88.0131 74.833C93.0568 73.2247 97.564 70.2664 101.046 66.2788C104.528 62.2913 106.852 57.4266 107.767 52.2122C108.681 46.9978 108.151 41.6326 106.233 36.6983C104.315 31.7639 101.083 27.4486 96.8874 24.2202C92.6918 20.9919 87.6924 18.9736 82.4314 18.3841L80.6003 34.7274C82.8779 34.9826 85.0421 35.8564 86.8585 37.254C88.6748 38.6516 90.074 40.5197 90.9042 42.6558C91.7344 44.792 91.9641 47.1146 91.5683 49.372C91.1725 51.6294 90.1663 53.7353 88.6589 55.4616C87.1514 57.1879 85.2002 58.4685 83.0167 59.1648C80.8332 59.8611 78.5008 59.9464 76.2723 59.4115C74.0438 58.8766 72.0042 57.7419 70.3747 56.1303C68.7451 54.5188 67.5878 52.492 67.0281 50.2696L51.0805 54.2855Z" fill="white"/>
<path opacity="0.8" d="M687.404 392.964L702.714 337.213L718.024 281.461L726.666 249.989C727.145 248.247 725.991 246.434 725.512 248.175L710.203 303.927L694.893 359.678L686.25 391.15C685.772 392.892 686.926 394.705 687.404 392.964Z" fill="url(#paint0_linear_984_1426)"/>
<path opacity="0.8" d="M398.719 106.609L408.247 71.913L417.775 37.2169L423.154 17.6303C423.452 16.5466 422.733 15.4181 422.436 16.5017L412.908 51.1979L403.38 85.894L398.001 105.481C397.704 106.564 398.422 107.693 398.719 106.609Z" fill="url(#paint1_linear_984_1426)"/>
<path opacity="0.8" d="M137.719 285.747L147.247 251.051L156.775 216.355L162.154 196.768C162.452 195.684 161.733 194.556 161.436 195.639L151.908 230.336L142.38 265.032L137.001 284.618C136.704 285.702 137.422 286.831 137.719 285.747Z" fill="url(#paint2_linear_984_1426)"/>
<path opacity="0.8" d="M151.105 313.135L154.937 299.181L158.768 285.227L160.932 277.35C161.051 276.914 160.762 276.46 160.643 276.896L156.811 290.85L152.979 304.804L150.816 312.681C150.696 313.117 150.985 313.571 151.105 313.135Z" fill="url(#paint3_linear_984_1426)"/>
<path opacity="0.8" d="M921.763 115.359L928.876 89.4563L935.99 63.5532L940.005 48.9305C940.227 48.1214 939.691 47.2788 939.469 48.0879L932.356 73.991L925.243 99.8941L921.227 114.517C921.005 115.326 921.541 116.168 921.763 115.359Z" fill="url(#paint4_linear_984_1426)"/>
<path d="M99.8558 897.909C105.987 886.523 91.4631 761.537 159.416 650.402C238.038 521.817 413.847 512.354 562.617 536.498C753.917 567.544 957.616 634.231 983.811 807.244C978.125 1178.61 699.363 1293.22 457.426 1263.51C249.586 1193.92 130.976 1136.18 99.8558 897.909Z" fill="url(#paint5_linear_984_1426)"/>
<path opacity="0.8" d="M630.392 708.573L587.943 754.098L545.494 799.624L521.531 825.324C520.205 826.746 522.251 828.964 523.577 827.542L566.026 782.017L608.475 736.491L632.438 710.792C633.764 709.37 631.718 707.151 630.392 708.573Z" fill="url(#paint6_linear_984_1426)"/>
<path opacity="0.8" d="M246.735 652.329L204.286 697.854L161.838 743.38L137.874 769.079C136.549 770.501 138.595 772.72 139.92 771.298L182.369 725.773L224.818 680.247L248.781 654.547C250.107 653.125 248.061 650.907 246.735 652.329Z" fill="url(#paint7_linear_984_1426)"/>
<path opacity="0.8" d="M625.824 634.266L601.038 660.848L576.253 687.431L562.261 702.437C561.486 703.267 562.681 704.562 563.455 703.732L588.241 677.15L613.027 650.568L627.019 635.562C627.793 634.731 626.598 633.436 625.824 634.266Z" fill="url(#paint8_linear_984_1426)"/>
<circle cx="319.422" cy="712.863" r="1.5" transform="rotate(90 319.422 712.863)" fill="#D9D9D9"/>
<circle cx="217.5" cy="565.5" r="1.5" transform="rotate(90 217.5 565.5)" fill="#D9D9D9"/>
<circle cx="320.5" cy="612.5" r="1.5" transform="rotate(90 320.5 612.5)" fill="#D9D9D9"/>
<circle cx="246.422" cy="645.863" r="1.5" transform="rotate(90 246.422 645.863)" fill="#D9D9D9"/>
<circle cx="110.422" cy="781.863" r="1.5" transform="rotate(90 110.422 781.863)" fill="#D9D9D9"/>
<circle cx="596.422" cy="401.863" r="1.5" transform="rotate(90 596.422 401.863)" fill="#3F3D56"/>
<circle cx="477.422" cy="679.863" r="1.5" transform="rotate(90 477.422 679.863)" fill="#D9D9D9"/>
<circle cx="365.422" cy="492.863" r="1.5" transform="rotate(90 365.422 492.863)" fill="#D9D9D9"/>
<circle cx="586.422" cy="760.863" r="1.5" transform="rotate(90 586.422 760.863)" fill="#D9D9D9"/>
<circle cx="572.422" cy="756.863" r="1.5" transform="rotate(90 572.422 756.863)" fill="#D9D9D9"/>
<circle cx="427.422" cy="611.862" r="1.5" transform="rotate(90 427.422 611.862)" fill="#D9D9D9"/>
<circle cx="750.422" cy="485.863" r="1.5" transform="rotate(90 750.422 485.863)" fill="#D9D9D9"/>
<circle cx="593.422" cy="485.863" r="1.5" transform="rotate(90 593.422 485.863)" fill="#D9D9D9"/>
<circle cx="668.422" cy="626.863" r="1.5" transform="rotate(90 668.422 626.863)" fill="#D9D9D9"/>
<circle cx="628.422" cy="628.863" r="1.5" transform="rotate(90 628.422 628.863)" fill="#D9D9D9"/>
<circle cx="575.422" cy="769.863" r="1.5" transform="rotate(90 575.422 769.863)" fill="#3F3D56"/>
<circle cx="392.5" cy="777.499" r="7.5" transform="rotate(90 392.5 777.499)" fill="#3F3D56"/>
<circle cx="856.422" cy="724.863" r="5.5" transform="rotate(90 856.422 724.863)" fill="#D9D9D9"/>
</g>
<defs>
<linearGradient id="paint0_linear_984_1426" x1="680.652" y1="332.837" x2="734.076" y2="327.898" gradientUnits="userSpaceOnUse">
<stop stop-color="white"/>
<stop offset="1" stop-color="white" stop-opacity="0.3"/>
</linearGradient>
<linearGradient id="paint1_linear_984_1426" x1="394.517" y1="69.1897" x2="427.765" y2="66.116" gradientUnits="userSpaceOnUse">
<stop stop-color="white"/>
<stop offset="1" stop-color="white" stop-opacity="0.3"/>
</linearGradient>
<linearGradient id="paint2_linear_984_1426" x1="133.517" y1="248.327" x2="166.765" y2="245.254" gradientUnits="userSpaceOnUse">
<stop stop-color="white"/>
<stop offset="1" stop-color="white" stop-opacity="0.3"/>
</linearGradient>
<linearGradient id="paint3_linear_984_1426" x1="149.415" y1="298.086" x2="162.786" y2="296.85" gradientUnits="userSpaceOnUse">
<stop stop-color="white"/>
<stop offset="1" stop-color="white" stop-opacity="0.3"/>
</linearGradient>
<linearGradient id="paint4_linear_984_1426" x1="918.626" y1="87.4231" x2="943.448" y2="85.1284" gradientUnits="userSpaceOnUse">
<stop stop-color="white"/>
<stop offset="1" stop-color="white" stop-opacity="0.3"/>
</linearGradient>
<linearGradient id="paint5_linear_984_1426" x1="407.058" y1="528.535" x2="898.48" y2="971.363" gradientUnits="userSpaceOnUse">
<stop stop-color="#84ADE9"/>
<stop offset="1" stop-color="#3B80E5"/>
</linearGradient>
<linearGradient id="paint6_linear_984_1426" x1="632.867" y1="768.058" x2="521.101" y2="768.058" gradientUnits="userSpaceOnUse">
<stop stop-color="white"/>
<stop offset="1" stop-color="white" stop-opacity="0.3"/>
</linearGradient>
<linearGradient id="paint7_linear_984_1426" x1="249.211" y1="711.813" x2="137.445" y2="711.813" gradientUnits="userSpaceOnUse">
<stop stop-color="white"/>
<stop offset="1" stop-color="white" stop-opacity="0.3"/>
</linearGradient>
<linearGradient id="paint8_linear_984_1426" x1="627.27" y1="668.999" x2="562.01" y2="668.999" gradientUnits="userSpaceOnUse">
<stop stop-color="white"/>
<stop offset="1" stop-color="white" stop-opacity="0.3"/>
</linearGradient>
<clipPath id="clip0_984_1426">
<rect width="839" height="975" fill="white" transform="translate(0 839) rotate(-90)"/>
</clipPath>
</defs>
</svg>
