<svg width="957" height="721" viewBox="0 0 957 721" fill="none" xmlns="http://www.w3.org/2000/svg">
<rect width="957" height="721" fill="white"/>
<path d="M214.536 74.4792C213.004 74.4792 211.763 73.2372 211.763 71.7052C211.763 70.1731 213.004 68.9312 214.536 68.9312C216.067 68.9312 217.309 70.1731 217.309 71.7052C217.309 73.2372 216.067 74.4792 214.536 74.4792Z" fill="#F0F0F0"/>
<path d="M239.504 25.0671C237.973 25.0671 236.731 23.8251 236.731 22.2931C236.731 20.761 237.973 19.519 239.504 19.519C241.036 19.519 242.277 20.761 242.277 22.2931C242.277 23.8251 241.036 25.0671 239.504 25.0671Z" fill="#F0F0F0"/>
<path d="M602.976 191.903C561.755 165.291 504.98 175.631 464.819 203.828C451.713 213.156 439.675 223.901 428.924 235.869C422.654 242.748 416.71 249.97 411.025 257.441C409.624 259.274 408.23 261.126 406.863 262.995C405.928 264.259 405 265.532 404.08 266.814C392.55 282.847 381.979 299.714 371.631 316.428C345.798 358.151 319.291 401.116 279.93 430.41C271.821 436.443 260.507 441.877 252.199 436.115C244.989 431.112 244.68 420.591 246.321 411.969C252.421 380.025 274.426 353.553 297.802 330.955C321.179 308.358 347.058 287.64 364.721 260.334C382.384 233.028 390.454 196.574 374.983 167.976C361.649 143.332 332.962 129.508 304.96 128.864C276.961 128.226 249.757 139.114 226.068 154.065C202.38 169.022 181.552 188.001 159.814 205.672C146.711 216.333 128.415 226.911 114.135 217.885C102.073 210.257 101.132 191.944 108.32 179.615C115.509 167.285 128.339 159.536 140.64 152.31C178.829 129.867 217.018 107.425 255.209 84.9858C266.925 78.1073 278.897 71.0089 287.546 60.5202C296.197 50.0376 300.999 35.3046 296.231 22.5752C291.527 10.0307 278.388 2.06506 265.096 0.402697C251.812 -1.25583 238.414 2.42894 225.987 7.42012C179.42 26.129 69.7706 148.525 40.547 169.451C21.7665 182.891 2.03798 199.906 0.138676 222.927C-2.22743 251.586 26.2774 275.369 54.8889 278.149C83.4965 280.937 111.224 268.493 136.785 255.337C162.346 242.181 188.433 227.675 217.124 225.849C245.815 224.023 278.005 239.365 284.806 267.307C290.721 291.62 275.685 316.708 256.099 332.265C240.768 344.445 222.776 352.556 205.396 361.677C200.57 364.202 195.795 366.813 191.137 369.604C179.212 376.764 168.066 385.147 157.878 394.618C147.183 404.544 137.582 415.589 129.241 427.563C122.585 437.105 116.778 447.211 111.886 457.766C111.141 459.379 110.417 461.013 109.714 462.671C109.049 464.255 108.405 465.86 107.794 467.481C99.8168 488.503 96.7093 512.06 106.9 531.684C117.065 551.255 139.082 562.844 161.067 564.451C173.783 565.21 186.527 563.525 198.611 559.489C207.497 556.601 216.099 552.903 224.309 548.44C262.372 528.001 292.506 495.592 320.027 462.275C347.54 428.959 373.449 393.881 406.113 365.6C438.775 337.313 479.706 315.928 522.908 316.252C566.108 316.571 610.642 342.903 622.912 384.34C640.796 353.511 652.889 318.367 651.292 282.763C649.696 247.158 632.911 211.233 602.976 191.903Z" fill="#1F6FE3"/>
<path d="M435.375 307.092C432.754 307.092 430.629 304.966 430.629 302.344C430.629 299.721 432.754 297.596 435.375 297.596C437.996 297.596 440.121 299.721 440.121 302.344C440.121 304.966 437.996 307.092 435.375 307.092Z" fill="#6C63FF"/>
<path d="M614.24 313.88C610.187 313.88 606.902 310.593 606.902 306.539C606.902 302.485 610.187 299.198 614.24 299.198C618.293 299.198 621.578 302.485 621.578 306.539C621.578 310.593 618.293 313.88 614.24 313.88Z" fill="#FF6584"/>
<path d="M83.859 248.927C82.3616 248.927 81.1476 247.712 81.1476 246.214C81.1476 244.716 82.3616 243.502 83.859 243.502C85.3564 243.502 86.5703 244.716 86.5703 246.214C86.5703 247.712 85.3564 248.927 83.859 248.927Z" fill="#FF6584"/>
<path d="M138.722 103.149C137.225 103.149 136.011 101.935 136.011 100.437C136.011 98.9385 137.225 97.7241 138.722 97.7241C140.22 97.7241 141.434 98.9385 141.434 100.437C141.434 101.935 140.22 103.149 138.722 103.149Z" fill="#FF6584"/>
<path d="M208.481 367.994C207.712 365.771 206.675 363.65 205.393 361.677C200.566 364.202 195.791 366.813 191.133 369.604C179.209 376.764 168.062 385.147 157.874 394.618C161.975 400.193 167.938 404.112 174.68 405.663C181.423 407.215 188.498 406.297 194.622 403.075C200.745 399.854 205.511 394.543 208.054 388.106C210.597 381.669 210.749 374.533 208.481 367.994Z" fill="#FF6584"/>
<path d="M554.274 279.721C552.742 279.721 551.501 278.479 551.501 276.947C551.501 275.415 552.742 274.173 554.274 274.173C555.805 274.173 557.047 275.415 557.047 276.947C557.047 278.479 555.805 279.721 554.274 279.721Z" fill="#F0F0F0"/>
<path d="M43.1528 209.256C41.6214 209.256 40.3799 208.014 40.3799 206.482C40.3799 204.95 41.6214 203.708 43.1528 203.708C44.6843 203.708 45.9258 204.95 45.9258 206.482C45.9258 208.014 44.6843 209.256 43.1528 209.256Z" fill="#F0F0F0"/>
<path d="M188.813 213.241C187.282 213.241 186.04 211.999 186.04 210.467C186.04 208.935 187.282 207.693 188.813 207.693C190.344 207.693 191.586 208.935 191.586 210.467C191.586 211.999 190.344 213.241 188.813 213.241Z" fill="#F0F0F0"/>
<path d="M266.106 477.832C264.574 477.832 263.333 476.59 263.333 475.058C263.333 473.526 264.574 472.284 266.106 472.284C267.637 472.284 268.879 473.526 268.879 475.058C268.879 476.59 267.637 477.832 266.106 477.832Z" fill="#F0F0F0"/>
<path d="M353.247 217.614C351.715 217.614 350.474 216.372 350.474 214.84C350.474 213.308 351.715 212.066 353.247 212.066C354.778 212.066 356.02 213.308 356.02 214.84C356.02 216.372 354.778 217.614 353.247 217.614Z" fill="#F0F0F0"/>
<path d="M357.133 165.159C355.602 165.159 354.36 163.917 354.36 162.385C354.36 160.853 355.602 159.611 357.133 159.611C358.665 159.611 359.906 160.853 359.906 162.385C359.906 163.917 358.665 165.159 357.133 165.159Z" fill="#F0F0F0"/>
<path d="M205.125 486.857C200.554 473.618 192.902 461.656 182.801 451.957C181.468 450.679 180.096 449.445 178.686 448.254C164.722 436.437 147.457 429.212 129.241 427.563C122.585 437.105 116.777 447.211 111.885 457.766C111.14 459.379 110.416 461.014 109.714 462.671C109.048 464.255 108.404 465.86 107.793 467.481C99.8158 488.503 96.7083 512.06 106.899 531.684C117.064 551.255 139.081 562.844 161.066 564.451C173.782 565.21 186.526 563.526 198.61 559.489C205.154 547.875 209.001 534.936 209.865 521.632C209.975 519.958 210.028 518.282 210.045 516.598C210.116 506.476 208.452 496.416 205.125 486.857Z" fill="#6EACF6"/>
<path d="M241.827 469.28C237.373 456.442 220.711 448.885 194.901 447.991C189.736 447.809 184.056 449.958 178.687 448.254C152.638 439.991 129.005 445.391 109.714 462.671C109.049 464.255 108.404 465.86 107.793 467.481C108.05 467.385 108.309 467.295 108.567 467.205C134.635 458.155 160.511 452.873 182.802 451.957C186.92 451.791 191.833 449.407 194.767 451.904C218.33 471.965 234.267 463.56 238.131 470.564C243.774 480.794 233.762 496.734 215.645 512.085C213.853 513.605 211.986 515.109 210.045 516.598C210.029 518.282 209.975 519.958 209.866 521.632C212.788 519.471 215.557 517.285 218.173 515.074C237.881 498.377 246.279 482.113 241.827 469.28Z" fill="#E4E4E4"/>
<path d="M144.2 560.211C142.668 560.211 141.427 558.969 141.427 557.437C141.427 555.905 142.668 554.663 144.2 554.663C145.731 554.663 146.973 555.905 146.973 557.437C146.973 558.969 145.731 560.211 144.2 560.211Z" fill="#F0F0F0"/>
<path d="M193.258 524.532C191.727 524.532 190.485 523.29 190.485 521.758C190.485 520.226 191.727 518.984 193.258 518.984C194.79 518.984 196.031 520.226 196.031 521.758C196.031 523.29 194.79 524.532 193.258 524.532Z" fill="#F0F0F0"/>
<path d="M155.726 532.07C140.833 532.07 128.76 519.993 128.76 505.094C128.76 490.196 140.833 478.118 155.726 478.118C170.618 478.118 182.691 490.196 182.691 505.094C182.691 519.993 170.618 532.07 155.726 532.07Z" fill="#F0F0F0"/>
<path opacity="0.3" d="M579.387 206.873C573.083 207.169 560.046 210.301 545.918 214.349C531.799 218.402 516.484 223.346 501.365 228.236C474.897 236.79 448.431 245.341 421.966 253.89C418.328 255.063 414.679 256.247 411.021 257.441C409.62 259.274 408.226 261.125 406.859 262.995C410.075 261.858 413.304 260.758 416.523 259.709C430.276 255.238 442.21 252.289 455.558 248.221C476.099 241.967 497.769 233.752 518.787 226.103C539.802 218.448 563.914 210.208 579.387 206.873Z" fill="#F0F0F0"/>
<path opacity="0.3" d="M108.79 152.567L49.2589 251.431L105.432 150.601C105.497 150.281 105.638 149.981 105.843 149.726C106.047 149.471 106.309 149.269 106.608 149.135C106.906 149.002 107.232 148.942 107.558 148.96C107.884 148.978 108.201 149.074 108.483 149.239C108.765 149.404 109.004 149.634 109.179 149.909C109.354 150.185 109.461 150.499 109.491 150.824C109.521 151.15 109.473 151.477 109.351 151.781C109.229 152.084 109.037 152.353 108.79 152.567Z" fill="#F0F0F0"/>
<path d="M137.821 444.334C136.289 444.334 135.048 443.092 135.048 441.56C135.048 440.028 136.289 438.786 137.821 438.786C139.352 438.786 140.594 440.028 140.594 441.56C140.594 443.092 139.352 444.334 137.821 444.334Z" fill="#F0F0F0"/>
<path d="M624.196 435.178C614.378 435.178 606.419 427.216 606.419 417.394C606.419 407.572 614.378 399.61 624.196 399.61C634.014 399.61 641.973 407.572 641.973 417.394C641.973 427.216 634.014 435.178 624.196 435.178Z" fill="#FF6584"/>
<path d="M605.114 440.18H643.275C644.549 440.178 645.771 439.671 646.672 438.769C647.574 437.868 648.081 436.645 648.082 435.37V421.648C648.081 420.373 647.574 419.15 646.672 418.249C645.771 417.347 644.549 416.84 643.275 416.838H605.114C603.839 416.84 602.617 417.347 601.716 418.249C600.815 419.15 600.308 420.373 600.307 421.648V435.37C600.308 436.645 600.815 437.868 601.716 438.769C602.617 439.671 603.839 440.178 605.114 440.18Z" fill="#3F3D56"/>
<path d="M818.034 335.444C816.757 335.094 815.571 334.469 814.562 333.611C813.552 332.754 812.743 331.685 812.19 330.481C811.638 329.277 811.357 327.966 811.366 326.641C811.375 325.316 811.674 324.009 812.242 322.812L789.301 300.217L805.662 296.725L824.939 318.717C826.886 319.806 828.365 321.571 829.098 323.678C829.83 325.784 829.765 328.087 828.913 330.149C828.062 332.211 826.485 333.888 824.479 334.864C822.474 335.84 820.181 336.046 818.034 335.444Z" fill="#FFB6B6"/>
<path d="M789.744 158.831C816.714 158.831 838.578 136.96 838.578 109.982C838.578 83.0026 816.714 61.1318 789.744 61.1318C762.774 61.1318 740.91 83.0026 740.91 109.982C740.91 136.96 762.774 158.831 789.744 158.831Z" fill="#5193F2"/>
<path d="M782.42 162.495C809.39 162.495 831.254 140.624 831.254 113.645C831.254 86.6662 809.39 64.7954 782.42 64.7954C755.45 64.7954 733.586 86.6662 733.586 113.645C733.586 140.624 755.45 162.495 782.42 162.495Z" fill="#5193F2"/>
<path d="M836.136 648.483L790.363 648.481V647.902C790.364 643.176 792.241 638.643 795.582 635.301C798.923 631.959 803.454 630.081 808.179 630.081L816.541 623.736L832.141 630.082L836.136 630.082L836.136 648.483Z" fill="#5193F2"/>
<path d="M814.83 623.753L775.723 647.546L775.422 647.052C772.967 643.013 772.216 638.165 773.334 633.573C774.453 628.98 777.349 625.021 781.385 622.564L785.233 612.796L801.857 610.109L805.271 608.032L814.83 623.753Z" fill="#5193F2"/>
<path d="M841.713 494.026C841.506 495.491 841.201 500.474 840.847 507.728C839.125 542.9 836.134 631.452 836.134 631.452L817.492 625.651C817.492 625.651 795.321 558.752 798.984 522.114L796.347 509.365L791.829 487.578V487.565L778.071 421.215C778.071 421.215 775.055 439.192 774.811 443.405C774.567 447.619 772.125 448.84 770.904 448.84C764.788 448.84 766.668 447.753 767.559 453.798C768.206 458.146 762.908 483.071 759.88 496.7C758.708 502.001 757.878 505.591 757.878 505.591L763.054 516.753L805.967 609.323L789.742 618.019L725.012 522.053L718.627 512.589L717.26 501.976L706.492 418.48C706.492 418.48 703.135 409.04 706.492 408.795C709.862 408.539 711.766 409.601 710.814 406.023C709.862 402.433 729.395 342.592 729.395 342.592L830.726 364.574C830.726 364.574 840.712 384.432 836.83 393.884C832.935 403.336 840.016 476.538 835.975 479.786C831.947 483.035 829.346 480.433 834.913 486.014C835.765 486.903 836.77 487.632 837.88 488.164C841.323 489.727 842.69 487.187 841.713 494.026Z" fill="#3F3D56"/>
<path d="M782.105 144.079C797.65 144.079 810.252 131.473 810.252 115.922C810.252 100.372 797.65 87.7656 782.105 87.7656C766.559 87.7656 753.957 100.372 753.957 115.922C753.957 131.473 766.559 144.079 782.105 144.079Z" fill="#FFB6B6"/>
<path d="M804.036 140.172L792.878 142.309C792.878 142.309 803.255 125.554 802.645 117.884C802.034 110.215 793.684 107.467 793.684 107.467C793.684 107.467 789.057 108.468 784.185 109.03C783.602 107.387 782.845 105.811 781.927 104.328C781.746 106.242 780.899 108.032 779.534 109.384C777.749 109.538 775.951 109.33 774.248 108.774C772.319 107.894 772.355 106.368 772.99 104.939C766.703 105.458 760.568 107.144 754.897 109.909C754.617 106.16 754.76 102.391 755.325 98.674C755.593 98.6008 755.862 98.5154 756.13 98.4298C757.794 97.9032 759.398 97.2033 760.916 96.3415C759.227 96.1172 757.649 95.3748 756.399 94.2165C757.424 91.2122 759.06 88.611 761.636 87.3409C764.122 86.125 766.839 85.4576 769.605 85.3839C772.37 85.3101 775.12 85.8318 777.666 86.9135C777.666 86.9135 771.696 82.5536 773.894 80.7706C774.04 80.9172 774.187 81.0515 774.345 81.1858C774.553 81.3567 774.785 81.54 775.005 81.711C776.36 82.8101 778.386 81.2591 778.655 79.5982C778.684 79.3885 778.725 79.1805 778.777 78.9754C778.814 78.8044 778.863 78.6334 778.911 78.4747C778.953 78.3338 779.002 78.1952 779.058 78.0595C783.123 77.0825 795.417 81.0515 800.142 89.7956C800.142 89.7956 833.166 105.672 804.036 140.172Z" fill="#3F3D56"/>
<path d="M793.839 391.211C793.432 388.398 794.138 385.538 795.807 383.238C797.477 380.938 799.977 379.381 802.777 378.897C803.347 378.807 803.924 378.765 804.502 378.771L833.933 310.404L854.122 325.567L814.813 390.334C814.603 392.728 813.607 394.985 811.981 396.753C810.354 398.521 808.188 399.7 805.82 400.107C804.471 400.326 803.092 400.276 801.761 399.962C800.431 399.647 799.176 399.074 798.067 398.274C796.959 397.474 796.018 396.464 795.3 395.301C794.582 394.137 794.099 392.844 793.881 391.494C793.866 391.4 793.852 391.305 793.839 391.211Z" fill="#FFB6B6"/>
<path d="M711.394 396.783C713.375 394.745 714.482 392.015 714.481 389.173C714.48 386.331 713.37 383.602 711.388 381.566C710.978 381.158 710.536 380.785 710.065 380.451L726.369 307.823L701.126 308.239L694.931 383.755C693.696 385.816 693.177 388.227 693.457 390.614C693.736 393.001 694.797 395.228 696.474 396.948C697.438 397.917 698.584 398.687 699.845 399.214C701.106 399.741 702.459 400.014 703.826 400.017C705.193 400.021 706.547 399.755 707.812 399.236C709.076 398.716 710.225 397.952 711.195 396.988C711.262 396.92 711.329 396.852 711.394 396.783Z" fill="#FFB6B6"/>
<path d="M874.069 275.203C870.406 280.088 865.523 274.58 870.406 281.615C873.764 286.451 854.523 331.783 842.205 359.554C836.638 372.121 832.475 381.097 832.475 381.097L811.708 369.068L809.278 367.663C809.278 367.663 828.324 319.717 834.452 302.486C835.466 299.628 836.137 297.613 836.296 296.807C837.443 291.079 837.59 286.17 836.296 284.35C835.99 283.672 835.729 282.974 835.514 282.262C833.061 275.069 825.589 250.778 818.593 227.807C816.555 221.065 814.54 214.446 812.709 208.401C808.009 192.879 804.48 181.167 804.48 181.167L832.56 182.389C832.56 182.389 833.024 183.17 833.842 184.587C835.795 187.958 839.8 194.906 844.439 203.26C847.784 209.268 851.471 216.022 854.95 222.665C863.814 239.567 871.444 255.846 869.186 258.106C864.302 262.991 859.309 260.219 865.462 266.483C871.627 272.761 877.731 270.318 874.069 275.203Z" fill="#5193F2"/>
<path d="M840.489 340.151C833.164 332.896 834.519 299.837 834.519 299.837C834.519 299.837 841.808 188.826 831.943 181.389C825.123 176.465 817.865 172.176 810.261 168.578C809.822 168.383 809.59 168.273 809.59 168.273L803.29 150.504L764.479 148.489L757.704 161.654C757.704 161.654 756.642 161.727 754.981 161.959C748.779 162.814 734.202 165.843 735.496 175.283C737.132 187.251 725.583 260.758 722.067 264.434C718.551 268.109 719.479 281.543 728.171 290.08C736.864 298.616 730.613 321.832 724.509 331.602C720.845 337.582 719.154 344.563 719.674 351.557C719.674 351.557 724.509 378.009 736.717 369.46C741.369 366.2 747.973 365.785 755.921 366.383C755.999 366.389 756.083 366.399 756.16 366.405L755.921 367.604C766.958 368.422 780.595 371.195 795.184 371.036L794.752 369.809C794.897 369.808 795.038 369.816 795.184 369.815C797.65 369.79 800.128 369.68 802.643 369.46C824.399 367.568 834.007 373.551 836.827 367.018C839.647 360.484 847.814 347.405 840.489 340.151Z" fill="#5193F2"/>
<path opacity="0.3" d="M784.879 148.485C805.107 148.485 821.505 132.081 821.505 111.847C821.505 91.613 805.107 75.21 784.879 75.21C764.652 75.21 748.254 91.613 748.254 111.847C748.254 132.081 764.652 148.485 784.879 148.485Z" fill="#6EACF6"/>
<path d="M764.802 168.956C764.802 168.956 759.235 187.445 752.752 208.78C750.713 215.497 748.577 222.495 746.501 229.297C739.726 251.414 733.548 271.345 732.974 272.138C731.68 273.958 731.839 278.867 732.974 284.595C733.206 285.743 732.681 290.213 731.693 296.624C730.398 305.039 728.311 316.787 726.089 328.78C724.319 338.366 722.463 348.1 720.864 356.392C718.361 369.264 716.493 378.655 716.493 378.655H693.297C693.297 378.655 697.655 281.31 702.539 274.288C707.422 267.254 702.539 272.761 698.876 267.876C695.214 262.991 701.318 265.434 707.471 259.157C713.624 252.892 708.643 255.664 703.76 250.779C701.953 248.972 705.994 237.455 711.805 223.667C714.515 217.268 717.604 210.368 720.656 203.724C726.968 190.01 733.158 177.395 735.612 172.412C735.612 172.4 735.624 172.387 735.624 172.375L736.722 170.177L764.802 168.956Z" fill="#5193F2"/>
<path d="M815.381 173.486C789.891 183.39 766.973 185.097 748.234 173.486V151.503C770.303 164.75 792.694 164.387 815.381 151.503V173.486Z" fill="#3F3D56"/>
<path d="M834.917 313.929C795.523 323.833 760.104 325.54 731.145 313.929V291.947C765.251 305.193 799.855 304.831 834.917 291.947V313.929Z" fill="#3F3D56"/>
<path d="M841.716 494.025C841.508 495.491 841.203 500.473 840.849 507.728C826.14 510.112 811.193 510.661 796.349 509.364L791.832 487.577C807.041 490.355 822.608 490.553 837.882 488.163C841.325 489.727 842.693 487.186 841.716 494.025Z" fill="#E4E4E4"/>
<path d="M763.056 516.753C750.538 519.54 737.816 521.312 725.014 522.053L718.629 512.589L717.262 501.976C731.652 502.347 746.016 500.569 759.882 496.7C758.71 502 757.879 505.591 757.879 505.591L763.056 516.753Z" fill="#E4E4E4"/>
<path d="M762.731 252.11H754.208L768.64 223.019H779.435L784.208 252.11H775.685L772.844 231.031H772.617L762.731 252.11ZM763.072 240.633H779.094L778.072 246.542H762.049L763.072 240.633Z" fill="#E4E4E4"/>
<path d="M777.05 195.72C776.181 195.648 775.312 195.624 774.418 195.624C763.905 195.637 753.796 199.678 746.169 206.919C738.542 214.159 733.977 224.047 733.412 234.551C733.387 235.251 733.363 235.976 733.363 236.701C733.363 237.692 733.387 238.658 733.484 239.625C734.091 248.226 737.391 256.418 742.914 263.037C748.437 269.657 755.903 274.368 764.253 276.502C772.603 278.636 781.412 278.085 789.432 274.927C797.451 271.768 804.272 266.164 808.928 258.907C809.863 257.475 810.703 255.981 811.44 254.437C814.343 248.378 815.716 241.699 815.437 234.986C815.159 228.273 813.238 221.73 809.842 215.933C806.447 210.136 801.682 205.262 795.964 201.737C790.247 198.213 783.752 196.147 777.05 195.72ZM805.402 258.207C801.615 262.764 796.881 266.443 791.531 268.988C786.181 271.533 780.342 272.884 774.418 272.946C765.597 272.933 757.083 269.705 750.469 263.865C743.855 258.026 739.594 249.975 738.483 241.22C738.289 239.721 738.192 238.212 738.193 236.701C738.189 236.491 738.197 236.282 738.217 236.073C738.383 226.574 742.269 217.52 749.039 210.859C755.81 204.198 764.923 200.462 774.418 200.456C774.635 201.036 774.853 201.592 775.094 202.123C785.406 226.528 807.769 224.692 810.643 236.701C812.033 242.506 811.188 248.623 808.276 253.833C807.458 255.378 806.495 256.842 805.402 258.207Z" fill="#E4E4E4"/>
</svg>
