<svg width="2784" height="1167" viewBox="0 0 2784 1167" fill="none" xmlns="http://www.w3.org/2000/svg">
<path d="M860.849 881.639C732.603 1016.12 524.652 1037.95 370.019 934.893V934.893L273.569 871.619C158.395 796.061 103.742 655.825 137.416 522.258V522.258C140.174 511.319 144.788 500.934 151.056 491.555L222.806 384.198C232.34 369.934 244.602 357.697 258.888 348.195L370.123 274.2C374.322 271.407 378.067 267.985 381.226 264.054V264.054C447.095 182.114 563.701 162.106 653.117 217.401L806.867 312.481C815.785 317.996 823.756 324.913 830.473 332.964L851.665 358.367C961.337 489.83 979.269 675.059 896.851 825.118L880.699 854.526C875.284 864.385 868.612 873.499 860.849 881.639V881.639Z" fill="url(#paint0_linear_801_99)"/>
<rect x="864.011" y="260.973" width="38.4984" height="38.4984" transform="rotate(65.5189 864.011 260.973)" stroke="#4B87DF" stroke-width="6"/>
<rect x="798.577" y="250.973" width="23.7377" height="23.7377" transform="rotate(65.5189 798.577 250.973)" stroke="#4B87DF" stroke-width="6"/>
<circle cx="640" cy="787" r="61" stroke="#4B8EF0" stroke-width="24"/>
<circle cx="660" cy="729" r="15" fill="#6FA1EB"/>
<path d="M444.537 466.56L460.704 478.581C466.877 483.171 469.639 491.054 467.681 498.494L466.763 501.981C464.55 510.385 469.747 518.95 478.223 520.867V520.867C486.093 522.648 491.242 530.215 490.01 538.189L489.258 543.055C487.745 552.85 493.41 562.338 502.751 565.651L518.793 571.341" stroke="#6FA1EB" stroke-width="5"/>
<path d="M444.537 466.56L460.704 478.581C466.877 483.171 469.639 491.054 467.681 498.494L466.763 501.981C464.55 510.385 469.747 518.95 478.223 520.867V520.867C486.093 522.648 491.242 530.215 490.01 538.189L489.258 543.055C487.745 552.85 493.41 562.338 502.751 565.651L518.793 571.341" stroke="#6FA1EB" stroke-width="5"/>
<path d="M444.537 466.56L460.704 478.581C466.877 483.171 469.639 491.054 467.681 498.494L466.763 501.981C464.55 510.385 469.747 518.95 478.223 520.867V520.867C486.093 522.648 491.242 530.215 490.01 538.189L489.258 543.055C487.745 552.85 493.41 562.338 502.751 565.651L518.793 571.341" stroke="#6FA1EB" stroke-width="5"/>
<path d="M444.537 466.56L460.704 478.581C466.877 483.171 469.639 491.054 467.681 498.494L466.763 501.981C464.55 510.385 469.747 518.95 478.223 520.867V520.867C486.093 522.648 491.242 530.215 490.01 538.189L489.258 543.055C487.745 552.85 493.41 562.338 502.751 565.651L518.793 571.341" stroke="#4B87DF" stroke-width="5"/>
<path d="M414.886 483.226L431.054 495.247C437.227 499.838 439.989 507.72 438.03 515.16L437.112 518.647C434.899 527.051 440.096 535.616 448.573 537.533V537.533C456.443 539.314 461.592 546.881 460.36 554.855L459.608 559.721C458.094 569.516 463.759 579.004 473.1 582.317L489.143 588.007" stroke="#6FA1EB" stroke-width="5"/>
<path d="M414.886 483.226L431.054 495.247C437.227 499.838 439.989 507.72 438.03 515.16L437.112 518.647C434.899 527.051 440.096 535.616 448.573 537.533V537.533C456.443 539.314 461.592 546.881 460.36 554.855L459.608 559.721C458.094 569.516 463.759 579.004 473.1 582.317L489.143 588.007" stroke="#6FA1EB" stroke-width="5"/>
<path d="M414.886 483.226L431.054 495.247C437.227 499.838 439.989 507.72 438.03 515.16L437.112 518.647C434.899 527.051 440.096 535.616 448.573 537.533V537.533C456.443 539.314 461.592 546.881 460.36 554.855L459.608 559.721C458.094 569.516 463.759 579.004 473.1 582.317L489.143 588.007" stroke="#6FA1EB" stroke-width="5"/>
<path d="M414.886 483.226L431.054 495.247C437.227 499.838 439.989 507.72 438.03 515.16L437.112 518.647C434.899 527.051 440.096 535.616 448.573 537.533V537.533C456.443 539.314 461.592 546.881 460.36 554.855L459.608 559.721C458.094 569.516 463.759 579.004 473.1 582.317L489.143 588.007" stroke="#4B87DF" stroke-width="5"/>
<path d="M429.888 472.56L446.055 484.581C452.229 489.171 454.991 497.054 453.032 504.494L452.114 507.981C449.901 516.385 455.098 524.95 463.575 526.867V526.867C471.445 528.648 476.594 536.215 475.362 544.189L474.61 549.055C473.096 558.85 478.761 568.338 488.102 571.651L504.145 577.341" stroke="#6FA1EB" stroke-width="5"/>
<path d="M429.888 472.56L446.055 484.581C452.229 489.171 454.991 497.054 453.032 504.494L452.114 507.981C449.901 516.385 455.098 524.95 463.575 526.867V526.867C471.445 528.648 476.594 536.215 475.362 544.189L474.61 549.055C473.096 558.85 478.761 568.338 488.102 571.651L504.145 577.341" stroke="#6FA1EB" stroke-width="5"/>
<path d="M429.888 472.56L446.055 484.581C452.229 489.171 454.991 497.054 453.032 504.494L452.114 507.981C449.901 516.385 455.098 524.95 463.575 526.867V526.867C471.445 528.648 476.594 536.215 475.362 544.189L474.61 549.055C473.096 558.85 478.761 568.338 488.102 571.651L504.145 577.341" stroke="#6FA1EB" stroke-width="5"/>
<path d="M429.888 472.56L446.055 484.581C452.229 489.171 454.991 497.054 453.032 504.494L452.114 507.981C449.901 516.385 455.098 524.95 463.575 526.867V526.867C471.445 528.648 476.594 536.215 475.362 544.189L474.61 549.055C473.096 558.85 478.761 568.338 488.102 571.651L504.145 577.341" stroke="#4B87DF" stroke-width="5"/>
<defs>
<linearGradient id="paint0_linear_801_99" x1="327.521" y1="926.05" x2="788.478" y2="297.45" gradientUnits="userSpaceOnUse">
<stop stop-color="#0F67EA" stop-opacity="0.34"/>
<stop offset="1" stop-color="#0F67EA" stop-opacity="0.72"/>
</linearGradient>
</defs>
</svg>
