<svg width="2102" height="1868" viewBox="0 0 2102 1868" fill="none" xmlns="http://www.w3.org/2000/svg">
<g clip-path="url(#clip0_964_1377)">
<path d="M5.76981 867.993C42.6654 1192.36 235.453 1479.91 482.25 1666.88C502.279 1682.07 522.805 1696.64 543.826 1710.59C546.461 1712.35 549.097 1714.1 551.732 1715.81C698.385 1811.39 866.399 1872.61 1035.19 1853.51C1172.32 1838.02 1306.98 1758.78 1387.34 1640.41C1388.86 1638.19 1390.38 1635.9 1391.84 1633.64C1424.57 1584.33 1446.77 1527.7 1456.82 1467.89C1471.27 1379.36 1460.05 1281.46 1504.94 1205.93C1563.17 1107.93 1687.87 1091.97 1795.18 1095.64C1895.48 1099.04 1995.62 1110.83 2095.8 1116.96C2097.85 1117.09 2099.92 1117.19 2102 1117.33V76.4103C2101.98 56.1525 2094.56 36.7314 2081.37 22.407C2068.18 8.08258 2050.3 0.024392 2031.65 0H1595.32C1574.21 2.99714 1559.26 48.9982 1538.21 50.5136C1529.09 51.1872 1519.99 51.726 1510.89 52.1301C1463.05 54.2853 1415.28 53.3761 1367.56 50.5136C1339.69 48.8635 1305.61 2.76141 1277.77 0H472.081C466.066 2.15525 460.113 4.41152 454.16 6.73515C428.511 16.7748 403.453 28.5161 379.129 41.8927C110.752 189.696 -31.1258 543.628 5.76981 867.993Z" fill="#3F3D56"/>
<path d="M380.968 348.525C503.175 462.243 665.056 535.204 831.336 552.701C847.654 554.43 864.013 555.612 880.413 556.249C884.052 556.401 887.692 556.492 891.362 556.583C897.307 556.734 903.283 556.795 909.228 556.795C916.356 556.795 923.484 556.694 930.612 556.492C971.872 555.288 1012.97 550.796 1053.52 543.058C1055 542.755 1056.46 542.482 1057.95 542.179C1064.35 540.935 1070.72 539.601 1077.08 538.176C1089.28 535.477 1101.41 532.485 1113.48 529.2C1117.4 528.138 1121.31 527.047 1125.22 525.894C1130.83 524.287 1136.41 522.589 1141.99 520.86C1144.09 520.193 1146.18 519.556 1148.27 518.859C1150.4 518.192 1152.52 517.494 1154.64 516.766C1167.59 512.521 1180.44 507.912 1193.16 502.938C1265.66 474.937 1333.53 436.183 1394.48 387.978C1402.91 381.276 1411.46 374.24 1419.71 367.417C1464.06 330.846 1509.92 293.031 1565.82 284.783C1626.18 275.898 1684.18 303.372 1740.23 329.936C1759.25 338.943 1778.9 348.252 1798.35 356.046C1893.26 393.423 1997.86 398.422 2095.9 370.268C2097.93 369.722 2099.97 369.116 2101.97 368.509V362.171C2099.97 362.778 2097.93 363.384 2095.9 363.96C1998.68 392.257 1894.81 387.489 1800.59 350.405C1781.33 342.703 1761.74 333.424 1742.81 324.447C1685.94 297.489 1627.12 269.62 1564.94 278.778C1507.37 287.269 1460.84 325.63 1415.86 362.747C1407.61 369.54 1399.09 376.576 1390.72 383.247C1330.17 431.143 1262.74 469.634 1190.71 497.419H1190.68C1178.48 502.15 1166.14 506.608 1153.73 510.732C1151.94 511.308 1150.15 511.884 1148.36 512.491C1146.36 513.127 1144.33 513.764 1142.33 514.401C1137.2 516.039 1132.07 517.595 1126.92 519.071C1121.88 520.587 1116.82 522.023 1111.72 523.377H1111.69C1098.65 526.925 1085.53 530.13 1072.32 532.99C1066.35 534.324 1060.37 535.537 1054.34 536.69C1053.03 536.963 1051.7 537.205 1050.36 537.448C1011.46 544.787 972.057 549.106 932.492 550.366H932.462C918.722 550.791 905.002 550.841 891.302 550.518C887.722 550.427 884.174 550.306 880.625 550.184C865.125 549.578 849.646 548.486 834.187 546.909H834.156C668.393 529.958 506.906 457.421 385.093 344.068C384.501 343.524 383.718 343.238 382.915 343.271C382.112 343.304 381.355 343.653 380.81 344.243C380.264 344.832 379.974 345.614 380.004 346.416C380.034 347.219 380.38 347.977 380.968 348.525Z" fill="#6EACF6"/>
<path d="M1531.64 885.074C1533.12 879.227 1527.51 872.761 1519.1 870.632C1510.7 868.502 1502.68 871.515 1501.2 877.361C1499.72 883.207 1505.33 889.673 1513.74 891.803C1522.14 893.933 1530.16 890.92 1531.64 885.074Z" fill="white"/>
<path d="M1428.99 884.412C1430.47 878.566 1424.86 872.1 1416.45 869.97C1408.04 867.84 1400.03 870.853 1398.55 876.699C1397.06 882.546 1402.68 889.012 1411.08 891.141C1419.49 893.271 1427.51 890.258 1428.99 884.412Z" fill="#3F3D56"/>
<path d="M1550.91 970.221C1552.39 964.374 1546.77 957.909 1538.37 955.779C1529.96 953.649 1521.95 956.662 1520.46 962.508C1518.98 968.354 1524.6 974.821 1533 976.95C1541.41 979.08 1549.42 976.067 1550.91 970.221Z" fill="#FF6584"/>
<path d="M1574.83 1002.33C1575.44 996.882 1572.87 992.125 1569.08 991.701C1565.29 991.278 1561.72 995.349 1561.11 1000.79C1560.51 1006.24 1563.08 1011 1566.87 1011.42C1570.66 1011.84 1574.23 1007.77 1574.83 1002.33Z" fill="#E6E6E6"/>
<path d="M1583.28 1066.64C1583.88 1061.19 1581.31 1056.44 1577.52 1056.01C1573.73 1055.59 1570.16 1059.66 1569.56 1065.11C1568.95 1070.55 1571.52 1075.31 1575.31 1075.73C1579.1 1076.16 1582.67 1072.09 1583.28 1066.64Z" fill="#3F3D56"/>
<path d="M1478.33 944.08C1478.94 938.634 1476.36 933.877 1472.57 933.454C1468.78 933.03 1465.21 937.101 1464.61 942.547C1464 947.992 1466.58 952.75 1470.36 953.173C1474.15 953.596 1477.72 949.525 1478.33 944.08Z" fill="#E6E6E6"/>
<path d="M1529.99 924.676C1530.6 919.231 1528.02 914.474 1524.23 914.05C1520.44 913.627 1516.87 917.698 1516.27 923.144C1515.66 928.589 1518.24 933.347 1522.02 933.77C1525.81 934.193 1529.38 930.122 1529.99 924.676Z" fill="#FF6584"/>
<path d="M1466.34 872.256C1466.95 866.81 1464.37 862.053 1460.58 861.63C1456.8 861.206 1453.23 865.277 1452.62 870.723C1452.01 876.168 1454.59 880.926 1458.38 881.349C1462.17 881.772 1465.73 877.701 1466.34 872.256Z" fill="#3F3D56"/>
<path d="M151.538 166.379C153.02 160.533 147.407 154.067 139.001 151.937C130.595 149.807 122.579 152.82 121.097 158.666C119.615 164.513 125.228 170.978 133.635 173.108C142.041 175.238 150.056 172.225 151.538 166.379Z" fill="white"/>
<path d="M203.175 347.945C203.783 342.499 201.205 337.742 197.416 337.319C193.627 336.895 190.062 340.967 189.454 346.412C188.845 351.857 191.423 356.615 195.212 357.038C199.001 357.461 202.566 353.39 203.175 347.945Z" fill="#3F3D56"/>
<path d="M1917.82 254.392C1918.43 248.947 1915.85 244.19 1912.06 243.766C1908.28 243.343 1904.71 247.414 1904.1 252.86C1903.49 258.305 1906.07 263.062 1909.86 263.486C1913.65 263.909 1917.21 259.838 1917.82 254.392Z" fill="#3F3D56"/>
<path d="M480.375 600.718C487.076 600.718 492.508 595.287 492.508 588.588C492.508 581.889 487.076 576.458 480.375 576.458C473.674 576.458 468.242 581.889 468.242 588.588C468.242 595.287 473.674 600.718 480.375 600.718Z" fill="white"/>
<path d="M183.121 715.951C186.471 715.951 189.187 713.236 189.187 709.886C189.187 706.537 186.471 703.822 183.121 703.822C179.771 703.822 177.055 706.537 177.055 709.886C177.055 713.236 179.771 715.951 183.121 715.951Z" fill="white"/>
<path d="M1387.3 1167.79C1390.65 1167.79 1393.36 1165.07 1393.36 1161.72C1393.36 1158.37 1390.65 1155.66 1387.3 1155.66C1383.95 1155.66 1381.23 1158.37 1381.23 1161.72C1381.23 1165.07 1383.95 1167.79 1387.3 1167.79Z" fill="white"/>
<path d="M604.734 888.802C608.085 888.802 610.801 886.087 610.801 882.737C610.801 879.387 608.085 876.672 604.734 876.672C601.384 876.672 598.668 879.387 598.668 882.737C598.668 886.087 601.384 888.802 604.734 888.802Z" fill="white"/>
<path d="M713.93 255.016C717.28 255.016 719.996 252.301 719.996 248.951C719.996 245.602 717.28 242.886 713.93 242.886C710.579 242.886 707.863 245.602 707.863 248.951C707.863 252.301 710.579 255.016 713.93 255.016Z" fill="white"/>
<path d="M1705.78 488.516C1709.13 488.516 1711.85 485.801 1711.85 482.451C1711.85 479.102 1709.13 476.386 1705.78 476.386C1702.43 476.386 1699.71 479.102 1699.71 482.451C1699.71 485.801 1702.43 488.516 1705.78 488.516Z" fill="white"/>
<path d="M1399.43 142.815C1406.13 142.815 1411.56 137.384 1411.56 130.685C1411.56 123.986 1406.13 118.555 1399.43 118.555C1392.73 118.555 1387.3 123.986 1387.3 130.685C1387.3 137.384 1392.73 142.815 1399.43 142.815Z" fill="white"/>
<path d="M1942.36 1742.46H1936.3C1936.3 1707.46 1903.51 1673.22 1838.81 1640.69C1775.51 1608.85 1684.76 1580.22 1569.13 1555.63C1552.02 1551.99 1534.52 1548.47 1516.63 1545.07C1424.05 1527.48 1321.2 1513.08 1211.03 1502.13C1188.25 1499.86 1165.15 1497.75 1141.72 1495.79C1134.14 1495.13 1126.5 1494.52 1118.82 1493.88C1097.5 1492.22 1075.95 1490.66 1054.19 1489.21C940.563 1481.69 821.268 1477.6 699.151 1477.18C691.963 1477.11 684.744 1477.11 677.525 1477.11C518.495 1477.11 482.582 1492.13 480.459 1504.74C475.029 1536.64 658.962 1600.72 836.828 1662.73C1033.71 1731.33 1236.06 1801.86 1304.97 1861.93C1307.31 1863.97 1309.49 1866 1311.52 1868H1303.18C1300.97 1866 1298.57 1863.97 1296.02 1861.93C1223.26 1803.83 1019.15 1732.69 834.826 1668.43C607.519 1589.23 468.508 1538.89 474.453 1503.71C477.031 1488.49 502.449 1471.05 677.525 1471.05C683.258 1471.05 689.021 1471.05 694.753 1471.08C816.839 1471.41 936.135 1475.42 1049.88 1482.88C1072.11 1484.3 1094.12 1485.88 1115.91 1487.61C1124.01 1488.24 1132.08 1488.88 1140.12 1489.58C1164.14 1491.58 1187.85 1493.74 1211.24 1496.07C1324.32 1507.29 1429.79 1522.15 1524.36 1540.37C1540.01 1543.4 1555.36 1546.52 1570.4 1549.71C1810.27 1600.72 1942.36 1669.16 1942.36 1742.46Z" fill="#E6E6E6"/>
<path d="M1848.34 1727.84H1842.28C1842.28 1701.94 1736.45 1674.21 1578.92 1674.21C1421.39 1674.21 1315.57 1701.94 1315.57 1727.84H1309.5C1309.5 1690.47 1446.49 1668.15 1578.92 1668.15C1711.36 1668.15 1848.34 1690.47 1848.34 1727.84Z" fill="#E6E6E6"/>
<path d="M1742.49 1745.47H1736.43C1736.43 1730.85 1672.1 1714.55 1579.8 1714.55C1487.5 1714.55 1423.18 1730.85 1423.18 1745.47H1417.11C1417.11 1721.45 1500.93 1708.48 1579.8 1708.48C1658.67 1708.48 1742.49 1721.45 1742.49 1745.47Z" fill="#E6E6E6"/>
<path d="M1093.08 406.64C1160.08 406.64 1214.41 352.332 1214.41 285.341C1214.41 218.35 1160.08 164.042 1093.08 164.042C1026.07 164.042 971.75 218.35 971.75 285.341C971.75 352.332 1026.07 406.64 1093.08 406.64Z" fill="#F2F2F2"/>
<path d="M1074.88 415.737C1141.89 415.737 1196.21 361.43 1196.21 294.438C1196.21 227.447 1141.89 173.14 1074.88 173.14C1007.87 173.14 953.551 227.447 953.551 294.438C953.551 361.43 1007.87 415.737 1074.88 415.737Z" fill="#F2F2F2"/>
<path d="M1208.34 1622.49L1094.62 1622.49V1621.05C1094.62 1609.31 1099.28 1598.06 1107.58 1589.76C1115.88 1581.46 1127.14 1576.8 1138.88 1576.8L1159.66 1561.04L1198.41 1576.8L1208.34 1576.8L1208.34 1622.49Z" fill="#F2F2F2"/>
<path d="M1155.4 1561.09L1058.24 1620.17L1057.49 1618.94C1051.39 1608.91 1049.53 1596.87 1052.3 1585.47C1055.08 1574.07 1062.28 1564.23 1072.31 1558.13L1081.87 1533.88L1123.17 1527.21L1131.65 1522.05L1155.4 1561.09Z" fill="#F2F2F2"/>
<path d="M1222.2 1238.96C1221.69 1242.6 1220.93 1254.97 1220.05 1272.99C1215.77 1360.32 1208.34 1580.2 1208.34 1580.2L1162.02 1565.8C1162.02 1565.8 1106.94 1399.68 1116.04 1308.71L1109.49 1277.05L1098.27 1222.95V1222.92L1064.08 1058.17C1064.08 1058.17 1056.59 1102.8 1055.98 1113.27C1055.38 1123.73 1049.31 1126.76 1046.28 1126.76C1031.08 1126.76 1035.75 1124.06 1037.97 1139.07C1039.57 1149.87 1026.41 1211.76 1018.89 1245.6C1015.98 1258.76 1013.91 1267.68 1013.91 1267.68L1026.77 1295.4L1133.39 1525.26L1093.08 1546.85L932.26 1308.56L916.396 1285.05L912.999 1258.7L886.246 1051.37C886.246 1051.37 877.905 1027.93 886.246 1027.33C894.618 1026.69 899.35 1029.33 896.984 1020.44C894.618 1011.53 943.149 862.935 943.149 862.935L1194.9 917.52C1194.9 917.52 1219.72 966.828 1210.07 990.299C1200.39 1013.77 1217.99 1195.54 1207.95 1203.6C1197.94 1211.67 1191.48 1205.21 1205.31 1219.07C1207.42 1221.28 1209.92 1223.08 1212.68 1224.41C1221.23 1228.29 1224.63 1221.98 1222.2 1238.96Z" fill="#F2F2F2"/>
<path d="M1074.09 370.008C1112.71 370.008 1144.02 338.706 1144.02 300.093C1144.02 261.479 1112.71 230.177 1074.09 230.177C1035.47 230.177 1004.16 261.479 1004.16 300.093C1004.16 338.706 1035.47 370.008 1074.09 370.008Z" fill="#A0616A"/>
<path d="M1128.59 360.306L1100.87 365.613C1100.87 365.613 1126.65 324.008 1125.13 304.964C1123.61 285.92 1102.87 279.097 1102.87 279.097C1102.87 279.097 1091.37 281.583 1079.27 282.978C1077.82 278.898 1075.94 274.984 1073.66 271.303C1073.21 276.055 1071.1 280.499 1067.71 283.858C1063.28 284.239 1058.81 283.723 1054.58 282.342C1049.79 280.158 1049.88 276.368 1051.45 272.82C1035.83 274.108 1020.59 278.294 1006.5 285.162C1005.81 275.852 1006.16 266.493 1007.56 257.263C1008.23 257.081 1008.9 256.869 1009.57 256.657C1013.7 255.349 1017.69 253.611 1021.46 251.471C1017.26 250.914 1013.34 249.071 1010.23 246.195C1012.78 238.735 1016.85 232.276 1023.25 229.122C1029.42 226.103 1036.17 224.445 1043.04 224.262C1049.91 224.079 1056.74 225.374 1063.07 228.06C1063.07 228.06 1048.24 217.235 1053.7 212.807C1054.06 213.171 1054.43 213.505 1054.82 213.838C1055.34 214.263 1055.91 214.718 1056.46 215.142C1059.83 217.871 1064.86 214.02 1065.53 209.896C1065.6 209.375 1065.7 208.859 1065.83 208.349C1065.92 207.925 1066.04 207.5 1066.17 207.106C1066.27 206.756 1066.39 206.412 1066.53 206.075C1076.63 203.649 1107.17 213.505 1118.91 235.217C1118.91 235.217 1200.96 274.639 1128.59 360.306Z" fill="#3F3D56"/>
<path d="M1103.26 983.661C1102.24 976.676 1104 969.573 1108.15 963.862C1112.29 958.152 1118.51 954.284 1125.46 953.083C1126.88 952.861 1128.31 952.757 1129.75 952.771L1202.87 783.008L1253.03 820.659L1155.37 981.483C1154.84 987.427 1152.37 993.031 1148.33 997.421C1144.29 1001.81 1138.9 1004.74 1133.02 1005.75C1129.67 1006.29 1126.24 1006.17 1122.94 1005.39C1119.63 1004.61 1116.52 1003.18 1113.76 1001.2C1111.01 999.213 1108.67 996.704 1106.89 993.815C1105.1 990.927 1103.9 987.715 1103.36 984.363C1103.32 984.129 1103.29 983.895 1103.26 983.661Z" fill="#6EACF6"/>
<path d="M898.422 997.498C903.342 992.438 906.093 985.659 906.09 978.602C906.087 971.544 903.33 964.767 898.405 959.712C897.387 958.7 896.288 957.774 895.118 956.943L935.625 776.601L872.909 777.634L857.519 965.147C854.45 970.265 853.161 976.254 853.855 982.18C854.549 988.106 857.185 993.636 861.353 997.907C863.747 1000.31 866.593 1002.23 869.727 1003.53C872.861 1004.84 876.222 1005.52 879.618 1005.53C883.014 1005.54 886.379 1004.88 889.52 1003.59C892.661 1002.3 895.517 1000.4 897.925 998.006C898.093 997.839 898.258 997.67 898.422 997.498Z" fill="#6EACF6"/>
<path d="M1302.58 695.604C1293.48 707.733 1281.35 694.057 1293.48 711.524C1301.82 723.533 1254.02 836.098 1223.41 905.056C1209.58 936.26 1199.24 958.549 1199.24 958.549L1147.64 928.679L1141.61 925.192C1141.61 925.192 1188.93 806.137 1204.15 763.349C1206.67 756.253 1208.34 751.249 1208.73 749.248C1211.58 735.025 1211.95 722.835 1208.73 718.317C1207.97 716.633 1207.32 714.9 1206.79 713.131C1200.69 695.27 1182.13 634.954 1164.75 577.913C1159.69 561.174 1154.68 544.738 1150.13 529.728C1138.45 491.185 1129.69 462.104 1129.69 462.104L1199.45 465.136C1199.45 465.136 1200.6 467.077 1202.64 470.594C1207.49 478.964 1217.44 496.219 1228.96 516.961C1237.27 531.881 1246.43 548.65 1255.08 565.147C1277.1 607.116 1296.06 647.539 1290.45 653.149C1278.31 665.279 1265.91 658.395 1281.2 673.952C1296.51 689.539 1311.68 683.474 1302.58 695.604Z" fill="#F2F2F2"/>
<path d="M1219.16 856.873C1200.96 838.86 1204.33 756.771 1204.33 756.771C1204.33 756.771 1222.43 481.12 1197.93 462.652C1180.98 450.424 1162.95 439.776 1144.06 430.841C1142.97 430.356 1142.39 430.083 1142.39 430.083L1126.74 385.961L1030.31 380.957L1013.48 413.647C1013.48 413.647 1010.84 413.829 1006.71 414.405C991.306 416.528 955.09 424.049 958.305 447.49C962.369 477.208 933.675 659.732 924.94 668.86C916.204 677.987 918.509 711.345 940.106 732.542C961.702 753.738 946.172 811.386 931.006 835.645C921.904 850.494 917.702 867.828 918.995 885.196C918.995 885.196 931.006 950.879 961.338 929.652C972.894 921.555 989.304 920.524 1009.05 922.01C1009.24 922.024 1009.45 922.049 1009.64 922.064L1009.05 925.043C1036.47 927.074 1070.35 933.958 1106.6 933.564L1105.52 930.518C1105.88 930.515 1106.24 930.535 1106.6 930.531C1112.72 930.471 1118.88 930.198 1125.13 929.652C1179.18 924.952 1203.05 939.81 1210.06 923.587C1217.07 907.363 1237.36 874.886 1219.16 856.873Z" fill="#F2F2F2"/>
<path opacity="0.3" d="M1074.88 385.412C1125.13 385.412 1165.87 344.682 1165.87 294.438C1165.87 244.195 1125.13 203.464 1074.88 203.464C1024.62 203.464 983.883 244.195 983.883 294.438C983.883 344.682 1024.62 385.412 1074.88 385.412Z" fill="#6EACF6"/>
<path d="M1031.11 431.779C1031.11 431.779 1017.28 477.69 1001.17 530.668C996.108 547.346 990.8 564.722 985.643 581.613C968.809 636.531 953.461 686.021 952.036 687.992C948.82 692.51 949.215 704.701 952.036 718.923C952.612 721.774 951.308 732.873 948.851 748.793C945.636 769.687 940.449 798.859 934.928 828.638C930.53 852.443 925.92 876.612 921.946 897.202C915.728 929.164 911.088 952.484 911.088 952.484H853.457C853.457 952.484 864.286 710.766 876.418 693.329C888.551 675.862 876.418 689.539 867.319 677.409C858.219 665.279 873.385 671.344 888.672 655.757C903.96 640.201 891.584 647.084 879.451 634.954C874.962 630.466 885.002 601.87 899.44 567.634C906.174 551.743 913.848 534.61 921.431 518.114C937.112 484.059 952.491 452.734 958.587 440.361C958.587 440.331 958.618 440.3 958.618 440.27L961.348 434.812L1031.11 431.779Z" fill="#F2F2F2"/>
<path d="M1156.77 443.029C1093.44 467.622 1036.51 471.861 989.949 443.029V388.445C1044.78 421.336 1100.41 420.437 1156.77 388.445V443.029Z" fill="#3F3D56"/>
<path d="M1205.31 791.763C1107.43 816.356 1019.43 820.595 947.484 791.763V737.179C1032.22 770.07 1118.2 769.171 1205.31 737.179V791.763Z" fill="#3F3D56"/>
<path d="M1222.2 1238.96C1221.69 1242.6 1220.93 1254.97 1220.05 1272.99C1183.5 1278.91 1146.37 1280.27 1109.49 1277.05L1098.27 1222.95C1136.05 1229.85 1174.73 1230.34 1212.68 1224.41C1221.23 1228.29 1224.63 1221.98 1222.2 1238.96Z" fill="#3F3D56"/>
<path d="M1026.77 1295.4C995.675 1302.31 964.068 1306.72 932.261 1308.56L916.397 1285.05L913 1258.7C948.751 1259.62 984.44 1255.21 1018.89 1245.6C1015.98 1258.76 1013.91 1267.68 1013.91 1267.68L1026.77 1295.4Z" fill="#3F3D56"/>
<path d="M1024.45 649.045H997.181L1043.36 555.954H1077.91L1093.18 649.045H1065.91L1056.82 581.59H1056.09L1024.45 649.045ZM1025.54 612.318H1076.82L1073.54 631.227H1022.27L1025.54 612.318Z" fill="#6EACF6"/>
<path d="M1061.54 498.24C1059.38 498.06 1057.22 498 1055 498C1028.88 498.032 1003.76 508.069 984.816 526.047C965.867 544.024 954.525 568.578 953.12 594.66C953.06 596.4 953 598.2 953 600C953 602.46 953.06 604.86 953.3 607.26C954.809 628.618 963.006 648.959 976.728 665.395C990.45 681.832 1009 693.53 1029.74 698.829C1050.49 704.128 1072.38 702.76 1092.3 694.918C1112.22 687.075 1129.17 673.158 1140.74 655.14C1143.06 651.583 1145.15 647.874 1146.98 644.04C1154.19 628.996 1157.6 612.411 1156.91 595.741C1156.22 579.071 1151.45 562.826 1143.01 548.431C1134.58 534.036 1122.74 521.932 1108.53 513.181C1094.33 504.43 1078.19 499.3 1061.54 498.24ZM1131.98 653.4C1122.57 664.717 1110.81 673.852 1097.52 680.172C1084.23 686.491 1069.72 689.845 1055 690C1033.08 689.968 1011.93 681.951 995.499 667.451C979.066 652.951 968.48 632.961 965.72 611.22C965.237 607.499 964.997 603.752 965 600C964.99 599.479 965.01 598.958 965.06 598.44C965.472 574.853 975.127 552.371 991.947 535.831C1008.77 519.291 1031.41 510.015 1055 510C1055.54 511.44 1056.08 512.82 1056.68 514.14C1082.3 574.74 1137.86 570.18 1145 600C1148.45 614.415 1146.36 629.602 1139.12 642.54C1137.09 646.376 1134.7 650.012 1131.98 653.4Z" fill="#6EACF6"/>
<path d="M2012.48 305.353C2012.66 306.129 2012.98 306.868 2013.42 307.537V299.076C2012.31 300.97 2011.97 303.218 2012.48 305.353Z" fill="#FF6584"/>
<path d="M1988.54 337.473C1987.94 332.028 1990.51 327.271 1994.3 326.847C1998.09 326.424 2001.66 330.495 2002.27 335.941C2002.87 341.386 2000.3 346.143 1996.51 346.567C1992.72 346.99 1989.15 342.919 1988.54 337.473Z" fill="#E6E6E6"/>
<path d="M1980.1 401.785C1979.49 396.34 1982.07 391.583 1985.86 391.159C1989.65 390.736 1993.22 394.807 1993.82 400.253C1994.43 405.698 1991.85 410.455 1988.07 410.879C1984.28 411.302 1980.71 407.231 1980.1 401.785Z" fill="#3F3D56"/>
<path d="M1964.53 195.298C1963.05 189.452 1968.66 182.986 1977.07 180.856C1985.48 178.727 1993.49 181.739 1994.97 187.586C1996.45 193.432 1990.84 199.898 1982.44 202.028C1974.03 204.157 1966.01 201.145 1964.53 195.298Z" fill="#3F3D56"/>
<path d="M1842.61 281.107C1841.13 275.261 1846.75 268.795 1855.15 266.665C1863.56 264.535 1871.57 267.548 1873.05 273.394C1874.54 279.241 1868.92 285.707 1860.52 287.836C1852.11 289.966 1844.1 286.953 1842.61 281.107Z" fill="#FF6584"/>
<path d="M1818.68 313.214C1818.08 307.768 1820.65 303.011 1824.44 302.587C1828.23 302.164 1831.8 306.235 1832.41 311.681C1833.01 317.126 1830.44 321.884 1826.65 322.307C1822.86 322.73 1819.29 318.659 1818.68 313.214Z" fill="#E6E6E6"/>
<path d="M1915.19 254.966C1914.58 249.521 1917.16 244.763 1920.95 244.34C1924.74 243.917 1928.31 247.988 1928.91 253.433C1929.52 258.879 1926.94 263.636 1923.16 264.059C1919.37 264.483 1915.8 260.411 1915.19 254.966Z" fill="#E6E6E6"/>
<path d="M1863.53 235.563C1862.92 230.117 1865.5 225.36 1869.29 224.937C1873.08 224.513 1876.64 228.585 1877.25 234.03C1877.86 239.475 1875.28 244.233 1871.49 244.656C1867.71 245.079 1864.14 241.008 1863.53 235.563Z" fill="#FF6584"/>
<path d="M1718.07 202.721C1714.72 202.721 1712 200.005 1712 196.656C1712 193.306 1714.72 190.591 1718.07 190.591C1721.42 190.591 1724.13 193.306 1724.13 196.656C1724.13 200.005 1721.42 202.721 1718.07 202.721Z" fill="white"/>
</g>
<defs>
<clipPath id="clip0_964_1377">
<rect width="2102" height="1868" fill="white"/>
</clipPath>
</defs>
</svg>
