<svg width="823" height="596" viewBox="0 0 823 596" fill="none" xmlns="http://www.w3.org/2000/svg">
<g clip-path="url(#clip0_990_700)">
<path d="M822 7.00243V229C821.034 228.32 820.082 227.64 819.116 226.959C818.525 226.543 817.933 226.127 817.338 225.712C778.149 198.376 730.134 177.912 677.272 166.014C624.409 154.115 568.221 151.126 513.361 157.292C473.682 161.736 436.397 168.543 414.101 178.966C246.416 257.354 56.1556 182.654 2.88421 161.767C1.918 161.396 0.95179 161.016 0 160.626V7.00245C0 5.14528 1.06356 3.36419 2.95669 2.05098C4.84982 0.737766 7.41745 0 10.0947 0H811.905C814.583 0 817.15 0.737755 819.043 2.05096C820.936 3.36417 822 5.14527 822 7.00243Z" fill="url(#paint0_linear_990_700)"/>
<path d="M822 7.00243V229C821.034 228.32 820.082 227.64 819.116 226.959C818.525 226.543 817.933 226.127 817.338 225.712C778.149 198.376 730.134 177.912 677.272 166.014C624.409 154.115 568.221 151.126 513.361 157.292C473.682 161.736 436.397 168.543 414.101 178.966C246.416 257.354 56.1556 182.654 2.88421 161.767C1.918 161.396 0.95179 161.016 0 160.626V7.00245C0 5.14528 1.06356 3.36419 2.95669 2.05098C4.84982 0.737766 7.41745 0 10.0947 0H811.905C814.583 0 817.15 0.737755 819.043 2.05096C820.937 3.36417 822 5.14527 822 7.00243Z" fill="url(#paint1_linear_990_700)"/>
<path d="M42 122C43.1046 122 44 121.105 44 120C44 118.895 43.1046 118 42 118C40.8954 118 40 118.895 40 120C40 121.105 40.8954 122 42 122Z" fill="#3F3D56"/>
<path d="M71 47C72.1046 47 73 46.1046 73 45C73 43.8954 72.1046 43 71 43C69.8954 43 69 43.8954 69 45C69 46.1046 69.8954 47 71 47Z" fill="#FF6584"/>
<path d="M115 83C116.105 83 117 82.1046 117 81C117 79.8954 116.105 79 115 79C113.895 79 113 79.8954 113 81C113 82.1046 113.895 83 115 83Z" fill="white"/>
<path opacity="0.8" d="M764.353 148.836L771.09 136.556L777.827 124.276L781.63 117.344C781.84 116.961 781.262 116.605 781.051 116.989L774.314 129.269L767.577 141.549L763.774 148.481C763.564 148.864 764.142 149.22 764.353 148.836Z" fill="url(#paint2_linear_990_700)"/>
<path d="M663.877 114.345C662.81 114.631 662.177 115.727 662.462 116.794C662.748 117.861 663.845 118.494 664.912 118.209C665.979 117.923 666.612 116.826 666.326 115.759C666.04 114.692 664.944 114.059 663.877 114.345Z" fill="#3F3D56"/>
<path d="M731.701 108.596C730.634 108.882 730.001 109.978 730.287 111.045C730.573 112.112 731.669 112.745 732.736 112.46C733.803 112.174 734.436 111.077 734.15 110.01C733.864 108.943 732.768 108.31 731.701 108.596Z" fill="white"/>
<path d="M803.102 73.8457L804.881 73.1991L804.815 71.3067L805.981 72.7988L807.76 72.1513L806.701 73.7208L807.867 75.2129L806.047 74.6912L804.988 76.2607L804.922 74.3683L803.102 73.8457Z" fill="white"/>
<path d="M740.328 48.2187L742.108 47.5722L742.042 45.6798L743.207 47.1718L744.986 46.5243L743.928 48.0939L745.094 49.586L743.273 49.0642L742.215 50.6338L742.149 48.7414L740.328 48.2187Z" fill="white"/>
<path opacity="0.8" d="M362.998 54.094L370.402 42.2042L377.806 30.3143L381.986 23.6023C382.217 23.2309 381.659 22.8442 381.428 23.2156L374.024 35.1054L366.62 46.9952L362.44 53.7073C362.209 54.0786 362.767 54.4654 362.998 54.094Z" fill="url(#paint3_linear_990_700)"/>
<path opacity="0.8" d="M444.998 155.094L452.402 143.204L459.806 131.314L463.986 124.602C464.217 124.231 463.659 123.844 463.428 124.216L456.024 136.105L448.62 147.995L444.44 154.707C444.209 155.079 444.767 155.465 444.998 155.094Z" fill="url(#paint4_linear_990_700)"/>
<path opacity="0.8" d="M255.998 163.094L263.402 151.204L270.806 139.314L274.986 132.602C275.217 132.231 274.659 131.844 274.428 132.216L267.024 144.105L259.62 155.995L255.44 162.707C255.209 163.079 255.767 163.465 255.998 163.094Z" fill="url(#paint5_linear_990_700)"/>
<path opacity="0.8" d="M85.9985 125.094L93.4023 113.204L100.806 101.314L104.986 94.6023C105.217 94.2309 104.659 93.8442 104.428 94.2156L97.0238 106.105L89.62 117.995L85.4404 124.707C85.2092 125.079 85.7672 125.465 85.9985 125.094Z" fill="url(#paint6_linear_990_700)"/>
<path opacity="0.8" d="M225.998 47.094L233.402 35.2042L240.806 23.3143L244.986 16.6023C245.217 16.2309 244.659 15.8442 244.428 16.2156L237.024 28.1054L229.62 39.9952L225.44 46.7073C225.209 47.0786 225.767 47.4654 225.998 47.094Z" fill="url(#paint7_linear_990_700)"/>
<path d="M0.241708 57.8944C30.8296 86.3446 71.3477 104.598 112.967 108.976C117.051 109.408 121.146 109.704 125.25 109.863C126.161 109.901 127.072 109.924 127.991 109.947C129.479 109.985 130.975 110 132.463 110C134.247 110 136.031 109.975 137.815 109.924C148.142 109.623 158.429 108.499 168.578 106.563C168.95 106.487 169.314 106.419 169.686 106.343C171.288 106.032 172.885 105.698 174.476 105.342C177.528 104.667 180.565 103.918 183.587 103.096C184.566 102.831 185.545 102.557 186.525 102.269C187.929 101.867 189.326 101.442 190.723 101.01C191.247 100.843 191.771 100.683 192.295 100.509C192.826 100.342 193.358 100.168 193.889 99.9855C197.131 98.9234 200.345 97.7702 203.531 96.526C221.676 89.5206 238.662 79.8248 253.918 67.7647C256.029 66.0881 258.17 64.3279 260.235 62.6209C271.334 53.4713 282.813 44.0107 296.805 41.9471C311.913 39.7242 326.429 46.5978 340.459 53.2437C345.219 55.497 350.138 57.8261 355.005 59.7759C378.761 69.127 404.941 70.3778 429.482 63.3341C429.99 63.1975 430.499 63.0458 431 62.8941V61.3084C430.499 61.4602 429.99 61.6119 429.482 61.756C405.147 68.8353 379.15 67.6425 355.567 58.3648C350.746 56.4378 345.841 54.1162 341.104 51.8705C326.869 45.126 312.148 38.1537 296.585 40.4449C282.175 42.5692 270.529 52.1664 259.271 61.4526C257.206 63.152 255.072 64.9121 252.977 66.5812C237.822 78.5641 220.945 88.1937 202.916 95.1452H202.908C199.856 96.3287 196.766 97.444 193.661 98.4758C193.213 98.6199 192.765 98.7641 192.317 98.9158C191.816 99.0751 191.308 99.2344 190.807 99.3938C189.524 99.8034 188.238 100.193 186.95 100.562C185.69 100.941 184.422 101.301 183.146 101.639H183.139C179.874 102.527 176.589 103.329 173.284 104.044C171.789 104.378 170.293 104.682 168.782 104.97C168.456 105.038 168.122 105.099 167.788 105.16C158.052 106.996 148.188 108.076 138.286 108.392H138.278C134.839 108.498 131.405 108.51 127.976 108.43C127.08 108.407 126.192 108.376 125.304 108.346C121.424 108.194 117.55 107.921 113.68 107.527H113.673C72.1828 103.286 31.7634 85.1383 1.2742 56.7792C1.12604 56.6433 0.930041 56.5716 0.729131 56.5798C0.528221 56.588 0.338736 56.6755 0.202182 56.823C0.0656278 56.9705 -0.00687814 57.166 0.000521174 57.3668C0.00792048 57.5676 0.094668 57.7573 0.241708 57.8944Z" fill="white"/>
<path d="M413.705 340.155L398.693 343.55C396.951 353.437 397.27 393.597 397.27 393.597L395.978 432.024C395.294 433.002 394.881 434.144 394.779 435.333C394.677 436.523 394.89 437.718 395.397 438.799C395.903 439.879 396.686 440.808 397.666 441.49C398.645 442.172 399.787 442.584 400.977 442.685C402.166 442.785 403.361 442.571 404.441 442.063C405.521 441.555 406.449 440.771 407.13 439.79C407.811 438.81 408.222 437.668 408.321 436.478C408.42 435.288 408.204 434.094 407.694 433.014L409.646 385.622L413.705 340.155Z" fill="#FFB6B6"/>
<path d="M396.358 301.503C398.692 301.003 401.106 301.024 403.431 301.563C405.755 302.103 407.932 303.148 409.807 304.625C411.682 306.101 413.208 307.973 414.277 310.106C415.346 312.24 415.932 314.583 415.992 316.968L416.24 326.683C416.24 326.683 420.04 376.195 416.547 385.866L411.59 413.787L395.67 415.819L394.887 386.443C394.887 386.443 399.589 354.014 394.486 348.752C391.361 345.529 386.372 332.184 383.869 320.734C383.424 318.651 383.394 316.501 383.781 314.406C384.168 312.312 384.965 310.314 386.125 308.528C387.285 306.742 388.786 305.202 390.542 303.996C392.298 302.791 394.274 301.943 396.358 301.503Z" fill="#6FA1EB"/>
<path d="M284.612 563.907C284.498 563.907 284.385 563.871 284.292 563.804C284.198 563.737 284.128 563.643 284.091 563.534L261.256 399.243L215.521 563.668C215.437 563.788 215.31 563.87 215.166 563.896C215.023 563.922 214.874 563.89 214.754 563.808C214.634 563.725 214.552 563.598 214.525 563.454C214.498 563.31 214.53 563.162 214.612 563.042L260.967 397.716C261.026 397.632 261.106 397.567 261.199 397.525C261.292 397.484 261.395 397.469 261.496 397.482C261.597 397.496 261.693 397.538 261.772 397.603C261.851 397.667 261.91 397.753 261.943 397.85L285.134 563.175C285.163 563.258 285.171 563.347 285.158 563.434C285.146 563.521 285.112 563.604 285.061 563.675C285.01 563.747 284.943 563.805 284.865 563.845C284.787 563.886 284.7 563.907 284.612 563.907Z" fill="#E6E6E6"/>
<path d="M251.76 563.906C251.681 563.907 251.602 563.89 251.53 563.857C251.458 563.824 251.394 563.776 251.342 563.717C251.29 563.657 251.252 563.586 251.229 563.51C251.207 563.435 251.201 563.355 251.213 563.276L260.872 397.95C260.893 397.806 260.97 397.675 261.088 397.587C261.205 397.499 261.352 397.461 261.497 397.482C261.642 397.503 261.773 397.58 261.86 397.697C261.948 397.815 261.986 397.962 261.965 398.107L252.306 563.433C252.287 563.564 252.221 563.684 252.121 563.771C252.021 563.858 251.892 563.906 251.76 563.906Z" fill="#E6E6E6"/>
<path d="M335.929 366.314C336.295 367.761 336.201 369.286 335.66 370.677C335.119 372.068 334.157 373.255 332.91 374.074C332.53 374.326 332.126 374.539 331.705 374.711L229.135 416.936C227.375 417.659 225.399 417.655 223.643 416.923C221.886 416.191 220.492 414.791 219.766 413.032C219.637 412.718 219.53 412.395 219.446 412.066C219.022 410.392 219.216 408.621 219.992 407.079C220.768 405.536 222.074 404.326 223.671 403.668L326.241 361.444C326.264 361.433 326.289 361.425 326.314 361.42C327.263 361.04 328.281 360.868 329.302 360.914C330.322 360.96 331.321 361.223 332.231 361.686C333.142 362.15 333.943 362.802 334.581 363.6C335.218 364.398 335.678 365.324 335.929 366.314Z" fill="#E6E6E6"/>
<path d="M230.578 389.783C231.358 389.585 232.185 389.704 232.877 390.116C233.569 390.527 234.07 391.196 234.268 391.976L236.308 399.999C236.507 400.779 236.387 401.606 235.976 402.298C235.564 402.99 234.895 403.49 234.115 403.689C233.335 403.887 232.508 403.767 231.816 403.356C231.124 402.945 230.624 402.275 230.425 401.495L228.385 393.473C228.287 393.087 228.265 392.685 228.322 392.29C228.38 391.896 228.514 391.516 228.717 391.174C228.921 390.831 229.19 390.532 229.51 390.293C229.829 390.055 230.192 389.881 230.578 389.783Z" fill="#E6E6E6"/>
<path d="M224.423 390.21L236.189 387.218C236.685 387.092 237.212 387.168 237.652 387.43C238.092 387.691 238.411 388.117 238.537 388.614C238.663 389.11 238.587 389.636 238.325 390.077C238.063 390.517 237.637 390.835 237.141 390.962L225.375 393.954C225.129 394.017 224.873 394.03 224.622 393.994C224.371 393.958 224.13 393.872 223.912 393.743C223.694 393.613 223.503 393.442 223.352 393.239C223.2 393.035 223.089 392.804 223.027 392.558C222.901 392.062 222.977 391.536 223.238 391.095C223.5 390.655 223.926 390.337 224.423 390.21Z" fill="#E6E6E6"/>
<path d="M219.888 413.547C219.235 412.205 219.016 410.693 219.262 409.221C219.509 407.749 220.208 406.39 221.262 405.334C222.986 405.368 224.668 405.878 226.121 406.806C227.575 407.734 228.745 409.046 229.501 410.595C230.383 412.387 230.662 414.415 230.299 416.378C229.448 416.943 228.486 417.32 227.478 417.483C226.469 417.646 225.438 417.591 224.452 417.323C223.466 417.055 222.549 416.58 221.762 415.929C220.975 415.277 220.336 414.465 219.888 413.547Z" fill="#CCCCCC"/>
<path d="M387.643 572.606C387.674 571.811 383.469 571.003 378.25 570.799C373.031 570.596 368.775 571.074 368.744 571.869C368.713 572.663 372.918 573.472 378.137 573.675C383.357 573.879 387.612 573.4 387.643 572.606Z" fill="#E6E6E6"/>
<path d="M447.503 578.181C447.534 577.387 443.328 576.578 438.109 576.374C432.89 576.171 428.634 576.65 428.603 577.444C428.572 578.238 432.778 579.047 437.997 579.25C443.216 579.454 447.472 578.975 447.503 578.181Z" fill="#3F3D56"/>
<path d="M363.413 581.922C363.444 581.128 359.238 580.319 354.019 580.116C348.8 579.912 344.544 580.391 344.513 581.185C344.482 581.979 348.688 582.788 353.907 582.992C359.126 583.195 363.382 582.716 363.413 581.922Z" fill="#FF6584"/>
<path d="M427.972 590.919C428.003 590.125 423.797 589.316 418.578 589.113C413.359 588.909 409.103 589.388 409.072 590.182C409.041 590.976 413.247 591.785 418.466 591.989C423.685 592.192 427.941 591.713 427.972 590.919Z" fill="#FF6584"/>
<path d="M333.991 584.086C333.994 583.372 332.116 582.783 329.796 582.772C327.475 582.761 325.592 583.331 325.588 584.046C325.585 584.761 327.463 585.349 329.783 585.36C332.103 585.371 333.987 584.801 333.991 584.086Z" fill="#E6E6E6"/>
<path d="M357.213 589.445C357.217 588.73 355.338 588.142 353.018 588.131C350.698 588.119 348.814 588.69 348.811 589.404C348.807 590.119 350.686 590.707 353.006 590.718C355.326 590.73 357.21 590.159 357.213 589.445Z" fill="#E6E6E6"/>
<path d="M319.241 591.458C319.244 590.744 317.366 590.155 315.046 590.144C312.725 590.133 310.842 590.703 310.838 591.418C310.835 592.133 312.713 592.721 315.033 592.732C317.353 592.743 319.237 592.173 319.241 591.458Z" fill="#3F3D56"/>
<path d="M399.073 582.302C399.076 581.588 397.198 580.999 394.878 580.988C392.557 580.977 390.674 581.547 390.67 582.262C390.667 582.976 392.545 583.565 394.865 583.576C397.185 583.587 399.069 583.017 399.073 582.302Z" fill="#E6E6E6"/>
<path d="M371.963 577.091C371.967 576.377 370.088 575.788 367.768 575.777C365.448 575.766 363.564 576.336 363.561 577.051C363.557 577.765 365.436 578.354 367.756 578.365C370.076 578.376 371.96 577.806 371.963 577.091Z" fill="#FF6584"/>
<path d="M417.026 574.208C417.029 573.494 415.151 572.905 412.831 572.894C410.511 572.883 408.627 573.453 408.623 574.168C408.62 574.883 410.498 575.471 412.818 575.482C415.139 575.493 417.022 574.923 417.026 574.208Z" fill="#3F3D56"/>
<path d="M382.78 589.692C382.783 588.977 380.905 588.389 378.585 588.378C376.264 588.366 374.381 588.937 374.377 589.651C374.374 590.366 376.252 590.954 378.572 590.966C380.892 590.977 382.776 590.406 382.78 589.692Z" fill="#3F3D56"/>
<path d="M618.516 58.8198C624.038 58.8198 628.516 54.3427 628.516 48.8198C628.516 43.297 624.038 38.8198 618.516 38.8198C612.993 38.8198 608.516 43.297 608.516 48.8198C608.516 54.3427 612.993 58.8198 618.516 58.8198Z" fill="#3F3D56"/>
<path d="M490.516 92.8198C491.62 92.8198 492.516 91.9244 492.516 90.8198C492.516 89.7153 491.62 88.8198 490.516 88.8198C489.411 88.8198 488.516 89.7153 488.516 90.8198C488.516 91.9244 489.411 92.8198 490.516 92.8198Z" fill="#3F3D56"/>
<path d="M388.516 131.82C389.62 131.82 390.516 130.925 390.516 129.82C390.516 128.716 389.62 127.82 388.516 127.82C387.411 127.82 386.516 128.716 386.516 129.82C386.516 130.925 387.411 131.82 388.516 131.82Z" fill="#3F3D56"/>
<path d="M275.516 80.8198C276.62 80.8198 277.516 79.9244 277.516 78.8198C277.516 77.7153 276.62 76.8198 275.516 76.8198C274.411 76.8198 273.516 77.7153 273.516 78.8198C273.516 79.9244 274.411 80.8198 275.516 80.8198Z" fill="#FF6584"/>
<path d="M323.516 30.8198C324.62 30.8198 325.516 29.9244 325.516 28.8198C325.516 27.7153 324.62 26.8198 323.516 26.8198C322.411 26.8198 321.516 27.7153 321.516 28.8198C321.516 29.9244 322.411 30.8198 323.516 30.8198Z" fill="white"/>
<path d="M657.516 19.8198C658.62 19.8198 659.516 18.9244 659.516 17.8198C659.516 16.7153 658.62 15.8198 657.516 15.8198C656.411 15.8198 655.516 16.7153 655.516 17.8198C655.516 18.9244 656.411 19.8198 657.516 19.8198Z" fill="white"/>
<path d="M554.516 53.8198C555.62 53.8198 556.516 52.9244 556.516 51.8198C556.516 50.7153 555.62 49.8198 554.516 49.8198C553.411 49.8198 552.516 50.7153 552.516 51.8198C552.516 52.9244 553.411 53.8198 554.516 53.8198Z" fill="white"/>
<path d="M795 192C796.105 192 797 191.105 797 190C797 188.895 796.105 188 795 188C793.895 188 793 188.895 793 190C793 191.105 793.895 192 795 192Z" fill="white"/>
<path d="M784 25C785.105 25 786 24.1046 786 23C786 21.8954 785.105 21 784 21C782.895 21 782 21.8954 782 23C782 24.1046 782.895 25 784 25Z" fill="#FF6584"/>
<path d="M321.516 119.82C322.62 119.82 323.516 118.925 323.516 117.82C323.516 116.716 322.62 115.82 321.516 115.82C320.411 115.82 319.516 116.716 319.516 117.82C319.516 118.925 320.411 119.82 321.516 119.82Z" fill="white"/>
<path d="M168.516 113.82C169.62 113.82 170.516 112.925 170.516 111.82C170.516 110.716 169.62 109.82 168.516 109.82C167.411 109.82 166.516 110.716 166.516 111.82C166.516 112.925 167.411 113.82 168.516 113.82Z" fill="white"/>
<path d="M243.555 134.907L241.669 135.071L241.243 136.916L240.503 135.173L238.617 135.338L240.046 134.096L239.306 132.353L240.929 133.328L242.358 132.086L241.932 133.931L243.555 134.907Z" fill="white"/>
<path d="M484.555 28.9069L482.669 29.0709L482.243 30.9159L481.503 29.1729L479.617 29.3379L481.046 28.0959L480.306 26.3529L481.929 27.3279L483.358 26.0859L482.932 27.9309L484.555 28.9069Z" fill="white"/>
<path d="M598.555 109.907L596.669 110.071L596.243 111.916L595.503 110.173L593.617 110.338L595.046 109.096L594.306 107.353L595.929 108.328L597.358 107.086L596.932 108.931L598.555 109.907Z" fill="white"/>
<path d="M386.555 86.9069L384.669 87.0709L384.243 88.9159L383.503 87.1729L381.617 87.3379L383.046 86.0959L382.306 84.3529L383.929 85.3279L385.358 84.0859L384.932 85.9309L386.555 86.9069Z" fill="white"/>
<path d="M297.555 175.907L295.669 176.071L295.243 177.916L294.503 176.173L292.617 176.338L294.046 175.096L293.306 173.353L294.929 174.328L296.358 173.086L295.932 174.931L297.555 175.907Z" fill="white"/>
<path d="M674.555 173.907L672.669 174.071L672.243 175.916L671.503 174.173L669.617 174.338L671.046 173.096L670.306 171.353L671.929 172.328L673.358 171.086L672.932 172.931L674.555 173.907Z" fill="white"/>
<path d="M190.555 57.9069L188.669 58.0709L188.243 59.9159L187.503 58.1729L185.617 58.3379L187.046 57.0959L186.306 55.3529L187.929 56.3279L189.358 55.0859L188.932 56.9309L190.555 57.9069Z" fill="white"/>
<path d="M109.938 40.821L108.052 40.985L107.626 42.83L106.886 41.087L105 41.252L106.429 40.01L105.689 38.267L107.312 39.242L108.741 38L108.315 39.845L109.938 40.821Z" fill="white"/>
<path d="M26.938 147.821L25.052 147.985L24.626 149.83L23.886 148.087L22 148.252L23.429 147.01L22.689 145.267L24.312 146.242L25.741 145L25.315 146.845L26.938 147.821Z" fill="white"/>
<path d="M31.938 16.821L30.052 16.985L29.626 18.83L28.886 17.087L27 17.252L28.429 16.01L27.689 14.267L29.312 15.242L30.741 14L30.315 15.845L31.938 16.821Z" fill="white"/>
<path d="M169.938 19.821L168.052 19.985L167.626 21.83L166.886 20.087L165 20.252L166.429 19.01L165.689 17.267L167.312 18.242L168.741 17L168.315 18.845L169.938 19.821Z" fill="white"/>
<path d="M410.664 359.622L413.929 309.045C414.074 306.902 415.055 304.903 416.661 303.477C418.267 302.052 420.369 301.315 422.513 301.426C423.622 301.483 424.709 301.766 425.705 302.257C426.702 302.747 427.588 303.436 428.31 304.28C429.031 305.125 429.574 306.107 429.903 307.168C430.233 308.229 430.343 309.346 430.227 310.45L425.225 362.884L423.529 394.873C424.847 395.514 425.936 396.545 426.647 397.827C427.359 399.109 427.659 400.578 427.506 402.036C427.353 403.494 426.755 404.87 425.794 405.976C424.832 407.082 423.553 407.866 422.131 408.22C420.708 408.574 419.211 408.482 417.843 407.955C416.475 407.429 415.302 406.494 414.483 405.278C413.665 404.062 413.241 402.624 413.268 401.158C413.296 399.692 413.774 398.271 414.638 397.086L410.664 359.622Z" fill="#A0616A"/>
<path d="M409.906 320.343C409.549 319.953 409.33 319.457 409.282 318.931C409.235 318.405 409.361 317.878 409.642 317.43C409.978 316.872 410.131 316.222 410.08 315.572C410.069 315.447 410.05 315.322 410.022 315.199C409.837 314.462 409.834 313.692 410.011 312.953C410.188 312.214 410.541 311.529 411.039 310.956C412.708 309.093 413.584 306.213 414.012 303.633C414.313 300.785 414.958 297.984 415.931 295.291C417.561 291.498 421.248 288.199 426.054 290.015C428.086 290.819 429.778 292.298 430.847 294.205C433.133 298.16 432.991 302.838 432.812 307.313L433.748 305.576C433.468 310.459 434.176 315.349 435.832 319.952C434.755 319.702 433.935 321.131 434.248 322.191C434.701 323.204 435.412 324.08 436.309 324.733C437.322 325.689 438.261 327.089 437.229 328.457C436.972 328.777 436.653 329.041 436.29 329.232C435.927 329.423 435.528 329.537 435.119 329.566C427.402 330.288 419.619 329.407 412.26 326.976C410.625 326.436 408.879 325.704 408.073 324.183C407.267 322.662 408.187 320.257 409.906 320.343Z" fill="#E5E5E5"/>
<path d="M477.379 578.297H486.296L490.539 543.905H477.379V578.297Z" fill="#A0616A"/>
<path d="M474.468 572.19L488.713 571.34V577.443L502.256 586.797C502.925 587.258 503.429 587.922 503.694 588.691C503.959 589.459 503.972 590.292 503.73 591.068C503.488 591.844 503.004 592.523 502.35 593.005C501.695 593.486 500.903 593.746 500.09 593.746H483.131L480.208 587.709L479.066 593.746H472.672L474.468 572.19Z" fill="#2F2E41"/>
<path d="M429.441 570.444L437.746 573.69L454.219 543.203L441.962 538.412L429.441 570.444Z" fill="#A0616A"/>
<path d="M428.954 563.697L442.531 568.091L440.309 573.776L449.518 587.418C449.973 588.091 450.201 588.893 450.168 589.705C450.135 590.517 449.843 591.298 449.335 591.933C448.827 592.568 448.13 593.023 447.345 593.234C446.56 593.444 445.728 593.398 444.97 593.102L429.175 586.928L428.65 580.241L425.389 585.448L419.434 583.12L428.954 563.697Z" fill="#2F2E41"/>
<path d="M435.048 355.948H476.648C476.648 355.948 492.314 467.829 492.359 468.032C492.404 468.236 483.518 471.467 487.557 475.506L491.596 479.545C494.827 482.777 489.198 493.818 489.198 493.818L495.635 559.52H469.047L456.052 423.805L473.632 488.869L450.728 559.52L434.241 549.826L431.009 540.94L437.429 534.521C437.429 534.521 439.088 524.873 439.088 519.173C439.088 513.474 434.241 518.321 439.088 513.474C441.185 511.377 447.088 485.646 447.088 485.646L427.778 423.805L423.177 396.201C421.993 389.085 423.058 381.777 426.223 375.295C428.781 370.049 432.004 363.178 435.048 355.948Z" fill="#2F2E41"/>
<path d="M432.624 287.283L435.388 278.989C436.004 277.144 437.156 275.525 438.698 274.339C440.24 273.153 442.101 272.455 444.043 272.334L446.499 272.182C448.685 272.046 450.852 272.649 452.653 273.894C454.455 275.139 455.785 276.953 456.431 279.045C456.997 280.897 458.103 282.536 459.606 283.755C461.11 284.974 462.944 285.716 464.872 285.887C472.052 286.499 482.709 288.67 482.709 296.169C482.709 307.479 470.592 337.368 473.015 339.792C475.438 342.215 481.093 352.202 477.862 355.141C477.02 355.906 477.699 359.589 477.968 362.226C478.457 367.003 444.741 356.442 435.047 359.18C425.353 361.917 430.2 341.408 428.585 339.792C427.068 337.943 425.717 335.965 424.545 333.881C423.972 332.921 423.569 331.87 423.353 330.774L420.571 316.692C420.525 316.458 420.488 316.228 420.459 315.991C420.091 312.977 417.939 292.697 426.161 289.707C435.047 286.476 432.624 287.283 432.624 287.283Z" fill="#E5E5E5"/>
<path d="M470.271 361.661L468.998 310.995C468.951 308.848 469.749 306.769 471.221 305.205C472.693 303.642 474.721 302.72 476.866 302.639C477.976 302.597 479.083 302.781 480.12 303.181C481.156 303.58 482.101 304.187 482.895 304.963C483.689 305.74 484.317 306.67 484.741 307.697C485.164 308.724 485.373 309.826 485.357 310.937L485.065 363.608L486.237 395.62C487.607 396.141 488.784 397.071 489.607 398.284C490.431 399.496 490.861 400.933 490.839 402.399C490.817 403.865 490.345 405.288 489.486 406.476C488.627 407.664 487.423 408.559 486.038 409.039C484.653 409.519 483.154 409.561 481.744 409.159C480.335 408.757 479.083 407.931 478.159 406.793C477.235 405.655 476.684 404.26 476.58 402.798C476.476 401.336 476.825 399.877 477.58 398.62L470.271 361.661Z" fill="#A0616A"/>
<path d="M464.601 321.435C464.211 321.079 463.948 320.605 463.853 320.085C463.759 319.565 463.837 319.029 464.077 318.558C464.362 317.972 464.456 317.311 464.348 316.668C464.325 316.544 464.294 316.422 464.256 316.302C464.006 315.584 463.934 314.817 464.044 314.065C464.154 313.314 464.445 312.6 464.89 311.984C466.385 309.98 467 307.033 467.195 304.425C467.241 301.562 467.632 298.714 468.361 295.945C469.645 292.022 473.022 288.406 477.971 289.784C480.067 290.403 481.885 291.726 483.119 293.529C485.75 297.264 486.027 301.936 486.249 306.408L487.026 304.595C487.184 309.484 488.327 314.29 490.387 318.727C489.293 318.574 488.604 320.071 489.011 321.099C489.553 322.067 490.339 322.876 491.29 323.446C492.385 324.308 493.445 325.618 492.54 327.073C492.313 327.415 492.018 327.706 491.674 327.929C491.33 328.151 490.943 328.3 490.538 328.366C482.917 329.776 475.086 329.594 467.538 327.832C465.862 327.439 464.057 326.867 463.118 325.424C462.179 323.981 462.881 321.503 464.601 321.435Z" fill="#E5E5E5"/>
<path d="M443.757 273.552C453.572 273.552 461.529 265.595 461.529 255.78C461.529 245.965 453.572 238.008 443.757 238.008C433.941 238.008 425.984 245.965 425.984 255.78C425.984 265.595 433.941 273.552 443.757 273.552Z" fill="#A0616A"/>
<path d="M426.964 282.785C426.973 280.704 429.705 279.614 431.685 280.266C433.659 280.921 435.08 282.6 436.668 283.938C438.259 285.283 440.463 286.356 442.364 285.518C444.168 284.72 444.897 282.584 446.247 281.152C447.878 279.632 450.011 278.765 452.24 278.714C452.195 278.512 452.15 278.309 452.123 278.106C451.941 277.036 451.896 275.946 451.988 274.864C452.443 275.79 453.039 276.64 453.756 277.382C454.208 277.852 454.709 278.274 455.25 278.639C457.485 278.813 459.733 278.644 461.917 278.137C464.526 277.368 466.969 275.061 466.764 272.339C466.601 271.337 466.202 270.388 465.6 269.57C464.998 268.753 464.211 268.09 463.302 267.637C461.549 266.623 467.695 262.124 465.864 261.264C464.104 260.487 462.518 259.362 461.204 257.957C459.89 256.551 458.873 254.894 458.216 253.085C457.682 251.479 457.536 249.769 457.792 248.096C458.048 246.423 458.697 244.834 459.687 243.461C461.304 243.256 454.902 244.024 456.436 243.465C456.255 242.394 456.179 244.192 456.273 243.113C456.726 244.042 457.357 242 458.068 242.74C459.44 242.046 460.512 240.874 461.081 239.446C462.253 236.321 460.265 235.709 457.685 233.589C455.726 231.984 453.415 230.867 450.941 230.33C448.467 229.794 445.901 229.852 443.454 230.501C441.007 231.149 438.749 232.37 436.866 234.062C434.982 235.754 433.528 237.869 432.622 240.233C428.71 238.277 423.678 240.121 420.942 243.541C418.217 246.964 417.392 251.537 417.36 255.912C417.312 265.718 420.712 275.23 426.964 282.785Z" fill="#2F2E41"/>
<path d="M362.461 585.863L354.136 585.862L350.176 553.753L362.462 553.754L362.461 585.863Z" fill="#FFB6B6"/>
<path d="M362.751 594.547L337.152 594.546V594.222C337.153 591.579 338.202 589.045 340.071 587.177C341.939 585.308 344.474 584.258 347.116 584.258L351.793 580.711L360.517 584.259H362.751L362.751 594.547Z" fill="#2F2E41"/>
<path d="M400.292 585.863L391.968 585.862L388.008 553.753L400.294 553.754L400.292 585.863Z" fill="#FFB6B6"/>
<path d="M400.587 594.547L374.988 594.546V594.222C374.988 591.579 376.038 589.045 377.907 587.177C379.775 585.308 382.31 584.258 384.952 584.258L389.628 580.711L398.353 584.259H400.587L400.587 594.547Z" fill="#2F2E41"/>
<path d="M342.22 379.716C342.22 379.716 328.767 396.402 331.375 400.728C333.984 405.054 338.187 403.556 333.984 408.088C329.78 412.621 328.096 412.674 331.04 416.011C333.984 419.347 336.541 492.275 336.541 492.275L349.958 568.162L364.724 569.492C364.724 569.492 367.479 560.217 367.547 556.623C367.614 553.028 367.614 556.16 367.614 548.709C367.614 541.257 364.957 547.03 367.547 539.94C370.136 532.85 373.365 511.963 367.547 501.808C361.729 491.653 366.301 500.563 366.301 500.563L370.808 431.74L379.385 502.582C379.385 502.582 379.385 526.964 383.588 544.62L384.283 569.492L402.402 568.8C402.402 568.8 407.13 561.435 405.448 553.028C403.767 544.62 410.493 540.416 410.493 536.213C410.493 532.009 410.138 491.798 410.138 491.798L406.209 408.088C406.209 408.088 409.652 389.08 402.085 381.513C394.518 373.946 342.22 379.716 342.22 379.716Z" fill="#2F2E41"/>
<path d="M358.336 290.935L369.947 277.861L388.293 279.9L400.039 296.338C413.02 299.325 415.414 309.939 413.135 323.064C408.577 349.31 397.325 367.656 402.44 380.607C410.204 400.264 406.439 415.392 387.854 412.636C369.269 409.88 326.442 391.679 338.513 379.608C350.585 367.536 346.893 352.115 346.893 352.115L348.267 315.057C346.097 303.287 346.432 292.167 358.336 290.935Z" fill="#6FA1EB"/>
<path d="M352.759 335.821L339.824 327.479C331.546 333.159 303.097 361.507 303.097 361.507L274.757 387.491C273.58 387.688 272.476 388.192 271.555 388.952C270.634 389.712 269.93 390.701 269.514 391.82C269.097 392.938 268.982 394.147 269.181 395.324C269.38 396.501 269.885 397.605 270.646 398.525C271.407 399.444 272.397 400.147 273.516 400.563C274.635 400.978 275.844 401.091 277.021 400.891C278.198 400.691 279.301 400.184 280.22 399.422C281.138 398.66 281.84 397.669 282.254 396.549L317.457 364.759L352.759 335.821Z" fill="#FFB6B6"/>
<path d="M368.206 296.37C370.197 297.686 371.873 299.425 373.116 301.462C374.358 303.499 375.136 305.786 375.394 308.158C375.653 310.53 375.385 312.93 374.611 315.187C373.836 317.444 372.573 319.503 370.913 321.217L364.15 328.196C364.15 328.196 331.462 365.577 322.112 369.855L298.707 385.866L286.109 375.923L306.533 354.795C306.533 354.795 332.979 335.445 333.162 328.117C333.275 323.63 339.31 310.724 345.732 300.919C346.907 299.143 348.421 297.616 350.188 296.426C351.954 295.236 353.938 294.406 356.025 293.983C358.113 293.561 360.263 293.554 362.354 293.963C364.444 294.373 366.433 295.191 368.206 296.37Z" fill="#6FA1EB"/>
<path d="M400.303 260.868C403.82 251.003 398.675 240.154 388.809 236.636C378.944 233.118 368.094 238.264 364.577 248.129C361.059 257.995 366.205 268.844 376.07 272.362C385.936 275.88 396.785 270.734 400.303 260.868Z" fill="#FFB6B6"/>
<path d="M372.62 232.879C373.416 231.491 374.515 230.299 375.834 229.393C376.468 229.022 377.173 228.79 377.903 228.71C378.632 228.631 379.371 228.706 380.07 228.932C380.768 229.157 381.411 229.528 381.957 230.019C382.503 230.51 382.939 231.11 383.237 231.781C383.247 230.87 383.475 229.974 383.901 229.168C384.983 230.259 386.231 231.172 387.598 231.872L385.608 227.432C393.152 226.861 398.477 228.936 400.87 234.508C401.555 236.104 404.13 236.079 404.885 237.742C405.64 239.406 404.765 242.07 403.007 242.221C406.385 242.161 405.348 245.009 406.34 248.437C407.332 251.865 406.773 255.721 405.661 259.259C404.219 263.847 400.173 266.851 396.222 269.198C393.638 270.733 388.493 273.061 388.467 273.075C374.26 280.531 365.202 265.32 368.585 250.307C369.348 246.916 372.119 243.239 370.133 240.698C368.588 238.719 365.66 239.084 363.207 239.607C364.163 236.316 370.771 235.743 372.62 232.879Z" fill="#2F2E41"/>
<path d="M610.893 573.889C610.924 573.095 606.315 572.27 600.597 572.047C594.88 571.824 590.22 572.287 590.189 573.081C590.158 573.876 594.768 574.7 600.485 574.923C606.203 575.146 610.862 574.683 610.893 573.889Z" fill="#E6E6E6"/>
<path d="M676.483 579.687C676.514 578.893 671.905 578.068 666.187 577.845C660.47 577.622 655.81 578.085 655.779 578.879C655.748 579.674 660.358 580.498 666.075 580.721C671.792 580.944 676.452 580.481 676.483 579.687Z" fill="#3F3D56"/>
<path d="M584.39 583.119C584.421 582.325 579.811 581.501 574.093 581.278C568.376 581.055 563.716 581.518 563.685 582.312C563.654 583.106 568.264 583.931 573.981 584.154C579.699 584.377 584.359 583.914 584.39 583.119Z" fill="#FF6584"/>
<path d="M655.136 592.355C655.167 591.561 650.557 590.736 644.839 590.513C639.122 590.29 634.462 590.753 634.431 591.547C634.4 592.342 639.01 593.166 644.727 593.389C650.445 593.612 655.105 593.149 655.136 592.355Z" fill="#FF6584"/>
<path d="M552.167 585.172C552.173 584.458 550.118 583.861 547.576 583.84C545.035 583.819 542.97 584.381 542.964 585.096C542.958 585.81 545.013 586.407 547.555 586.428C550.096 586.449 552.161 585.887 552.167 585.172Z" fill="#E6E6E6"/>
<path d="M577.628 590.62C577.634 589.905 575.579 589.308 573.037 589.287C570.496 589.266 568.431 589.828 568.425 590.543C568.419 591.258 570.474 591.854 573.016 591.875C575.557 591.896 577.622 591.334 577.628 590.62Z" fill="#E6E6E6"/>
<path d="M536.046 592.491C536.052 591.776 533.997 591.179 531.455 591.158C528.914 591.137 526.849 591.699 526.843 592.414C526.837 593.129 528.892 593.725 531.434 593.746C533.975 593.768 536.04 593.205 536.046 592.491Z" fill="#3F3D56"/>
<path d="M623.456 583.629C623.462 582.915 621.407 582.318 618.865 582.297C616.324 582.276 614.259 582.838 614.253 583.553C614.247 584.267 616.302 584.864 618.844 584.885C621.385 584.906 623.451 584.344 623.456 583.629Z" fill="#E6E6E6"/>
<path d="M593.745 578.318C593.751 577.603 591.696 577.007 589.155 576.985C586.613 576.964 584.548 577.526 584.542 578.241C584.536 578.956 586.592 579.552 589.133 579.573C591.674 579.595 593.74 579.032 593.745 578.318Z" fill="#FF6584"/>
<path d="M643.085 575.603C643.091 574.888 641.036 574.292 638.494 574.271C635.953 574.249 633.888 574.812 633.882 575.526C633.876 576.241 635.931 576.837 638.473 576.859C641.014 576.88 643.079 576.318 643.085 575.603Z" fill="#3F3D56"/>
<path d="M605.632 590.961C605.638 590.247 603.583 589.65 601.041 589.629C598.5 589.608 596.435 590.17 596.429 590.885C596.423 591.599 598.478 592.196 601.02 592.217C603.561 592.238 605.626 591.676 605.632 590.961Z" fill="#3F3D56"/>
<path d="M224.643 573.606C224.674 572.811 220.469 572.003 215.25 571.799C210.031 571.596 205.775 572.074 205.744 572.869C205.713 573.663 209.918 574.472 215.137 574.675C220.357 574.879 224.612 574.4 224.643 573.606Z" fill="#E6E6E6"/>
<path d="M284.503 579.181C284.534 578.387 280.328 577.578 275.109 577.374C269.89 577.171 265.634 577.65 265.603 578.444C265.572 579.238 269.778 580.047 274.997 580.25C280.216 580.454 284.472 579.975 284.503 579.181Z" fill="#3F3D56"/>
<path d="M200.413 582.922C200.444 582.128 196.238 581.319 191.019 581.115C185.8 580.912 181.544 581.391 181.513 582.185C181.482 582.979 185.688 583.788 190.907 583.992C196.126 584.195 200.382 583.716 200.413 582.922Z" fill="#FF6584"/>
<path d="M264.968 591.919C264.999 591.125 260.793 590.316 255.574 590.113C250.355 589.909 246.099 590.388 246.068 591.182C246.037 591.976 250.243 592.785 255.462 592.989C260.681 593.192 264.937 592.713 264.968 591.919Z" fill="#FF6584"/>
<path d="M170.987 585.086C170.99 584.372 169.112 583.783 166.792 583.772C164.472 583.761 162.588 584.331 162.584 585.046C162.581 585.761 164.459 586.349 166.779 586.36C169.099 586.371 170.983 585.801 170.987 585.086Z" fill="#E6E6E6"/>
<path d="M194.213 590.445C194.217 589.73 192.338 589.142 190.018 589.131C187.698 589.119 185.814 589.69 185.811 590.404C185.807 591.119 187.686 591.707 190.006 591.718C192.326 591.73 194.21 591.159 194.213 590.445Z" fill="#E6E6E6"/>
<path d="M156.241 592.458C156.244 591.744 154.366 591.155 152.046 591.144C149.725 591.133 147.842 591.703 147.838 592.418C147.835 593.133 149.713 593.721 152.033 593.732C154.353 593.743 156.237 593.173 156.241 592.458Z" fill="#3F3D56"/>
<path d="M236.073 583.302C236.076 582.588 234.198 581.999 231.878 581.988C229.557 581.977 227.674 582.547 227.67 583.262C227.667 583.976 229.545 584.565 231.865 584.576C234.185 584.587 236.069 584.017 236.073 583.302Z" fill="#E6E6E6"/>
<path d="M208.963 578.091C208.967 577.377 207.088 576.788 204.768 576.777C202.448 576.766 200.564 577.336 200.561 578.051C200.557 578.765 202.436 579.354 204.756 579.365C207.076 579.376 208.96 578.806 208.963 578.091Z" fill="#FF6584"/>
<path d="M254.026 575.208C254.029 574.494 252.151 573.905 249.831 573.894C247.511 573.883 245.627 574.453 245.623 575.168C245.62 575.883 247.498 576.471 249.818 576.482C252.139 576.493 254.022 575.923 254.026 575.208Z" fill="#3F3D56"/>
<path d="M219.78 590.692C219.783 589.977 217.905 589.389 215.585 589.378C213.264 589.366 211.381 589.937 211.377 590.651C211.374 591.366 213.252 591.954 215.572 591.966C217.892 591.977 219.776 591.406 219.78 590.692Z" fill="#3F3D56"/>
<path d="M687.543 508.561C674.349 508.561 661.588 503.848 651.561 495.273C648.216 492.41 644.651 487.432 640.967 480.478C638.616 475.999 637.299 471.05 637.114 465.995C636.928 460.94 637.878 455.908 639.894 451.268C637.951 453.245 635.801 455.008 633.483 456.527L632.31 457.307L632.243 455.902C632.198 454.987 632.176 454.076 632.176 453.194C632.176 447.992 636.11 442.713 634.296 437.905C626.648 417.64 602.392 397.501 637.546 366.138C640.798 363.237 636.454 357.436 636.454 353.046C636.454 310.028 683.196 245.496 714.486 275.029C732.751 292.268 770.804 304.515 788.571 328.493L788.806 329.204L788.113 329.484C784.563 330.976 780.824 331.971 777.002 332.439C781.077 333.27 785.235 333.619 789.391 333.477L790.036 333.455L790.193 334.081C791.739 340.284 792.52 346.653 792.519 353.046L792.516 353.737C792.502 358.593 793.511 363.397 795.478 367.837C797.445 372.277 800.325 376.252 803.931 379.504C809.628 384.697 814.179 391.021 817.296 398.071C820.414 405.121 822.028 412.743 822.036 420.452C822.036 429.572 815.837 441.543 810.637 449.98C809.32 452.129 807.532 453.952 805.409 455.312C803.287 456.671 800.883 457.533 798.38 457.831C796.009 458.13 793.601 457.904 791.327 457.17C789.053 456.435 786.968 455.21 785.22 453.58C787.681 458.529 790.889 463.069 794.73 467.043L795.439 467.774L794.558 468.288C786.093 473.224 776.468 475.823 766.669 475.819L766.095 475.818C751.217 475.818 737.096 481.582 727.351 491.632C722.177 496.962 715.991 501.205 709.155 504.112C702.319 507.019 694.971 508.531 687.543 508.561Z" fill="#5DE08A"/>
<path d="M668.018 595.292C667.779 595.291 667.547 595.205 667.367 595.047C667.186 594.89 667.068 594.673 667.034 594.436C666.992 594.139 662.848 564.255 666.569 524.538C670.006 487.858 681.043 435.026 714.105 391.636C714.184 391.532 714.283 391.444 714.396 391.378C714.509 391.311 714.634 391.268 714.764 391.25C714.894 391.233 715.026 391.241 715.153 391.274C715.279 391.307 715.398 391.366 715.502 391.445C715.607 391.524 715.694 391.624 715.76 391.737C715.826 391.85 715.869 391.975 715.886 392.105C715.903 392.235 715.895 392.367 715.861 392.494C715.827 392.621 715.769 392.739 715.689 392.843C682.913 435.858 671.965 488.303 668.552 524.723C664.852 564.209 668.964 593.86 669.005 594.155C669.025 594.297 669.015 594.441 668.974 594.577C668.934 594.714 668.865 594.841 668.771 594.949C668.677 595.056 668.562 595.143 668.432 595.202C668.302 595.261 668.161 595.292 668.018 595.292Z" fill="#3F3D56"/>
<path d="M698.204 451.742C697.993 451.742 697.788 451.675 697.618 451.552C697.448 451.428 697.321 451.254 697.256 451.054C697.191 450.854 697.191 450.639 697.256 450.438C697.321 450.238 697.447 450.064 697.617 449.94C707.038 443.564 717.215 438.383 727.914 434.518C744.629 428.398 770.047 422.85 796.215 431.179C796.34 431.218 796.455 431.282 796.555 431.366C796.655 431.451 796.737 431.554 796.797 431.67C796.857 431.786 796.894 431.913 796.905 432.043C796.916 432.173 796.901 432.305 796.862 432.429C796.822 432.554 796.758 432.669 796.674 432.769C796.59 432.869 796.486 432.952 796.37 433.012C796.254 433.072 796.127 433.108 795.997 433.119C795.867 433.13 795.736 433.116 795.611 433.076C769.98 424.919 745.022 430.375 728.599 436.388C718.072 440.187 708.058 445.281 698.788 451.551C698.618 451.675 698.414 451.742 698.204 451.742Z" fill="#3F3D56"/>
<path d="M651.948 334.139C651.933 333.93 651.984 333.721 652.095 333.542C652.206 333.363 652.371 333.224 652.566 333.145C652.76 333.065 652.975 333.05 653.179 333.1C653.384 333.151 653.567 333.264 653.702 333.425C660.741 342.362 666.641 352.14 671.267 362.533C678.574 378.764 685.938 403.716 679.516 430.416C679.486 430.543 679.431 430.663 679.354 430.769C679.277 430.876 679.18 430.966 679.068 431.034C678.957 431.103 678.833 431.149 678.703 431.169C678.574 431.19 678.442 431.184 678.314 431.154C678.187 431.123 678.067 431.068 677.961 430.991C677.855 430.913 677.765 430.816 677.697 430.704C677.629 430.592 677.584 430.468 677.563 430.339C677.543 430.209 677.549 430.077 677.58 429.95C683.87 403.798 676.631 379.298 669.451 363.35C664.903 353.124 659.102 343.503 652.18 334.709C652.044 334.548 651.963 334.349 651.948 334.139Z" fill="#3F3D56"/>
<path d="M94.6848 491.633C84.94 481.583 70.8182 475.819 55.9406 475.819L55.3667 475.82C45.5673 475.824 35.9426 473.225 27.4772 468.289L26.5963 467.775L27.3058 467.044C31.1469 463.07 34.3542 458.53 36.8154 453.581C35.0674 455.211 32.9826 456.436 30.7085 457.171C28.4344 457.905 26.0266 458.131 23.6556 457.832C21.1523 457.534 18.7491 456.672 16.6263 455.313C14.5035 453.953 12.7161 452.13 11.3982 449.981C6.19832 441.544 0 429.573 0 420.453C0.00809103 412.744 1.62212 405.122 4.73921 398.072C7.85631 391.022 12.4081 384.698 18.1044 379.505C21.7107 376.253 24.5912 372.278 26.5581 367.838C28.525 363.398 29.5341 358.594 29.5197 353.738L29.5168 353.047C29.5159 346.654 30.2971 340.285 31.8431 334.082L32.0001 333.456L32.6446 333.478C36.8007 333.62 40.959 333.271 45.0336 332.44C41.2116 331.972 37.4727 330.977 33.9228 329.485L33.2295 329.205L33.4648 328.494C51.2316 304.516 89.2847 292.269 107.549 275.03C138.84 245.497 185.581 310.029 185.581 353.047C185.581 357.437 181.237 363.238 184.489 366.139C219.644 397.502 195.388 417.641 187.74 437.906C185.926 442.714 189.86 447.993 189.86 453.195C189.86 454.077 189.837 454.988 189.793 455.903L189.725 457.308L188.553 456.528C186.234 455.009 184.085 453.246 182.142 451.269C184.158 455.909 185.108 460.941 184.922 465.996C184.736 471.051 183.419 476 181.068 480.479C177.384 487.433 173.82 492.411 170.475 495.274C159.759 504.444 145.945 509.175 131.857 508.498C117.769 507.821 104.472 501.788 94.6848 491.633Z" fill="#5DE08A"/>
<path d="M154.017 595.292C154.256 595.291 154.488 595.205 154.669 595.047C154.849 594.89 154.968 594.673 155.001 594.436C155.044 594.139 159.187 564.255 155.466 524.538C152.029 487.858 140.992 435.026 107.93 391.636C107.851 391.532 107.752 391.444 107.639 391.378C107.526 391.311 107.401 391.268 107.271 391.25C107.141 391.233 107.009 391.241 106.883 391.274C106.756 391.307 106.637 391.366 106.533 391.445C106.429 391.524 106.341 391.624 106.275 391.737C106.209 391.85 106.167 391.975 106.149 392.105C106.132 392.235 106.141 392.367 106.174 392.494C106.208 392.621 106.267 392.739 106.346 392.843C139.123 435.858 150.071 488.303 153.483 524.723C157.183 564.209 153.072 593.86 153.03 594.155C153.01 594.297 153.02 594.441 153.061 594.577C153.101 594.714 153.171 594.841 153.264 594.949C153.358 595.056 153.473 595.143 153.603 595.202C153.733 595.261 153.874 595.292 154.017 595.292Z" fill="#3F3D56"/>
<path d="M123.83 451.742C124.04 451.742 124.245 451.675 124.416 451.552C124.586 451.428 124.713 451.254 124.778 451.054C124.843 450.854 124.843 450.639 124.778 450.438C124.713 450.238 124.586 450.064 124.416 449.94C114.996 443.564 104.819 438.383 94.1195 434.518C77.4042 428.398 51.9861 422.85 25.8187 431.179C25.5671 431.259 25.3576 431.435 25.2363 431.67C25.115 431.904 25.0918 432.177 25.1719 432.429C25.252 432.681 25.4287 432.89 25.6633 433.012C25.8978 433.133 26.1709 433.156 26.4225 433.076C52.0539 424.919 77.0112 430.375 93.4348 436.388C103.962 440.187 113.976 445.281 123.246 451.551C123.415 451.675 123.62 451.742 123.83 451.742Z" fill="#3F3D56"/>
<path d="M170.082 334.139C170.097 333.93 170.046 333.721 169.935 333.542C169.824 333.363 169.659 333.224 169.465 333.145C169.27 333.065 169.055 333.05 168.851 333.1C168.646 333.151 168.463 333.264 168.328 333.425C161.289 342.362 155.389 352.14 150.763 362.533C143.456 378.764 136.092 403.716 142.514 430.416C142.544 430.543 142.599 430.663 142.676 430.769C142.753 430.876 142.85 430.966 142.962 431.034C143.073 431.103 143.197 431.149 143.327 431.169C143.456 431.19 143.588 431.184 143.716 431.154C143.843 431.123 143.963 431.068 144.069 430.991C144.175 430.913 144.265 430.816 144.333 430.704C144.401 430.592 144.446 430.468 144.467 430.339C144.487 430.209 144.481 430.077 144.45 429.95C138.16 403.798 145.399 379.298 152.579 363.35C157.127 353.124 162.928 343.503 169.85 334.709C169.986 334.548 170.067 334.349 170.082 334.139Z" fill="#3F3D56"/>
<path d="M153.418 153.509L97.3164 154.319L97.3453 156.319L153.447 155.509L153.418 153.509Z" fill="#E6E6E6"/>
<path d="M155.532 159.426C154.437 158.889 153.579 157.967 153.119 156.837C152.66 155.708 152.633 154.448 153.042 153.3C153.452 152.151 154.269 151.193 155.34 150.608C156.41 150.023 157.658 149.853 158.846 150.129C160.033 150.405 161.078 151.108 161.781 152.105C162.483 153.102 162.795 154.322 162.656 155.534C162.517 156.746 161.936 157.864 161.026 158.675C160.116 159.487 158.939 159.935 157.719 159.934C156.961 159.934 156.213 159.76 155.532 159.426ZM156.746 152.095C156.374 152.222 156.03 152.422 155.734 152.683C155.439 152.945 155.199 153.262 155.027 153.616C154.722 154.242 154.643 154.954 154.803 155.631C154.964 156.308 155.355 156.909 155.909 157.33C156.462 157.751 157.145 157.967 157.841 157.942C158.536 157.916 159.201 157.649 159.722 157.188C160.243 156.727 160.588 156.099 160.698 155.412C160.808 154.725 160.676 154.021 160.325 153.42C159.974 152.819 159.426 152.359 158.773 152.117C158.12 151.875 157.404 151.868 156.746 152.095Z" fill="#E6E6E6"/>
<path d="M622.602 92.1969C621.372 92.1997 620.183 91.7494 619.263 90.9319C618.344 90.1144 617.757 88.9869 617.615 87.7645C617.474 86.542 617.787 85.3103 618.496 84.3041C619.204 83.2979 620.258 82.5878 621.457 82.3092C622.656 82.0307 623.915 82.2031 624.995 82.7936C626.074 83.3842 626.899 84.3515 627.311 85.5111C627.723 86.6707 627.693 87.9414 627.228 89.0807C626.763 90.2201 625.895 91.1484 624.789 91.6886C624.108 92.0214 623.361 92.1952 622.602 92.1969ZM622.596 84.1925C621.944 84.1924 621.309 84.4046 620.789 84.7969C620.268 85.1892 619.889 85.7403 619.71 86.3669C619.53 86.9936 619.559 87.6617 619.792 88.2703C620.026 88.879 620.451 89.3951 621.004 89.7406C621.557 90.0862 622.207 90.2424 622.857 90.1857C623.506 90.129 624.119 89.8625 624.604 89.4264C625.088 88.9903 625.418 88.4083 625.542 87.7684C625.667 87.1285 625.58 86.4655 625.294 85.8795C625.047 85.3741 624.663 84.9476 624.186 84.6495C623.709 84.3514 623.158 84.193 622.596 84.1925Z" fill="#E6E6E6"/>
<path d="M561.217 137.821L541.504 238.336L543.467 238.721L563.179 138.206L561.217 137.821Z" fill="white"/>
<path d="M557.625 132.83C557.842 131.619 558.497 130.53 559.465 129.77C560.433 129.011 561.647 128.635 562.876 128.713C564.104 128.792 565.26 129.32 566.124 130.196C566.987 131.073 567.498 132.237 567.559 133.466C567.619 134.695 567.225 135.903 566.451 136.86C565.678 137.818 564.579 138.456 563.365 138.655C562.15 138.854 560.905 138.598 559.867 137.938C558.829 137.277 558.07 136.257 557.735 135.073C557.529 134.344 557.492 133.577 557.625 132.83ZM565.503 134.251C565.619 133.609 565.523 132.947 565.23 132.365C564.937 131.783 564.462 131.312 563.877 131.023C563.293 130.735 562.63 130.644 561.99 130.765C561.349 130.887 560.766 131.213 560.327 131.696C559.888 132.178 559.619 132.79 559.559 133.439C559.499 134.088 559.652 134.739 559.994 135.294C560.337 135.848 560.851 136.276 561.459 136.513C562.066 136.749 562.734 136.782 563.362 136.605C563.903 136.452 564.391 136.151 564.769 135.734C565.148 135.318 565.402 134.804 565.503 134.251Z" fill="#E6E6E6"/>
<path d="M536.488 285.983C546.429 285.983 554.488 277.925 554.488 267.983C554.488 258.042 546.429 249.983 536.488 249.983C526.547 249.983 518.488 258.042 518.488 267.983C518.488 277.925 526.547 285.983 536.488 285.983Z" fill="#3F3D56"/>
<path d="M73 99C74.4355 95.9436 74.7335 93.7711 74.8901 90.398C75.0467 87.0249 74.5373 83.6539 73.3912 80.4777C72.245 77.3014 70.4844 74.382 68.21 71.8861C65.9356 69.3903 63.1918 67.3668 60.1354 65.9313C57.079 64.4958 53.7698 63.6764 50.3967 63.5198C47.0235 63.3632 43.6526 63.8725 40.4764 65.0187C37.3001 66.1649 34.3807 67.9254 31.8848 70.1999C29.3889 72.4743 27.9345 73.4436 26.499 76.5L37.5 83.5L49 89.5L60.5 94.5L73 99Z" fill="#FF6584"/>
<path d="M381.603 316.059C381.074 316.015 380.544 316 380 316C373.598 316.008 367.442 318.468 362.798 322.874C358.154 327.28 355.374 333.298 355.029 339.691C355.015 340.118 355 340.559 355 341C355 341.603 355.015 342.191 355.074 342.779C355.443 348.014 357.452 353 360.816 357.028C364.179 361.057 368.725 363.924 373.81 365.223C378.895 366.522 384.259 366.186 389.142 364.264C394.026 362.342 398.18 358.931 401.015 354.515C401.584 353.643 402.095 352.734 402.544 351.794C404.312 348.107 405.148 344.042 404.979 339.956C404.809 335.87 403.639 331.889 401.572 328.361C399.504 324.832 396.602 321.866 393.121 319.721C389.639 317.576 385.684 316.319 381.603 316.059ZM398.868 354.088C396.561 356.862 393.679 359.101 390.421 360.65C387.163 362.199 383.607 363.021 380 363.059C374.629 363.051 369.444 361.086 365.416 357.532C361.389 353.978 358.794 349.079 358.118 343.75C357.999 342.838 357.94 341.92 357.941 341C357.939 340.872 357.944 340.745 357.956 340.618C358.057 334.837 360.423 329.326 364.546 325.272C368.669 321.218 374.218 318.945 380 318.941C380.132 319.294 380.265 319.632 380.412 319.956C386.691 334.809 400.309 333.691 402.059 341C402.906 344.533 402.391 348.255 400.618 351.426C400.119 352.367 399.533 353.258 398.868 354.088Z" fill="white"/>
<path d="M371.244 354H367.92L377.534 327.818H380.807L390.42 354H387.097L379.273 331.96H379.068L371.244 354ZM372.472 343.773H385.869V346.585H372.472V343.773Z" fill="white"/>
<path d="M449.834 318.031C449.558 318.008 449.283 318 449 318C445.671 318.004 442.47 319.283 440.055 321.575C437.64 323.866 436.194 326.995 436.015 330.319C436.008 330.541 436 330.771 436 331C436 331.314 436.008 331.619 436.038 331.925C436.231 334.647 437.275 337.24 439.024 339.335C440.773 341.43 443.137 342.92 445.781 343.596C448.425 344.271 451.215 344.097 453.754 343.097C456.293 342.098 458.453 340.324 459.928 338.028C460.224 337.574 460.49 337.102 460.723 336.613C461.642 334.696 462.077 332.582 461.989 330.457C461.901 328.333 461.292 326.262 460.217 324.427C459.142 322.593 457.633 321.05 455.823 319.935C454.012 318.82 451.956 318.166 449.834 318.031ZM458.811 337.806C457.612 339.248 456.113 340.412 454.419 341.218C452.725 342.023 450.876 342.451 449 342.471C446.207 342.466 443.511 341.445 441.417 339.597C439.322 337.749 437.973 335.201 437.621 332.43C437.56 331.956 437.529 331.478 437.529 331C437.528 330.934 437.531 330.867 437.537 330.801C437.59 327.795 438.82 324.93 440.964 322.822C443.108 320.714 445.993 319.531 449 319.529C449.069 319.713 449.138 319.889 449.214 320.057C452.479 327.781 459.561 327.199 460.471 331C460.911 332.837 460.643 334.773 459.721 336.422C459.462 336.911 459.157 337.374 458.811 337.806Z" fill="#6FA1EB"/>
<path d="M444.358 338H442.511L447.852 323.455H449.67L455.011 338H453.165L448.818 325.756H448.705L444.358 338ZM445.04 332.318H452.483V333.881H445.04V332.318Z" fill="#6FA1EB"/>
</g>
<defs>
<linearGradient id="paint0_linear_990_700" x1="411" y1="229" x2="411" y2="9.33354e-06" gradientUnits="userSpaceOnUse">
<stop stop-color="#94B9EF"/>
<stop offset="1" stop-color="#1070FF"/>
</linearGradient>
<linearGradient id="paint1_linear_990_700" x1="411" y1="-53.5" x2="411" y2="229" gradientUnits="userSpaceOnUse">
<stop stop-color="#42A9F8"/>
<stop offset="1" stop-color="#C1F4FF"/>
</linearGradient>
<linearGradient id="paint2_linear_990_700" x1="760.385" y1="136.213" x2="785.019" y2="129.612" gradientUnits="userSpaceOnUse">
<stop stop-color="white"/>
<stop offset="1" stop-color="white" stop-opacity="0.3"/>
</linearGradient>
<linearGradient id="paint3_linear_990_700" x1="359.733" y1="41.2709" x2="384.693" y2="36.0387" gradientUnits="userSpaceOnUse">
<stop stop-color="white"/>
<stop offset="1" stop-color="white" stop-opacity="0.3"/>
</linearGradient>
<linearGradient id="paint4_linear_990_700" x1="441.733" y1="142.271" x2="466.693" y2="137.039" gradientUnits="userSpaceOnUse">
<stop stop-color="white"/>
<stop offset="1" stop-color="white" stop-opacity="0.3"/>
</linearGradient>
<linearGradient id="paint5_linear_990_700" x1="252.733" y1="150.271" x2="277.693" y2="145.039" gradientUnits="userSpaceOnUse">
<stop stop-color="white"/>
<stop offset="1" stop-color="white" stop-opacity="0.3"/>
</linearGradient>
<linearGradient id="paint6_linear_990_700" x1="82.7333" y1="112.271" x2="107.693" y2="107.039" gradientUnits="userSpaceOnUse">
<stop stop-color="white"/>
<stop offset="1" stop-color="white" stop-opacity="0.3"/>
</linearGradient>
<linearGradient id="paint7_linear_990_700" x1="222.733" y1="34.2709" x2="247.693" y2="29.0387" gradientUnits="userSpaceOnUse">
<stop stop-color="white"/>
<stop offset="1" stop-color="white" stop-opacity="0.3"/>
</linearGradient>
<clipPath id="clip0_990_700">
<rect width="822.034" height="595.291" fill="white"/>
</clipPath>
</defs>
</svg>
