<svg width="2500" height="1092" viewBox="0 0 2500 1092" fill="none" xmlns="http://www.w3.org/2000/svg">
<path d="M0 605.5V416L345.602 295.122C392.435 278.742 440.674 266.698 489.71 259.141V259.141C636.729 236.485 787.148 254.736 924.483 311.894L1213.2 432.058C1399.31 509.514 1612.51 488.591 1780.43 377.076V377.076C2002.3 229.736 2295.66 245.174 2500 416V416V1080L2425.51 1025.75C2251.23 898.826 2021.72 876.731 1826.43 968.079V968.079C1659.45 1046.18 1465.61 1042.01 1302.15 956.792L1118.72 861.16C740.456 663.957 276.07 754.799 0 1080V1080V605.5Z" fill="#3B80E5"/>
<path d="M1246.37 444.919C1240.84 459.843 1229.62 471.962 1215.16 478.609C1200.7 485.256 1184.2 485.888 1169.27 480.365C1154.35 474.842 1142.23 463.617 1135.58 449.159C1128.93 434.701 1131.98 415.424 1137.5 400.5L1190.5 422.5L1246.37 444.919Z" fill="#FF6584"/>
<path opacity="0.8" d="M271.006 614.214L304.319 560.716L337.633 507.218L356.438 477.017C357.479 475.346 354.968 473.606 353.927 475.277L320.614 528.775L287.301 582.273L268.495 612.474C267.454 614.145 269.965 615.885 271.006 614.214Z" fill="url(#paint0_linear_979_1150)"/>
<path opacity="0.8" d="M1685.99 887.907L1719.3 834.408L1752.62 780.91L1771.42 750.709C1772.46 749.038 1769.95 747.298 1768.91 748.969L1735.6 802.468L1702.29 855.966L1683.48 886.166C1682.44 887.837 1684.95 889.578 1685.99 887.907Z" fill="url(#paint1_linear_979_1150)"/>
<path opacity="0.8" d="M2349.99 590.907L2383.3 537.408L2416.62 483.91L2435.42 453.709C2436.46 452.038 2433.95 450.298 2432.91 451.969L2399.6 505.468L2366.29 558.966L2347.48 589.166C2346.44 590.837 2348.95 592.578 2349.99 590.907Z" fill="url(#paint2_linear_979_1150)"/>
<path opacity="0.8" d="M1585.18 909.136L1600.21 884.994L1615.25 860.851L1623.73 847.223C1624.2 846.469 1623.07 845.683 1622.6 846.437L1607.57 870.58L1592.53 894.722L1584.05 908.35C1583.58 909.104 1584.71 909.89 1585.18 909.136Z" fill="url(#paint3_linear_979_1150)"/>
<path d="M967.859 569.676C1076.64 670.914 1220.73 735.868 1368.73 751.445C1383.26 752.984 1397.82 754.037 1412.42 754.604C1415.66 754.739 1418.9 754.82 1422.16 754.901C1427.46 755.036 1432.77 755.09 1438.07 755.09C1444.41 755.09 1450.76 755 1457.1 754.82C1493.83 753.748 1530.41 749.749 1566.5 742.86C1567.82 742.59 1569.12 742.347 1570.44 742.077C1576.14 740.97 1581.82 739.782 1587.48 738.513C1598.33 736.111 1609.13 733.447 1619.87 730.522C1623.36 729.578 1626.84 728.606 1630.32 727.58C1635.32 726.149 1640.29 724.637 1645.25 723.098C1647.12 722.504 1648.98 721.937 1650.84 721.317C1652.73 720.723 1654.62 720.102 1656.51 719.454C1668.04 715.674 1679.47 711.571 1690.8 707.143C1755.33 682.215 1815.74 647.713 1869.99 604.799C1877.49 598.832 1885.11 592.569 1892.45 586.495C1931.92 553.937 1972.75 520.272 2022.5 512.929C2076.23 505.019 2127.85 529.478 2177.75 553.127C2194.67 561.145 2212.17 569.433 2229.47 576.371C2313.96 609.646 2407.06 614.097 2494.33 589.032C2496.14 588.547 2497.95 588.007 2499.73 587.467V581.824C2497.95 582.364 2496.14 582.904 2494.33 583.417C2407.79 608.608 2315.34 604.364 2231.47 571.35C2214.33 564.492 2196.89 556.231 2180.04 548.24C2129.42 524.24 2077.07 499.43 2021.72 507.583C1970.48 515.142 1929.06 549.293 1889.02 582.337C1881.68 588.385 1874.09 594.648 1866.64 600.587C1812.75 643.227 1752.73 677.494 1688.61 702.23H1688.59C1677.73 706.441 1666.74 710.41 1655.7 714.081C1654.11 714.594 1652.52 715.107 1650.92 715.647C1649.14 716.214 1647.33 716.781 1645.55 717.348C1640.99 718.806 1636.42 720.192 1631.83 721.506C1627.35 722.855 1622.84 724.133 1618.31 725.339H1618.28C1606.67 728.498 1594.99 731.35 1583.24 733.897C1577.92 735.085 1572.6 736.165 1567.23 737.191C1566.07 737.434 1564.88 737.65 1563.69 737.866C1529.07 744.399 1493.99 748.244 1458.77 749.366H1458.75C1446.52 749.744 1434.3 749.789 1422.11 749.501C1418.92 749.42 1415.77 749.312 1412.61 749.204C1398.81 748.664 1385.03 747.692 1371.27 746.289H1371.24C1223.7 731.197 1079.96 666.621 971.531 565.707C971.004 565.224 970.307 564.969 969.593 564.998C968.878 565.027 968.204 565.338 967.719 565.863C967.233 566.388 966.975 567.084 967.002 567.798C967.028 568.513 967.336 569.188 967.859 569.676Z" fill="#6EACF6"/>
<path d="M113 887C141.719 887 165 863.719 165 835C165 806.281 141.719 783 113 783C84.2812 783 61 806.281 61 835C61 863.719 84.2812 887 113 887Z" fill="#F0F0F0"/>
<path d="M1792.89 447.371C1800.32 446.869 1807.78 448.035 1814.7 450.785C1821.63 453.535 1827.86 457.799 1832.92 463.265C1837.99 468.731 1841.77 475.26 1843.99 482.376C1846.21 489.491 1846.81 497.013 1845.75 504.39C1844.68 511.767 1841.98 518.813 1837.85 525.013C1833.71 531.212 1828.24 536.409 1821.83 540.221C1815.43 544.034 1808.25 546.366 1800.83 547.048C1793.41 547.73 1785.93 546.743 1778.94 544.161L1787.26 521.633C1790.89 522.975 1794.78 523.487 1798.63 523.133C1802.49 522.779 1806.22 521.567 1809.55 519.585C1812.88 517.604 1815.72 514.903 1817.87 511.682C1820.02 508.46 1821.42 504.798 1821.98 500.964C1822.53 497.13 1822.22 493.222 1821.06 489.524C1819.91 485.826 1817.95 482.432 1815.31 479.592C1812.68 476.751 1809.44 474.535 1805.84 473.106C1802.24 471.677 1798.37 471.071 1794.5 471.332L1792.89 447.371Z" fill="white"/>
<circle cx="706" cy="361" r="15" fill="#3F3D56"/>
<circle cx="1065" cy="615" r="15" fill="white"/>
<circle cx="631" cy="631" r="9" fill="white"/>
<circle cx="122" cy="631" r="9" fill="white"/>
<circle cx="212" cy="442" r="9" fill="#3F3D56"/>
<circle cx="1487" cy="809" r="9" fill="white"/>
<circle cx="1544" cy="591" r="9" fill="white"/>
<circle cx="1817" cy="639" r="9" fill="#3F3D56"/>
<circle cx="2042.5" cy="364.5" r="5.5" fill="#3F3D56"/>
<circle cx="2158.5" cy="488.5" r="5.5" fill="#FF6584"/>
<circle cx="2443.5" cy="932.5" r="5.5" fill="white"/>
<circle cx="2342.5" cy="788.5" r="5.5" fill="white"/>
<circle cx="1993.5" cy="756.5" r="5.5" fill="white"/>
<defs>
<linearGradient id="paint0_linear_979_1150" x1="256.314" y1="556.517" x2="368.619" y2="532.974" gradientUnits="userSpaceOnUse">
<stop stop-color="white"/>
<stop offset="1" stop-color="white" stop-opacity="0.3"/>
</linearGradient>
<linearGradient id="paint1_linear_979_1150" x1="1671.3" y1="830.209" x2="1783.6" y2="806.667" gradientUnits="userSpaceOnUse">
<stop stop-color="white"/>
<stop offset="1" stop-color="white" stop-opacity="0.3"/>
</linearGradient>
<linearGradient id="paint2_linear_979_1150" x1="2335.3" y1="533.209" x2="2447.6" y2="509.667" gradientUnits="userSpaceOnUse">
<stop stop-color="white"/>
<stop offset="1" stop-color="white" stop-opacity="0.3"/>
</linearGradient>
<linearGradient id="paint3_linear_979_1150" x1="1578.55" y1="883.099" x2="1629.23" y2="872.474" gradientUnits="userSpaceOnUse">
<stop stop-color="white"/>
<stop offset="1" stop-color="white" stop-opacity="0.3"/>
</linearGradient>
</defs>
</svg>
