<svg width="559" height="1001" viewBox="0 0 559 1001" fill="none" xmlns="http://www.w3.org/2000/svg">
<path d="M29.1361 10.4233C273.638 78.9233 424.638 245.923 489.138 516.423C530.638 759.423 313.137 950.423 29.136 993.423C-395.364 986.923 -526.365 668.279 -492.409 391.728C-412.863 154.151 -243.229 45.9955 29.1361 10.4233Z" fill="url(#paint0_linear_980_1192)"/>
<path d="M246 925.5C232.246 904.427 223.626 869.873 228.656 845.217C233.685 820.56 248.23 798.88 269.139 784.876C290.047 770.873 315.632 765.676 340.347 770.411C365.061 775.147 386.913 789.434 401.164 810.174L385.444 826.302L367.501 843C360.001 832.085 344.828 817.394 331.822 814.902C318.815 812.41 305.35 815.145 294.347 822.515C283.344 829.884 275.689 841.294 273.042 854.27C270.395 867.246 278.762 892.41 286 903.5L283.498 905L276.498 909L267 914.5L257.001 920L246 925.5Z" fill="white"/>
<path opacity="0.8" d="M130.426 647.205L84.901 603.624L39.3757 560.043L13.6759 535.441C12.2539 534.08 10.0356 536.18 11.4575 537.542L56.9829 581.123L102.508 624.703L128.208 649.306C129.63 650.667 131.848 648.566 130.426 647.205Z" fill="url(#paint1_linear_980_1192)"/>
<path opacity="0.8" d="M186.669 253.317L141.143 209.736L95.6179 166.155L69.9181 141.553C68.4961 140.192 66.2778 142.292 67.6997 143.653L113.225 187.234L158.75 230.815L184.45 255.417C185.872 256.779 188.091 254.678 186.669 253.317Z" fill="url(#paint2_linear_980_1192)"/>
<path opacity="0.8" d="M204.733 642.516L178.151 617.069L151.569 591.623L136.562 577.257C135.732 576.463 134.437 577.689 135.267 578.484L161.849 603.931L188.431 629.377L203.438 643.743C204.268 644.537 205.563 643.311 204.733 642.516Z" fill="url(#paint3_linear_980_1192)"/>
<ellipse cx="298.5" cy="256.5" rx="36.5" ry="36.5" transform="rotate(-180 298.5 256.5)" fill="#FF6584"/>
<circle cx="126.137" cy="319.423" r="1.5" transform="rotate(-180 126.137 319.423)" fill="#D9D9D9"/>
<circle cx="193.137" cy="246.423" r="1.5" transform="rotate(-180 193.137 246.423)" fill="#D9D9D9"/>
<circle cx="57.1367" cy="110.423" r="1.5" transform="rotate(-180 57.1367 110.423)" fill="#D9D9D9"/>
<circle cx="437.137" cy="596.423" r="1.5" transform="rotate(-180 437.137 596.423)" fill="#3F3D56"/>
<circle cx="159.137" cy="477.423" r="1.5" transform="rotate(-180 159.137 477.423)" fill="#D9D9D9"/>
<circle cx="346.137" cy="365.423" r="1.5" transform="rotate(-180 346.137 365.423)" fill="#D9D9D9"/>
<circle cx="78.1367" cy="586.423" r="1.5" transform="rotate(-180 78.1367 586.423)" fill="#D9D9D9"/>
<circle cx="82.1367" cy="572.423" r="1.5" transform="rotate(-180 82.1367 572.423)" fill="#D9D9D9"/>
<circle cx="227.137" cy="427.423" r="1.5" transform="rotate(-180 227.137 427.423)" fill="#D9D9D9"/>
<circle cx="353.137" cy="750.423" r="1.5" transform="rotate(-180 353.137 750.423)" fill="#D9D9D9"/>
<circle cx="353.137" cy="593.423" r="1.5" transform="rotate(-180 353.137 593.423)" fill="#D9D9D9"/>
<circle cx="212.137" cy="668.423" r="1.5" transform="rotate(-180 212.137 668.423)" fill="#D9D9D9"/>
<circle cx="210.137" cy="628.423" r="1.5" transform="rotate(-180 210.137 628.423)" fill="#D9D9D9"/>
<circle cx="69.1367" cy="575.423" r="1.5" transform="rotate(-180 69.1367 575.423)" fill="#3F3D56"/>
<circle cx="306.137" cy="468.423" r="7.5" transform="rotate(-180 306.137 468.423)" fill="#3F3D56"/>
<circle cx="61.5" cy="392.5" r="7.5" transform="rotate(-180 61.5 392.5)" fill="#3F3D56"/>
<circle cx="114.137" cy="856.423" r="5.5" transform="rotate(-180 114.137 856.423)" fill="#D9D9D9"/>
<defs>
<linearGradient id="paint0_linear_980_1192" x1="347.72" y1="334.153" x2="-158.463" y2="895.883" gradientUnits="userSpaceOnUse">
<stop stop-color="#84ADE9"/>
<stop offset="1" stop-color="#3B80E5"/>
</linearGradient>
<linearGradient id="paint1_linear_980_1192" x1="70.942" y1="649.747" x2="70.942" y2="535" gradientUnits="userSpaceOnUse">
<stop stop-color="white"/>
<stop offset="1" stop-color="white" stop-opacity="0.3"/>
</linearGradient>
<linearGradient id="paint2_linear_980_1192" x1="127.184" y1="255.858" x2="127.184" y2="141.112" gradientUnits="userSpaceOnUse">
<stop stop-color="white"/>
<stop offset="1" stop-color="white" stop-opacity="0.3"/>
</linearGradient>
<linearGradient id="paint3_linear_980_1192" x1="170" y1="644" x2="170" y2="577" gradientUnits="userSpaceOnUse">
<stop stop-color="white"/>
<stop offset="1" stop-color="white" stop-opacity="0.3"/>
</linearGradient>
</defs>
</svg>
