<svg width="839" height="1001" viewBox="0 0 839 1001" fill="none" xmlns="http://www.w3.org/2000/svg">
<g clip-path="url(#clip0_920_88)">
<path d="M835.501 992.5C590.999 924 439.999 757 375.499 486.5C333.999 243.5 551.5 52.5 835.501 9.49992C1260 15.9999 1391 334.644 1357.05 611.195C1277.5 848.772 1107.87 956.928 835.501 992.5Z" fill="url(#paint0_linear_920_88)"/>
<rect x="731.058" y="175.124" width="35" height="35" rx="17.5" transform="rotate(-129.348 731.058 175.124)" stroke="url(#paint1_linear_920_88)" stroke-width="10"/>
<rect x="479.53" y="540.844" width="233" height="233" transform="rotate(-29.9473 479.53 540.844)" stroke="url(#paint2_linear_920_88)" stroke-width="30"/>
<path d="M524.517 883.968L529.769 881.467C534.944 879.002 541.096 881.756 542.706 887.257L542.89 887.888C544.289 892.667 549.411 895.295 554.109 893.643V893.643C558.729 892.018 563.778 894.532 565.267 899.197L566.416 902.799C567.832 907.236 572.699 909.557 577.039 907.866V907.866C581.528 906.116 586.54 908.662 587.774 913.319L587.844 913.582C589.248 918.881 595.305 921.395 600.049 918.649L604.442 916.106" stroke="#3FBAF9"/>
<path d="M524.517 883.968L529.769 881.467C534.944 879.002 541.096 881.756 542.706 887.257L542.89 887.888C544.289 892.667 549.411 895.295 554.109 893.643V893.643C558.729 892.018 563.778 894.532 565.267 899.197L566.416 902.799C567.832 907.236 572.699 909.557 577.039 907.866V907.866C581.528 906.116 586.54 908.662 587.774 913.319L587.844 913.582C589.248 918.881 595.305 921.395 600.049 918.649L604.442 916.106" stroke="#3FBAF9"/>
<path d="M524.517 883.968L529.769 881.467C534.944 879.002 541.096 881.756 542.706 887.257L542.89 887.888C544.289 892.667 549.411 895.295 554.109 893.643V893.643C558.729 892.018 563.778 894.532 565.267 899.197L566.416 902.799C567.832 907.236 572.699 909.557 577.039 907.866V907.866C581.528 906.116 586.54 908.662 587.774 913.319L587.844 913.582C589.248 918.881 595.305 921.395 600.049 918.649L604.442 916.106" stroke="#3FBAF9"/>
<path d="M521.403 889.097L526.656 886.596C531.831 884.132 537.983 886.885 539.593 892.387L539.777 893.017C541.176 897.797 546.298 900.424 550.996 898.772V898.772C555.616 897.148 560.665 899.661 562.154 904.326L563.303 907.928C564.719 912.365 569.586 914.687 573.926 912.995V912.995C578.414 911.245 583.426 913.791 584.661 918.448L584.731 918.712C586.135 924.01 592.192 926.525 596.936 923.779L601.329 921.236" stroke="#3FBAF9"/>
<path d="M521.403 889.097L526.656 886.596C531.831 884.132 537.983 886.885 539.593 892.387L539.777 893.017C541.176 897.797 546.298 900.424 550.996 898.772V898.772C555.616 897.148 560.665 899.661 562.154 904.326L563.303 907.928C564.719 912.365 569.586 914.687 573.926 912.995V912.995C578.414 911.245 583.426 913.791 584.661 918.448L584.731 918.712C586.135 924.01 592.192 926.525 596.936 923.779L601.329 921.236" stroke="#3FBAF9"/>
<path d="M521.403 889.097L526.656 886.596C531.831 884.132 537.983 886.885 539.593 892.387L539.777 893.017C541.176 897.797 546.298 900.424 550.996 898.772V898.772C555.616 897.148 560.665 899.661 562.154 904.326L563.303 907.928C564.719 912.365 569.586 914.687 573.926 912.995V912.995C578.414 911.245 583.426 913.791 584.661 918.448L584.731 918.712C586.135 924.01 592.192 926.525 596.936 923.779L601.329 921.236" stroke="#3FBAF9"/>
<path d="M519.999 895.264L525.249 892.729C530.356 890.263 536.454 892.994 538.014 898.447L538.19 899.06C539.549 903.808 544.638 906.419 549.287 904.754V904.754C553.859 903.116 558.875 905.613 560.325 910.249L561.434 913.797C562.813 918.207 567.65 920.514 571.945 918.812V918.812C576.387 917.051 581.367 919.581 582.564 924.207L582.628 924.456C583.986 929.706 589.988 932.201 594.667 929.461L599.07 926.883" stroke="#3FBAF9"/>
<path d="M519.999 895.264L525.249 892.729C530.356 890.263 536.454 892.994 538.014 898.447L538.19 899.06C539.549 903.808 544.638 906.419 549.287 904.754V904.754C553.859 903.116 558.875 905.613 560.325 910.249L561.434 913.797C562.813 918.207 567.65 920.514 571.945 918.812V918.812C576.387 917.051 581.367 919.581 582.564 924.207L582.628 924.456C583.986 929.706 589.988 932.201 594.667 929.461L599.07 926.883" stroke="#3FBAF9"/>
<path d="M519.999 895.264L525.249 892.729C530.356 890.263 536.454 892.994 538.014 898.447L538.19 899.06C539.549 903.808 544.638 906.419 549.287 904.754V904.754C553.859 903.116 558.875 905.613 560.325 910.249L561.434 913.797C562.813 918.207 567.65 920.514 571.945 918.812V918.812C576.387 917.051 581.367 919.581 582.564 924.207L582.628 924.456C583.986 929.706 589.988 932.201 594.667 929.461L599.07 926.883" stroke="#3FBAF9"/>
<path d="M521.28 82.5622L520.978 76.7527C520.68 71.0283 525.576 66.3971 531.275 67.0132L531.928 67.0838C536.879 67.6191 541.266 63.8908 541.536 58.918V58.918C541.802 54.0281 546.054 50.3239 550.935 50.7322L554.702 51.0473C559.343 51.4356 563.349 47.8263 563.446 43.1696V43.1696C563.545 38.353 567.814 34.6952 572.589 35.3354L572.86 35.3717C578.293 36.1002 582.932 31.4653 582.209 26.0317L581.539 20.9999" stroke="#B9E5F8"/>
<path d="M524.829 87.4001L524.527 81.5906C524.229 75.8662 529.125 71.235 534.824 71.8511L535.477 71.9217C540.428 72.457 544.815 68.7287 545.085 63.7559V63.7559C545.35 58.8659 549.603 55.1618 554.483 55.5701L558.251 55.8852C562.892 56.2735 566.898 52.6642 566.994 48.0075V48.0075C567.094 43.1908 571.363 39.5331 576.138 40.1733L576.409 40.2096C581.841 40.9381 586.481 36.3031 585.758 30.8696L585.088 25.8378" stroke="#B9E5F8"/>
<path d="M529.991 91.0558L529.657 85.2361C529.331 79.5736 534.186 74.9839 539.821 75.6268L540.455 75.6992C545.362 76.2589 549.72 72.5552 549.959 67.6224V67.6224C550.195 62.7715 554.42 59.0915 559.257 59.5247L562.961 59.8564C567.562 60.2686 571.544 56.6821 571.613 52.0624V52.0624C571.684 47.2847 575.927 43.6506 580.659 44.3136L580.913 44.3493C586.284 45.1017 590.884 40.5103 590.142 35.1385L589.443 30.085" stroke="#B9E5F8"/>
</g>
<defs>
<linearGradient id="paint0_linear_920_88" x1="1359.29" y1="592.91" x2="350.865" y2="469.091" gradientUnits="userSpaceOnUse">
<stop stop-color="#D4EFF8"/>
<stop offset="1" stop-color="#7BCCF7"/>
</linearGradient>
<linearGradient id="paint1_linear_920_88" x1="752.861" y1="182.161" x2="752.861" y2="227.161" gradientUnits="userSpaceOnUse">
<stop stop-color="#3ABFD9"/>
<stop offset="1" stop-color="#50C6FE"/>
</linearGradient>
<linearGradient id="paint2_linear_920_88" x1="610.176" y1="818.791" x2="695.776" y2="535.335" gradientUnits="userSpaceOnUse">
<stop stop-color="#9FF9F9"/>
<stop offset="1" stop-color="#4DC5FE"/>
</linearGradient>
<clipPath id="clip0_920_88">
<rect width="839" height="1001" fill="white"/>
</clipPath>
</defs>
</svg>
